{"glyphs":{"0":{"ha":788,"x_min":78,"x_max":710,"o":"m 340 -13 q 140 97 201 -13 q 101 415 78 206 l 119 590 q 225 912 141 802 q 449 1023 309 1023 q 649 912 588 1023 q 687 590 710 802 l 669 415 q 563 97 646 206 q 340 -13 479 -13 m 350 83 q 497 158 448 83 q 566 409 547 234 l 586 596 q 570 850 604 774 q 438 927 537 927 q 290 850 340 927 q 222 596 240 774 l 202 409 q 217 158 183 234 q 350 83 251 83 m 384 410 q 330 424 350 410 q 316 477 311 438 l 321 532 q 347 584 324 569 q 404 598 370 598 q 457 584 438 598 q 472 532 476 569 l 467 477 q 439 424 462 438 q 384 410 417 410 z "},"1":{"ha":788,"x_min":111,"x_max":668,"o":"m 111 0 l 121 91 l 354 91 l 436 881 l 407 881 q 306 791 369 819 q 172 775 242 763 l 172 881 q 325 907 251 872 q 453 1010 399 942 l 551 1010 l 455 91 l 668 91 l 658 0 l 111 0 z "},"2":{"ha":788,"x_min":57,"x_max":708,"o":"m 57 0 l 80 217 q 143 396 92 335 q 308 494 194 458 l 460 544 q 549 594 520 559 q 586 693 578 629 l 592 754 q 568 887 602 847 q 438 927 534 927 q 306 881 345 927 q 242 693 268 836 l 143 706 q 238 952 169 881 q 447 1023 307 1023 q 646 960 585 1023 q 694 770 708 898 l 684 678 q 626 532 676 585 q 465 443 577 479 l 314 393 q 223 338 256 378 q 182 220 191 298 l 169 91 l 635 91 l 625 0 l 57 0 z "},"3":{"ha":788,"x_min":69,"x_max":698,"o":"m 328 -13 q 117 58 165 -13 q 74 269 69 129 l 178 282 q 206 116 174 157 q 337 76 237 76 q 492 121 444 76 q 552 275 540 165 l 554 302 q 531 452 566 410 q 394 494 496 494 l 288 494 l 298 586 l 404 586 q 532 619 494 586 q 580 736 571 653 l 583 771 q 559 898 593 861 q 431 934 525 934 q 307 895 347 934 q 247 746 268 855 l 148 759 q 241 962 170 902 q 438 1023 312 1023 q 629 961 559 1023 q 684 764 698 900 l 679 722 q 623 606 672 648 q 497 559 574 564 l 494 523 q 625 452 585 514 q 658 311 665 390 l 654 277 q 565 66 640 145 q 328 -13 490 -13 z "},"4":{"ha":788,"x_min":74,"x_max":715,"o":"m 198 366 l 487 366 l 542 881 l 198 366 m 705 270 l 578 270 l 551 0 l 449 0 l 477 270 l 74 270 l 85 366 l 509 1010 l 657 1010 l 588 366 l 715 366 l 705 270 z "},"5":{"ha":788,"x_min":67,"x_max":687,"o":"m 332 -13 q 119 46 172 -13 q 74 268 67 105 l 178 280 q 203 120 172 157 q 342 83 235 83 q 494 130 446 83 q 551 265 542 177 l 557 326 q 539 465 567 417 q 434 513 510 513 l 133 513 l 184 1010 l 687 1010 l 677 914 l 275 914 l 244 614 l 442 614 q 619 545 562 614 q 659 328 676 476 l 652 256 q 557 60 639 133 q 332 -13 475 -13 z "},"6":{"ha":788,"x_min":76,"x_max":699,"o":"m 340 -13 q 136 82 197 -13 q 93 352 76 177 l 128 672 q 228 934 145 845 q 451 1023 311 1023 q 634 972 578 1023 q 699 802 691 920 l 585 773 q 550 893 578 860 q 438 927 521 927 q 292 867 340 927 q 230 669 244 808 l 215 530 l 235 530 q 313 605 268 581 q 426 630 357 630 q 617 544 561 630 q 659 327 673 458 l 658 307 q 560 69 641 150 q 340 -13 479 -13 m 348 83 q 491 136 442 83 q 552 302 540 188 l 553 312 q 527 476 564 424 q 395 528 489 528 q 253 476 302 528 q 192 312 203 424 l 191 302 q 217 136 179 188 q 348 83 255 83 z "},"7":{"ha":788,"x_min":152,"x_max":731,"o":"m 239 0 q 408 521 336 343 q 617 902 481 699 l 152 902 l 163 1010 l 731 1010 l 720 902 q 497 475 574 665 q 348 0 419 284 l 239 0 z "},"8":{"ha":788,"x_min":69,"x_max":699,"o":"m 340 -13 q 129 52 189 -13 q 85 260 69 116 l 87 284 q 148 444 97 383 q 278 514 198 505 l 282 551 q 184 609 220 557 q 157 745 148 662 l 160 782 q 242 966 174 909 q 448 1023 309 1023 q 643 966 587 1023 q 686 782 699 909 l 682 745 q 626 609 673 662 q 516 551 578 557 l 513 514 q 628 443 590 505 q 655 284 665 380 l 653 260 q 564 52 638 116 q 340 -13 490 -13 m 402 578 q 532 614 492 578 q 581 742 571 650 l 583 771 q 562 898 593 862 q 439 934 530 934 q 309 898 348 934 q 260 771 270 862 l 258 742 q 279 614 247 650 q 402 578 311 578 m 348 76 q 495 118 451 76 q 551 270 539 160 l 553 287 q 529 439 564 396 q 391 482 494 482 q 245 439 289 482 q 189 287 201 396 l 187 270 q 211 118 176 160 q 348 76 246 76 z "},"9":{"ha":788,"x_min":88,"x_max":712,"o":"m 393 482 q 535 534 486 482 q 596 698 585 586 l 597 708 q 571 874 609 822 q 439 927 533 927 q 297 874 346 927 q 236 708 247 822 l 235 698 q 261 534 223 586 q 393 482 299 482 m 337 -13 q 154 39 210 -13 q 88 208 98 91 l 203 237 q 240 115 210 146 q 350 83 270 83 q 496 143 448 83 q 558 340 544 202 l 573 480 l 554 480 q 476 406 525 432 q 360 380 427 380 q 172 460 230 380 q 129 683 114 540 l 131 703 q 229 941 148 860 q 448 1023 309 1023 q 652 927 591 1023 q 694 658 712 832 l 660 338 q 562 79 643 170 q 337 -13 481 -13 z "},"\u0000":{"ha":0,"x_min":0,"x_max":0,"o":""},"\r":{"ha":0,"x_min":0,"x_max":0,"o":""}," ":{"ha":788,"x_min":0,"x_max":0,"o":""}," ":{"ha":788,"x_min":0,"x_max":0,"o":""},"A":{"ha":788,"x_min":15,"x_max":667,"o":"m 501 400 l 432 879 l 261 400 l 501 400 m 559 0 l 515 308 l 230 308 l 120 0 l 15 0 l 395 1010 l 500 1010 l 667 0 l 559 0 z "},"À":{"ha":788,"x_min":15,"x_max":667,"o":"m 501 400 l 432 879 l 261 400 l 501 400 m 559 0 l 515 308 l 230 308 l 120 0 l 15 0 l 395 1010 l 500 1010 l 667 0 l 559 0 m 463 1136 l 285 1389 l 438 1389 l 557 1136 l 463 1136 z "},"Á":{"ha":788,"x_min":15,"x_max":667,"o":"m 501 400 l 432 879 l 261 400 l 501 400 m 559 0 l 515 308 l 230 308 l 120 0 l 15 0 l 395 1010 l 500 1010 l 667 0 l 559 0 m 342 1136 l 513 1389 l 667 1389 l 436 1136 l 342 1136 z "},"Â":{"ha":788,"x_min":15,"x_max":699,"o":"m 501 400 l 432 879 l 261 400 l 501 400 m 559 0 l 515 308 l 230 308 l 120 0 l 15 0 l 395 1010 l 500 1010 l 667 0 l 559 0 m 280 1159 l 240 1222 l 452 1407 l 524 1407 l 699 1222 l 643 1158 l 476 1299 l 280 1159 z "},"Ã":{"ha":788,"x_min":15,"x_max":706,"o":"m 501 400 l 432 879 l 261 400 l 501 400 m 559 0 l 515 308 l 230 308 l 120 0 l 15 0 l 395 1010 l 500 1010 l 667 0 l 559 0 m 544 1149 q 482 1174 504 1149 q 444 1226 460 1198 q 418 1278 431 1254 q 385 1302 405 1302 q 345 1271 361 1302 q 324 1173 330 1241 l 323 1162 l 244 1162 l 245 1181 q 297 1333 255 1271 q 405 1394 338 1394 q 473 1369 449 1394 q 510 1318 496 1345 q 533 1266 523 1290 q 563 1242 544 1242 q 602 1272 586 1242 q 626 1370 619 1302 l 628 1383 l 706 1383 l 703 1364 q 653 1210 694 1270 q 544 1149 611 1149 z "},"Ä":{"ha":788,"x_min":15,"x_max":667,"o":"m 501 400 l 432 879 l 261 400 l 501 400 m 559 0 l 515 308 l 230 308 l 120 0 l 15 0 l 395 1010 l 500 1010 l 667 0 l 559 0 m 341 1157 q 294 1170 311 1157 q 282 1221 277 1183 l 282 1227 q 306 1280 285 1266 q 356 1294 326 1294 q 403 1280 388 1294 q 415 1227 419 1266 l 415 1221 q 391 1170 410 1183 q 341 1157 371 1157 m 583 1157 q 535 1170 552 1157 q 524 1221 519 1183 l 524 1227 q 547 1280 528 1266 q 598 1294 567 1294 q 645 1280 628 1294 q 658 1227 662 1266 l 658 1221 q 633 1170 653 1183 q 583 1157 612 1157 z "},"Å":{"ha":788,"x_min":15,"x_max":667,"o":"m 501 400 l 432 879 l 261 400 l 501 400 m 559 0 l 515 308 l 230 308 l 120 0 l 15 0 l 395 1010 l 500 1010 l 667 0 l 559 0 m 458 1121 q 343 1165 384 1121 q 311 1301 302 1210 l 316 1341 q 376 1479 324 1433 q 501 1524 427 1524 q 617 1479 577 1524 q 649 1341 658 1433 l 644 1301 q 584 1165 635 1210 q 458 1121 533 1121 m 467 1203 q 535 1225 510 1203 q 564 1301 559 1247 l 569 1341 q 555 1417 574 1393 q 492 1442 535 1442 q 425 1417 449 1442 q 395 1341 400 1393 l 390 1301 q 405 1225 385 1247 q 467 1203 424 1203 z "},"Ā":{"ha":788,"x_min":15,"x_max":688,"o":"m 501 400 l 432 879 l 261 400 l 501 400 m 559 0 l 515 308 l 230 308 l 120 0 l 15 0 l 395 1010 l 500 1010 l 667 0 l 559 0 m 259 1217 l 269 1308 l 688 1308 l 678 1217 l 259 1217 z "},"Ă":{"ha":788,"x_min":15,"x_max":730,"o":"m 501 400 l 432 879 l 261 400 l 501 400 m 559 0 l 515 308 l 230 308 l 120 0 l 15 0 l 395 1010 l 500 1010 l 667 0 l 559 0 m 460 1128 q 290 1189 350 1128 q 242 1381 230 1250 l 346 1381 q 368 1252 337 1290 q 468 1213 399 1213 q 576 1252 538 1213 q 626 1381 615 1290 l 730 1381 q 642 1189 715 1250 q 460 1128 569 1128 z "},"Ą":{"ha":788,"x_min":15,"x_max":701,"o":"m 501 400 l 432 879 l 261 400 l 501 400 m 559 0 l 515 308 l 230 308 l 120 0 l 15 0 l 395 1010 l 500 1010 l 667 0 l 559 0 m 585 -269 q 477 -229 519 -269 q 443 -121 436 -189 q 494 -20 449 -66 q 588 48 539 25 l 614 29 q 557 -33 573 1 q 538 -91 540 -67 q 552 -146 534 -126 q 606 -165 571 -165 q 655 -161 625 -165 q 701 -153 684 -157 l 691 -256 q 639 -265 669 -261 q 585 -269 609 -269 z "},"Ǻ":{"ha":788,"x_min":15,"x_max":729,"o":"m 501 400 l 432 879 l 261 400 l 501 400 m 559 0 l 515 308 l 230 308 l 120 0 l 15 0 l 395 1010 l 500 1010 l 667 0 l 559 0 m 458 1121 q 343 1165 384 1121 q 311 1301 302 1210 l 316 1341 q 376 1479 324 1433 q 501 1524 427 1524 q 617 1479 577 1524 q 649 1341 658 1433 l 644 1301 q 584 1165 635 1210 q 458 1121 533 1121 m 467 1203 q 535 1225 510 1203 q 564 1301 559 1247 l 569 1341 q 555 1417 574 1393 q 492 1442 535 1442 q 425 1417 449 1442 q 395 1341 400 1393 l 390 1301 q 405 1225 385 1247 q 467 1203 424 1203 m 404 1515 l 574 1768 l 729 1768 l 497 1515 l 404 1515 z "},"B":{"ha":788,"x_min":80,"x_max":688,"o":"m 80 0 l 186 1010 l 444 1010 q 631 951 574 1010 q 676 773 688 893 l 669 712 q 625 609 663 653 q 529 553 587 564 l 525 516 q 633 453 596 509 q 662 309 670 396 l 655 255 q 566 63 643 126 q 346 0 489 0 l 80 0 m 241 573 l 410 573 q 525 610 487 573 q 572 730 563 646 l 574 758 q 553 878 583 841 q 446 914 523 914 l 277 914 l 241 573 m 191 96 l 381 96 q 505 137 463 96 q 556 269 547 178 l 559 303 q 537 436 569 395 q 422 477 504 477 l 231 477 l 191 96 z "},"":{"ha":788,"x_min":80,"x_max":688,"o":"m 80 0 l 186 1010 l 444 1010 q 631 951 574 1010 q 676 773 688 893 l 669 712 q 625 609 663 653 q 529 553 587 564 l 525 516 q 633 453 596 509 q 662 309 670 396 l 655 255 q 566 63 643 126 q 346 0 489 0 l 80 0 m 241 573 l 410 573 q 525 610 487 573 q 572 730 563 646 l 574 758 q 553 878 583 841 q 446 914 523 914 l 277 914 l 241 573 m 191 96 l 381 96 q 505 137 463 96 q 556 269 547 178 l 559 303 q 537 436 569 395 q 422 477 504 477 l 231 477 l 191 96 z "},"C":{"ha":788,"x_min":74,"x_max":727,"o":"m 351 -13 q 140 75 205 -13 q 92 336 74 163 l 128 669 q 229 934 145 845 q 460 1023 313 1023 q 665 941 602 1023 q 717 688 727 860 l 616 676 q 585 875 621 818 q 451 932 549 932 q 295 874 345 932 q 230 678 245 816 l 193 327 q 220 139 181 199 q 361 78 260 78 q 507 133 460 78 q 580 330 554 188 l 678 317 q 573 68 652 148 q 351 -13 494 -13 z "},"Ç":{"ha":788,"x_min":74,"x_max":727,"o":"m 351 -13 q 140 75 205 -13 q 92 336 74 163 l 128 669 q 229 934 145 845 q 460 1023 313 1023 q 665 941 602 1023 q 717 688 727 860 l 616 676 q 585 875 621 818 q 451 932 549 932 q 295 874 345 932 q 230 678 245 816 l 193 327 q 220 139 181 199 q 361 78 260 78 q 507 133 460 78 q 580 330 554 188 l 678 317 q 573 68 652 148 q 351 -13 494 -13 m 319 0 l 345 53 q 431 -1 399 40 q 456 -115 463 -43 q 396 -232 448 -194 q 289 -269 345 -269 q 182 -242 222 -269 q 144 -146 141 -215 l 235 -134 q 247 -167 234 -158 q 293 -177 260 -177 q 343 -160 324 -177 q 366 -101 361 -144 q 360 -32 370 -54 q 319 0 350 -10 z "},"Ć":{"ha":788,"x_min":74,"x_max":727,"o":"m 351 -13 q 140 75 205 -13 q 92 336 74 163 l 128 669 q 229 934 145 845 q 460 1023 313 1023 q 665 941 602 1023 q 717 688 727 860 l 616 676 q 585 875 621 818 q 451 932 549 932 q 295 874 345 932 q 230 678 245 816 l 193 327 q 220 139 181 199 q 361 78 260 78 q 507 133 460 78 q 580 330 554 188 l 678 317 q 573 68 652 148 q 351 -13 494 -13 m 395 1136 l 566 1389 l 720 1389 l 489 1136 l 395 1136 z "},"Ĉ":{"ha":788,"x_min":74,"x_max":727,"o":"m 351 -13 q 140 75 205 -13 q 92 336 74 163 l 128 669 q 229 934 145 845 q 460 1023 313 1023 q 665 941 602 1023 q 717 688 727 860 l 616 676 q 585 875 621 818 q 451 932 549 932 q 295 874 345 932 q 230 678 245 816 l 193 327 q 220 139 181 199 q 361 78 260 78 q 507 133 460 78 q 580 330 554 188 l 678 317 q 573 68 652 148 q 351 -13 494 -13 m 289 1159 l 249 1222 l 461 1407 l 533 1407 l 708 1222 l 652 1158 l 485 1299 l 289 1159 z "},"Ċ":{"ha":788,"x_min":74,"x_max":727,"o":"m 351 -13 q 140 75 205 -13 q 92 336 74 163 l 128 669 q 229 934 145 845 q 460 1023 313 1023 q 665 941 602 1023 q 717 688 727 860 l 616 676 q 585 875 621 818 q 451 932 549 932 q 295 874 345 932 q 230 678 245 816 l 193 327 q 220 139 181 199 q 361 78 260 78 q 507 133 460 78 q 580 330 554 188 l 678 317 q 573 68 652 148 q 351 -13 494 -13 m 471 1157 q 408 1170 432 1157 q 390 1221 385 1183 l 390 1227 q 420 1280 394 1266 q 486 1294 447 1294 q 548 1280 525 1294 q 567 1227 571 1266 l 567 1221 q 536 1170 562 1183 q 471 1157 510 1157 z "},"Č":{"ha":788,"x_min":74,"x_max":727,"o":"m 351 -13 q 140 75 205 -13 q 92 336 74 163 l 128 669 q 229 934 145 845 q 460 1023 313 1023 q 665 941 602 1023 q 717 688 727 860 l 616 676 q 585 875 621 818 q 451 932 549 932 q 295 874 345 932 q 230 678 245 816 l 193 327 q 220 139 181 199 q 361 78 260 78 q 507 133 460 78 q 580 330 554 188 l 678 317 q 573 68 652 148 q 351 -13 494 -13 m 434 1141 l 259 1326 l 316 1389 l 482 1250 l 678 1389 l 718 1326 l 506 1141 l 434 1141 z "},"D":{"ha":788,"x_min":80,"x_max":711,"o":"m 80 0 l 186 1010 l 414 1010 q 636 915 561 1010 q 694 663 711 821 l 660 342 q 550 93 645 187 q 308 0 455 0 l 80 0 m 191 91 l 319 91 q 485 158 424 91 q 558 336 547 225 l 593 669 q 558 850 605 782 q 407 919 511 919 l 278 919 l 191 91 z "},"Ď":{"ha":788,"x_min":80,"x_max":711,"o":"m 80 0 l 186 1010 l 414 1010 q 636 915 561 1010 q 694 663 711 821 l 660 342 q 550 93 645 187 q 308 0 455 0 l 80 0 m 191 91 l 319 91 q 485 158 424 91 q 558 336 547 225 l 593 669 q 558 850 605 782 q 407 919 511 919 l 278 919 l 191 91 m 424 1141 l 249 1326 l 306 1389 l 472 1250 l 668 1389 l 708 1326 l 496 1141 l 424 1141 z "},"E":{"ha":788,"x_min":80,"x_max":731,"o":"m 80 0 l 186 1010 l 731 1010 l 722 919 l 278 919 l 244 598 l 635 598 l 625 506 l 234 506 l 191 91 l 635 91 l 625 0 l 80 0 z "},"":{"ha":788,"x_min":80,"x_max":731,"o":"m 80 0 l 186 1010 l 731 1010 l 722 919 l 278 919 l 244 598 l 635 598 l 625 506 l 234 506 l 191 91 l 635 91 l 625 0 l 80 0 z "},"È":{"ha":788,"x_min":80,"x_max":731,"o":"m 80 0 l 186 1010 l 731 1010 l 722 919 l 278 919 l 244 598 l 635 598 l 625 506 l 234 506 l 191 91 l 635 91 l 625 0 l 80 0 m 472 1136 l 294 1389 l 447 1389 l 566 1136 l 472 1136 z "},"É":{"ha":788,"x_min":80,"x_max":731,"o":"m 80 0 l 186 1010 l 731 1010 l 722 919 l 278 919 l 244 598 l 635 598 l 625 506 l 234 506 l 191 91 l 635 91 l 625 0 l 80 0 m 372 1136 l 543 1389 l 697 1389 l 466 1136 l 372 1136 z "},"Ê":{"ha":788,"x_min":80,"x_max":731,"o":"m 80 0 l 186 1010 l 731 1010 l 722 919 l 278 919 l 244 598 l 635 598 l 625 506 l 234 506 l 191 91 l 635 91 l 625 0 l 80 0 m 301 1159 l 260 1222 l 472 1407 l 544 1407 l 720 1222 l 663 1158 l 496 1299 l 301 1159 z "},"Ë":{"ha":788,"x_min":80,"x_max":731,"o":"m 80 0 l 186 1010 l 731 1010 l 722 919 l 278 919 l 244 598 l 635 598 l 625 506 l 234 506 l 191 91 l 635 91 l 625 0 l 80 0 m 361 1157 q 314 1170 331 1157 q 302 1221 297 1183 l 302 1227 q 326 1280 306 1266 q 376 1294 346 1294 q 424 1280 408 1294 q 436 1227 439 1266 l 436 1221 q 411 1170 431 1183 q 361 1157 391 1157 m 604 1157 q 556 1170 572 1157 q 544 1221 539 1183 l 544 1227 q 568 1280 548 1266 q 619 1294 587 1294 q 665 1280 648 1294 q 678 1227 682 1266 l 678 1221 q 653 1170 673 1183 q 604 1157 633 1157 z "},"Ē":{"ha":788,"x_min":80,"x_max":731,"o":"m 80 0 l 186 1010 l 731 1010 l 722 919 l 278 919 l 244 598 l 635 598 l 625 506 l 234 506 l 191 91 l 635 91 l 625 0 l 80 0 m 279 1217 l 289 1308 l 708 1308 l 698 1217 l 279 1217 z "},"Ĕ":{"ha":788,"x_min":80,"x_max":750,"o":"m 80 0 l 186 1010 l 731 1010 l 722 919 l 278 919 l 244 598 l 635 598 l 625 506 l 234 506 l 191 91 l 635 91 l 625 0 l 80 0 m 480 1128 q 310 1189 370 1128 q 263 1381 250 1250 l 366 1381 q 388 1252 357 1290 q 489 1213 419 1213 q 597 1252 558 1213 q 646 1381 635 1290 l 750 1381 q 662 1189 735 1250 q 480 1128 590 1128 z "},"Ė":{"ha":788,"x_min":80,"x_max":731,"o":"m 80 0 l 186 1010 l 731 1010 l 722 919 l 278 919 l 244 598 l 635 598 l 625 506 l 234 506 l 191 91 l 635 91 l 625 0 l 80 0 m 482 1157 q 420 1170 443 1157 q 402 1221 396 1183 l 402 1227 q 432 1280 405 1266 q 497 1294 458 1294 q 559 1280 537 1294 q 578 1227 582 1266 l 578 1221 q 547 1170 573 1183 q 482 1157 521 1157 z "},"Ę":{"ha":788,"x_min":80,"x_max":731,"o":"m 492 -269 q 385 -229 427 -269 q 351 -121 343 -189 q 402 -20 357 -66 q 496 48 447 25 l 521 29 q 465 -33 481 1 q 446 -91 448 -67 q 460 -146 442 -126 q 514 -165 479 -165 q 563 -161 533 -165 q 609 -153 592 -157 l 598 -256 q 547 -265 577 -261 q 492 -269 516 -269 m 80 0 l 186 1010 l 731 1010 l 722 919 l 278 919 l 244 598 l 635 598 l 625 506 l 234 506 l 191 91 l 635 91 l 625 0 l 80 0 z "},"Ě":{"ha":788,"x_min":80,"x_max":741,"o":"m 80 0 l 186 1010 l 731 1010 l 722 919 l 278 919 l 244 598 l 635 598 l 625 506 l 234 506 l 191 91 l 635 91 l 625 0 l 80 0 m 457 1141 l 282 1326 l 338 1389 l 505 1250 l 701 1389 l 741 1326 l 529 1141 l 457 1141 z "},"F":{"ha":788,"x_min":77,"x_max":730,"o":"m 77 0 l 183 1010 l 730 1010 l 721 919 l 275 919 l 230 487 l 601 487 l 591 395 l 220 395 l 178 0 l 77 0 z "},"G":{"ha":788,"x_min":76,"x_max":708,"o":"m 357 -13 q 141 81 207 -13 q 92 336 76 176 l 128 669 q 230 932 145 842 q 460 1023 316 1023 q 650 947 591 1023 q 699 706 708 871 l 596 693 q 568 876 601 821 q 448 932 534 932 q 295 874 346 932 q 230 677 245 817 l 193 327 q 221 135 179 192 q 371 78 263 78 q 518 146 468 78 q 583 376 567 215 l 380 376 l 390 467 l 696 467 l 683 351 q 581 81 665 174 q 357 -13 497 -13 z "},"Ĝ":{"ha":788,"x_min":76,"x_max":720,"o":"m 357 -13 q 141 81 207 -13 q 92 336 76 176 l 128 669 q 230 932 145 842 q 460 1023 316 1023 q 650 947 591 1023 q 699 706 708 871 l 596 693 q 568 876 601 821 q 448 932 534 932 q 295 874 346 932 q 230 677 245 817 l 193 327 q 221 135 179 192 q 371 78 263 78 q 518 146 468 78 q 583 376 567 215 l 380 376 l 390 467 l 696 467 l 683 351 q 581 81 665 174 q 357 -13 497 -13 m 301 1159 l 260 1222 l 472 1407 l 544 1407 l 720 1222 l 663 1158 l 496 1299 l 301 1159 z "},"Ğ":{"ha":788,"x_min":76,"x_max":750,"o":"m 357 -13 q 141 81 207 -13 q 92 336 76 176 l 128 669 q 230 932 145 842 q 460 1023 316 1023 q 650 947 591 1023 q 699 706 708 871 l 596 693 q 568 876 601 821 q 448 932 534 932 q 295 874 346 932 q 230 677 245 817 l 193 327 q 221 135 179 192 q 371 78 263 78 q 518 146 468 78 q 583 376 567 215 l 380 376 l 390 467 l 696 467 l 683 351 q 581 81 665 174 q 357 -13 497 -13 m 480 1128 q 310 1189 370 1128 q 263 1381 250 1250 l 366 1381 q 388 1252 357 1290 q 489 1213 419 1213 q 597 1252 558 1213 q 646 1381 635 1290 l 750 1381 q 662 1189 735 1250 q 480 1128 590 1128 z "},"Ġ":{"ha":788,"x_min":76,"x_max":708,"o":"m 357 -13 q 141 81 207 -13 q 92 336 76 176 l 128 669 q 230 932 145 842 q 460 1023 316 1023 q 650 947 591 1023 q 699 706 708 871 l 596 693 q 568 876 601 821 q 448 932 534 932 q 295 874 346 932 q 230 677 245 817 l 193 327 q 221 135 179 192 q 371 78 263 78 q 518 146 468 78 q 583 376 567 215 l 380 376 l 390 467 l 696 467 l 683 351 q 581 81 665 174 q 357 -13 497 -13 m 471 1157 q 408 1170 432 1157 q 390 1221 385 1183 l 390 1227 q 420 1280 394 1266 q 486 1294 447 1294 q 548 1280 525 1294 q 567 1227 571 1266 l 567 1221 q 536 1170 562 1183 q 471 1157 510 1157 z "},"Ģ":{"ha":788,"x_min":76,"x_max":708,"o":"m 170 -379 l 299 -126 l 453 -126 l 265 -379 l 170 -379 m 357 -13 q 141 81 207 -13 q 92 336 76 176 l 128 669 q 230 932 145 842 q 460 1023 316 1023 q 650 947 591 1023 q 699 706 708 871 l 596 693 q 568 876 601 821 q 448 932 534 932 q 295 874 346 932 q 230 677 245 817 l 193 327 q 221 135 179 192 q 371 78 263 78 q 518 146 468 78 q 583 376 567 215 l 380 376 l 390 467 l 696 467 l 683 351 q 581 81 665 174 q 357 -13 497 -13 z "},"H":{"ha":788,"x_min":80,"x_max":708,"o":"m 80 0 l 186 1010 l 287 1010 l 242 592 l 563 592 l 607 1010 l 708 1010 l 602 0 l 501 0 l 554 500 l 234 500 l 181 0 l 80 0 z "},"Ĥ":{"ha":788,"x_min":80,"x_max":708,"o":"m 80 0 l 186 1010 l 287 1010 l 242 592 l 563 592 l 607 1010 l 708 1010 l 602 0 l 501 0 l 554 500 l 234 500 l 181 0 l 80 0 m 279 1159 l 239 1222 l 451 1407 l 523 1407 l 698 1222 l 641 1158 l 475 1299 l 279 1159 z "},"I":{"ha":788,"x_min":80,"x_max":708,"o":"m 80 0 l 90 91 l 301 91 l 388 919 l 177 919 l 186 1010 l 708 1010 l 699 919 l 489 919 l 402 91 l 612 91 l 602 0 l 80 0 z "},"Ì":{"ha":788,"x_min":80,"x_max":708,"o":"m 80 0 l 90 91 l 301 91 l 388 919 l 177 919 l 186 1010 l 708 1010 l 699 919 l 489 919 l 402 91 l 612 91 l 602 0 l 80 0 m 462 1136 l 284 1389 l 437 1389 l 556 1136 l 462 1136 z "},"Í":{"ha":788,"x_min":80,"x_max":708,"o":"m 80 0 l 90 91 l 301 91 l 388 919 l 177 919 l 186 1010 l 708 1010 l 699 919 l 489 919 l 402 91 l 612 91 l 602 0 l 80 0 m 341 1136 l 511 1389 l 665 1389 l 434 1136 l 341 1136 z "},"Î":{"ha":788,"x_min":80,"x_max":708,"o":"m 80 0 l 90 91 l 301 91 l 388 919 l 177 919 l 186 1010 l 708 1010 l 699 919 l 489 919 l 402 91 l 612 91 l 602 0 l 80 0 m 279 1159 l 239 1222 l 451 1407 l 523 1407 l 698 1222 l 641 1158 l 475 1299 l 279 1159 z "},"Ï":{"ha":788,"x_min":80,"x_max":708,"o":"m 80 0 l 90 91 l 301 91 l 388 919 l 177 919 l 186 1010 l 708 1010 l 699 919 l 489 919 l 402 91 l 612 91 l 602 0 l 80 0 m 340 1157 q 292 1170 309 1157 q 280 1221 275 1183 l 280 1227 q 304 1280 284 1266 q 355 1294 324 1294 q 402 1280 386 1294 q 414 1227 418 1266 l 414 1221 q 390 1170 409 1183 q 340 1157 370 1157 m 582 1157 q 534 1170 551 1157 q 523 1221 518 1183 l 523 1227 q 546 1280 527 1266 q 597 1294 566 1294 q 643 1280 626 1294 q 657 1227 660 1266 l 657 1221 q 631 1170 652 1183 q 582 1157 611 1157 z "},"Ĩ":{"ha":788,"x_min":80,"x_max":708,"o":"m 80 0 l 90 91 l 301 91 l 388 919 l 177 919 l 186 1010 l 708 1010 l 699 919 l 489 919 l 402 91 l 612 91 l 602 0 l 80 0 m 543 1149 q 480 1174 503 1149 q 443 1226 458 1198 q 417 1278 429 1254 q 384 1302 404 1302 q 344 1271 360 1302 q 323 1173 328 1241 l 322 1162 l 242 1162 l 244 1181 q 295 1333 254 1271 q 404 1394 337 1394 q 472 1369 448 1394 q 509 1318 495 1345 q 532 1266 521 1290 q 562 1242 543 1242 q 601 1272 585 1242 q 625 1370 617 1302 l 626 1383 l 705 1383 l 702 1364 q 652 1210 693 1270 q 543 1149 610 1149 z "},"Ī":{"ha":788,"x_min":80,"x_max":708,"o":"m 80 0 l 90 91 l 301 91 l 388 919 l 177 919 l 186 1010 l 708 1010 l 699 919 l 489 919 l 402 91 l 612 91 l 602 0 l 80 0 m 258 1217 l 268 1308 l 687 1308 l 677 1217 l 258 1217 z "},"Ĭ":{"ha":788,"x_min":80,"x_max":729,"o":"m 80 0 l 90 91 l 301 91 l 388 919 l 177 919 l 186 1010 l 708 1010 l 699 919 l 489 919 l 402 91 l 612 91 l 602 0 l 80 0 m 458 1128 q 289 1189 348 1128 q 241 1381 229 1250 l 345 1381 q 367 1252 336 1290 q 467 1213 398 1213 q 575 1252 537 1213 q 625 1381 614 1290 l 729 1381 q 641 1189 713 1250 q 458 1128 568 1128 z "},"Į":{"ha":788,"x_min":80,"x_max":708,"o":"m 80 0 l 90 91 l 301 91 l 388 919 l 177 919 l 186 1010 l 708 1010 l 699 919 l 489 919 l 402 91 l 612 91 l 602 0 l 80 0 m 386 -269 q 279 -229 321 -269 q 245 -121 237 -189 q 296 -20 251 -66 q 390 48 341 25 l 415 29 q 359 -33 375 1 q 340 -91 342 -67 q 354 -146 336 -126 q 408 -165 372 -165 q 456 -161 427 -165 q 503 -153 486 -157 l 492 -256 q 441 -265 471 -261 q 386 -269 410 -269 z "},"İ":{"ha":788,"x_min":80,"x_max":708,"o":"m 80 0 l 90 91 l 301 91 l 388 919 l 177 919 l 186 1010 l 708 1010 l 699 919 l 489 919 l 402 91 l 612 91 l 602 0 l 80 0 m 461 1157 q 398 1170 422 1157 q 380 1221 375 1183 l 380 1227 q 410 1280 384 1266 q 476 1294 437 1294 q 538 1280 515 1294 q 557 1227 561 1266 l 557 1221 q 526 1170 552 1183 q 461 1157 500 1157 z "},"J":{"ha":788,"x_min":58,"x_max":710,"o":"m 319 -13 q 118 64 178 -13 q 69 313 58 141 l 172 327 q 197 129 165 181 q 331 78 229 78 q 472 136 422 78 q 535 307 523 193 l 600 919 l 390 919 l 399 1010 l 710 1010 l 636 309 q 537 69 620 152 q 319 -13 455 -13 z "},"Ĵ":{"ha":788,"x_min":58,"x_max":794,"o":"m 319 -13 q 118 64 178 -13 q 69 313 58 141 l 172 327 q 197 129 165 181 q 331 78 229 78 q 472 136 422 78 q 535 307 523 193 l 600 919 l 390 919 l 399 1010 l 710 1010 l 636 309 q 537 69 620 152 q 319 -13 455 -13 m 375 1159 l 335 1222 l 547 1407 l 619 1407 l 794 1222 l 737 1158 l 571 1299 l 375 1159 z "},"K":{"ha":788,"x_min":80,"x_max":771,"o":"m 232 496 l 181 0 l 80 0 l 186 1010 l 287 1010 l 242 588 l 278 588 l 653 1010 l 771 1010 l 350 547 l 663 0 l 539 0 l 271 496 l 232 496 z "},"Ķ":{"ha":788,"x_min":80,"x_max":771,"o":"m 232 496 l 181 0 l 80 0 l 186 1010 l 287 1010 l 242 588 l 278 588 l 653 1010 l 771 1010 l 350 547 l 663 0 l 539 0 l 271 496 l 232 496 m 159 -379 l 288 -126 l 442 -126 l 254 -379 l 159 -379 z "},"L":{"ha":788,"x_min":133,"x_max":612,"o":"m 133 0 l 239 1010 l 338 1010 l 242 91 l 612 91 l 602 0 l 133 0 z "},"Ĺ":{"ha":788,"x_min":133,"x_max":616,"o":"m 133 0 l 239 1010 l 338 1010 l 242 91 l 612 91 l 602 0 l 133 0 m 292 1136 l 462 1389 l 616 1389 l 385 1136 l 292 1136 z "},"Ļ":{"ha":788,"x_min":133,"x_max":612,"o":"m 133 0 l 239 1010 l 338 1010 l 242 91 l 612 91 l 602 0 l 133 0 m 174 -379 l 303 -126 l 457 -126 l 269 -379 l 174 -379 z "},"Ľ":{"ha":788,"x_min":133,"x_max":746,"o":"m 133 0 l 239 1010 l 338 1010 l 242 91 l 612 91 l 602 0 l 133 0 m 471 638 l 596 1010 l 746 1010 l 544 638 l 471 638 z "},"M":{"ha":788,"x_min":42,"x_max":746,"o":"m 316 235 l 223 856 l 133 0 l 42 0 l 148 1010 l 287 1010 l 384 374 l 612 1010 l 746 1010 l 640 0 l 549 0 l 638 848 l 417 235 l 316 235 z "},"N":{"ha":788,"x_min":80,"x_max":708,"o":"m 455 0 l 265 900 l 170 0 l 80 0 l 186 1010 l 326 1010 l 523 111 l 617 1010 l 708 1010 l 602 0 l 455 0 z "},"Ñ":{"ha":788,"x_min":80,"x_max":726,"o":"m 455 0 l 265 900 l 170 0 l 80 0 l 186 1010 l 326 1010 l 523 111 l 617 1010 l 708 1010 l 602 0 l 455 0 m 564 1149 q 502 1174 524 1149 q 465 1226 480 1198 q 438 1278 451 1254 q 405 1302 426 1302 q 366 1271 381 1302 q 345 1173 350 1241 l 343 1162 l 264 1162 l 265 1181 q 317 1333 275 1271 q 426 1394 359 1394 q 493 1369 470 1394 q 530 1318 516 1345 q 554 1266 543 1290 q 583 1242 564 1242 q 622 1272 606 1242 q 646 1370 639 1302 l 648 1383 l 726 1383 l 723 1364 q 673 1210 715 1270 q 564 1149 631 1149 z "},"Ń":{"ha":788,"x_min":80,"x_max":708,"o":"m 455 0 l 265 900 l 170 0 l 80 0 l 186 1010 l 326 1010 l 523 111 l 617 1010 l 708 1010 l 602 0 l 455 0 m 361 1136 l 532 1389 l 686 1389 l 455 1136 l 361 1136 z "},"Ņ":{"ha":788,"x_min":80,"x_max":708,"o":"m 139 -379 l 268 -126 l 422 -126 l 234 -379 l 139 -379 m 455 0 l 265 900 l 170 0 l 80 0 l 186 1010 l 326 1010 l 523 111 l 617 1010 l 708 1010 l 602 0 l 455 0 z "},"Ň":{"ha":788,"x_min":80,"x_max":730,"o":"m 455 0 l 265 900 l 170 0 l 80 0 l 186 1010 l 326 1010 l 523 111 l 617 1010 l 708 1010 l 602 0 l 455 0 m 446 1141 l 270 1326 l 327 1389 l 494 1250 l 689 1389 l 730 1326 l 518 1141 l 446 1141 z "},"O":{"ha":788,"x_min":74,"x_max":713,"o":"m 340 -13 q 138 78 202 -13 q 92 341 74 168 l 126 664 q 228 932 145 841 q 449 1023 311 1023 q 650 932 587 1023 q 694 664 713 841 l 660 341 q 561 78 643 168 q 340 -13 479 -13 m 350 78 q 496 137 448 78 q 558 333 543 196 l 593 672 q 573 872 609 812 q 439 932 538 932 q 293 872 341 932 q 230 672 245 812 l 194 333 q 215 137 179 196 q 350 78 251 78 z "},"Ò":{"ha":788,"x_min":74,"x_max":713,"o":"m 340 -13 q 138 78 202 -13 q 92 341 74 168 l 126 664 q 228 932 145 841 q 449 1023 311 1023 q 650 932 587 1023 q 694 664 713 841 l 660 341 q 561 78 643 168 q 340 -13 479 -13 m 350 78 q 496 137 448 78 q 558 333 543 196 l 593 672 q 573 872 609 812 q 439 932 538 932 q 293 872 341 932 q 230 672 245 812 l 194 333 q 215 137 179 196 q 350 78 251 78 m 462 1136 l 284 1389 l 437 1389 l 556 1136 l 462 1136 z "},"Ó":{"ha":788,"x_min":74,"x_max":713,"o":"m 340 -13 q 138 78 202 -13 q 92 341 74 168 l 126 664 q 228 932 145 841 q 449 1023 311 1023 q 650 932 587 1023 q 694 664 713 841 l 660 341 q 561 78 643 168 q 340 -13 479 -13 m 350 78 q 496 137 448 78 q 558 333 543 196 l 593 672 q 573 872 609 812 q 439 932 538 932 q 293 872 341 932 q 230 672 245 812 l 194 333 q 215 137 179 196 q 350 78 251 78 m 384 1136 l 554 1389 l 708 1389 l 477 1136 l 384 1136 z "},"Ô":{"ha":788,"x_min":74,"x_max":713,"o":"m 340 -13 q 138 78 202 -13 q 92 341 74 168 l 126 664 q 228 932 145 841 q 449 1023 311 1023 q 650 932 587 1023 q 694 664 713 841 l 660 341 q 561 78 643 168 q 340 -13 479 -13 m 350 78 q 496 137 448 78 q 558 333 543 196 l 593 672 q 573 872 609 812 q 439 932 538 932 q 293 872 341 932 q 230 672 245 812 l 194 333 q 215 137 179 196 q 350 78 251 78 m 279 1159 l 239 1222 l 451 1407 l 523 1407 l 698 1222 l 641 1158 l 475 1299 l 279 1159 z "},"Õ":{"ha":788,"x_min":74,"x_max":713,"o":"m 340 -13 q 138 78 202 -13 q 92 341 74 168 l 126 664 q 228 932 145 841 q 449 1023 311 1023 q 650 932 587 1023 q 694 664 713 841 l 660 341 q 561 78 643 168 q 340 -13 479 -13 m 350 78 q 496 137 448 78 q 558 333 543 196 l 593 672 q 573 872 609 812 q 439 932 538 932 q 293 872 341 932 q 230 672 245 812 l 194 333 q 215 137 179 196 q 350 78 251 78 m 543 1149 q 480 1174 503 1149 q 443 1226 458 1198 q 417 1278 429 1254 q 384 1302 404 1302 q 344 1271 360 1302 q 323 1173 328 1241 l 322 1162 l 242 1162 l 244 1181 q 295 1333 254 1271 q 404 1394 337 1394 q 472 1369 448 1394 q 509 1318 495 1345 q 532 1266 521 1290 q 562 1242 543 1242 q 601 1272 585 1242 q 625 1370 617 1302 l 626 1383 l 705 1383 l 702 1364 q 652 1210 693 1270 q 543 1149 610 1149 z "},"Ö":{"ha":788,"x_min":74,"x_max":713,"o":"m 340 -13 q 138 78 202 -13 q 92 341 74 168 l 126 664 q 228 932 145 841 q 449 1023 311 1023 q 650 932 587 1023 q 694 664 713 841 l 660 341 q 561 78 643 168 q 340 -13 479 -13 m 350 78 q 496 137 448 78 q 558 333 543 196 l 593 672 q 573 872 609 812 q 439 932 538 932 q 293 872 341 932 q 230 672 245 812 l 194 333 q 215 137 179 196 q 350 78 251 78 m 340 1157 q 292 1170 309 1157 q 280 1221 275 1183 l 280 1227 q 304 1280 284 1266 q 355 1294 324 1294 q 402 1280 386 1294 q 414 1227 418 1266 l 414 1221 q 390 1170 409 1183 q 340 1157 370 1157 m 582 1157 q 534 1170 551 1157 q 523 1221 518 1183 l 523 1227 q 546 1280 527 1266 q 597 1294 566 1294 q 643 1280 626 1294 q 657 1227 660 1266 l 657 1221 q 631 1170 652 1183 q 582 1157 611 1157 z "},"Ō":{"ha":788,"x_min":74,"x_max":713,"o":"m 340 -13 q 138 78 202 -13 q 92 341 74 168 l 126 664 q 228 932 145 841 q 449 1023 311 1023 q 650 932 587 1023 q 694 664 713 841 l 660 341 q 561 78 643 168 q 340 -13 479 -13 m 350 78 q 496 137 448 78 q 558 333 543 196 l 593 672 q 573 872 609 812 q 439 932 538 932 q 293 872 341 932 q 230 672 245 812 l 194 333 q 215 137 179 196 q 350 78 251 78 m 258 1217 l 268 1308 l 687 1308 l 677 1217 l 258 1217 z "},"Ŏ":{"ha":788,"x_min":74,"x_max":729,"o":"m 340 -13 q 138 78 202 -13 q 92 341 74 168 l 126 664 q 228 932 145 841 q 449 1023 311 1023 q 650 932 587 1023 q 694 664 713 841 l 660 341 q 561 78 643 168 q 340 -13 479 -13 m 350 78 q 496 137 448 78 q 558 333 543 196 l 593 672 q 573 872 609 812 q 439 932 538 932 q 293 872 341 932 q 230 672 245 812 l 194 333 q 215 137 179 196 q 350 78 251 78 m 458 1128 q 289 1189 348 1128 q 241 1381 229 1250 l 345 1381 q 367 1252 336 1290 q 467 1213 398 1213 q 575 1252 537 1213 q 625 1381 614 1290 l 729 1381 q 641 1189 713 1250 q 458 1128 568 1128 z "},"Ő":{"ha":788,"x_min":74,"x_max":750,"o":"m 340 -13 q 138 78 202 -13 q 92 341 74 168 l 126 664 q 228 932 145 841 q 449 1023 311 1023 q 650 932 587 1023 q 694 664 713 841 l 660 341 q 561 78 643 168 q 340 -13 479 -13 m 350 78 q 496 137 448 78 q 558 333 543 196 l 593 672 q 573 872 609 812 q 439 932 538 932 q 293 872 341 932 q 230 672 245 812 l 194 333 q 215 137 179 196 q 350 78 251 78 m 519 1136 l 605 1389 l 750 1389 l 592 1136 l 519 1136 m 277 1136 l 362 1389 l 508 1389 l 350 1136 l 277 1136 z "},"P":{"ha":788,"x_min":80,"x_max":727,"o":"m 80 0 l 186 1010 l 481 1010 q 672 946 617 1010 q 713 745 727 883 l 702 636 q 617 432 687 497 q 412 367 548 367 l 220 367 l 181 0 l 80 0 m 229 456 l 419 456 q 549 497 506 456 q 601 631 591 538 l 612 746 q 589 878 622 837 q 468 919 556 919 l 278 919 l 229 456 z "},"Q":{"ha":788,"x_min":73,"x_max":713,"o":"m 635 -234 q 409 -229 500 -269 q 332 -27 318 -188 q 135 68 197 -24 q 91 330 73 159 l 126 664 q 229 931 145 838 q 449 1023 312 1023 q 650 931 586 1023 q 694 664 713 838 l 659 330 q 587 104 645 191 q 436 -11 529 16 q 488 -141 428 -121 q 628 -145 548 -162 l 635 -234 m 348 77 q 495 133 447 77 q 556 316 543 188 l 593 677 q 572 869 607 811 q 438 927 537 927 q 292 869 340 927 q 230 677 244 811 l 192 316 q 215 133 179 188 q 348 77 250 77 z "},"R":{"ha":788,"x_min":80,"x_max":750,"o":"m 232 491 l 447 491 q 575 535 533 491 q 628 672 617 578 l 636 751 q 612 879 645 838 q 492 919 578 919 l 278 919 l 232 491 m 181 0 l 80 0 l 186 1010 l 503 1010 q 692 945 634 1010 q 736 747 750 880 l 729 673 q 657 482 716 549 q 490 403 597 415 l 667 0 l 551 0 l 375 403 l 223 403 l 181 0 z "},"Ŕ":{"ha":788,"x_min":80,"x_max":750,"o":"m 232 491 l 447 491 q 575 535 533 491 q 628 672 617 578 l 636 751 q 612 879 645 838 q 492 919 578 919 l 278 919 l 232 491 m 181 0 l 80 0 l 186 1010 l 503 1010 q 692 945 634 1010 q 736 747 750 880 l 729 673 q 657 482 716 549 q 490 403 597 415 l 667 0 l 551 0 l 375 403 l 223 403 l 181 0 m 423 1136 l 593 1389 l 747 1389 l 516 1136 l 423 1136 z "},"Ŗ":{"ha":788,"x_min":80,"x_max":750,"o":"m 232 491 l 447 491 q 575 535 533 491 q 628 672 617 578 l 636 751 q 612 879 645 838 q 492 919 578 919 l 278 919 l 232 491 m 181 0 l 80 0 l 186 1010 l 503 1010 q 692 945 634 1010 q 736 747 750 880 l 729 673 q 657 482 716 549 q 490 403 597 415 l 667 0 l 551 0 l 375 403 l 223 403 l 181 0 m 145 -379 l 274 -126 l 428 -126 l 240 -379 l 145 -379 z "},"Ř":{"ha":788,"x_min":80,"x_max":750,"o":"m 232 491 l 447 491 q 575 535 533 491 q 628 672 617 578 l 636 751 q 612 879 645 838 q 492 919 578 919 l 278 919 l 232 491 m 181 0 l 80 0 l 186 1010 l 503 1010 q 692 945 634 1010 q 736 747 750 880 l 729 673 q 657 482 716 549 q 490 403 597 415 l 667 0 l 551 0 l 375 403 l 223 403 l 181 0 m 431 1141 l 255 1326 l 312 1389 l 479 1250 l 674 1389 l 715 1326 l 503 1141 l 431 1141 z "},"S":{"ha":788,"x_min":49,"x_max":715,"o":"m 354 -10 q 182 24 263 -10 q 49 126 102 58 l 112 203 q 227 112 160 141 q 374 82 294 82 q 515 130 458 82 q 580 263 571 178 q 548 376 587 335 q 378 472 509 418 q 176 594 229 532 q 134 761 124 657 q 229 948 148 884 q 429 1013 311 1013 q 590 978 513 1013 q 715 875 668 943 l 654 794 q 544 889 607 856 q 414 922 481 922 q 292 883 341 922 q 236 768 244 843 q 270 658 229 699 q 451 562 312 617 q 642 448 592 508 q 682 284 692 388 q 573 68 667 145 q 354 -10 480 -10 z "},"":{"ha":788,"x_min":49,"x_max":715,"o":"m 354 -10 q 182 24 263 -10 q 49 126 102 58 l 112 203 q 227 112 160 141 q 374 82 294 82 q 515 130 458 82 q 580 263 571 178 q 548 376 587 335 q 378 472 509 418 q 176 594 229 532 q 134 761 124 657 q 229 948 148 884 q 429 1013 311 1013 q 590 978 513 1013 q 715 875 668 943 l 654 794 q 544 889 607 856 q 414 922 481 922 q 292 883 341 922 q 236 768 244 843 q 270 658 229 699 q 451 562 312 617 q 642 448 592 508 q 682 284 692 388 q 573 68 667 145 q 354 -10 480 -10 z "},"Ś":{"ha":788,"x_min":49,"x_max":715,"o":"m 354 -10 q 182 24 263 -10 q 49 126 102 58 l 112 203 q 227 112 160 141 q 374 82 294 82 q 515 130 458 82 q 580 263 571 178 q 548 376 587 335 q 378 472 509 418 q 176 594 229 532 q 134 761 124 657 q 229 948 148 884 q 429 1013 311 1013 q 590 978 513 1013 q 715 875 668 943 l 654 794 q 544 889 607 856 q 414 922 481 922 q 292 883 341 922 q 236 768 244 843 q 270 658 229 699 q 451 562 312 617 q 642 448 592 508 q 682 284 692 388 q 573 68 667 145 q 354 -10 480 -10 m 342 1136 l 513 1389 l 667 1389 l 436 1136 l 342 1136 z "},"Ŝ":{"ha":788,"x_min":49,"x_max":715,"o":"m 354 -10 q 182 24 263 -10 q 49 126 102 58 l 112 203 q 227 112 160 141 q 374 82 294 82 q 515 130 458 82 q 580 263 571 178 q 548 376 587 335 q 378 472 509 418 q 176 594 229 532 q 134 761 124 657 q 229 948 148 884 q 429 1013 311 1013 q 590 978 513 1013 q 715 875 668 943 l 654 794 q 544 889 607 856 q 414 922 481 922 q 292 883 341 922 q 236 768 244 843 q 270 658 229 699 q 451 562 312 617 q 642 448 592 508 q 682 284 692 388 q 573 68 667 145 q 354 -10 480 -10 m 280 1159 l 240 1222 l 452 1407 l 524 1407 l 699 1222 l 643 1158 l 476 1299 l 280 1159 z "},"Ş":{"ha":788,"x_min":49,"x_max":715,"o":"m 354 -10 q 182 24 263 -10 q 49 126 102 58 l 112 203 q 227 112 160 141 q 374 82 294 82 q 515 130 458 82 q 580 263 571 178 q 548 376 587 335 q 378 472 509 418 q 176 594 229 532 q 134 761 124 657 q 229 948 148 884 q 429 1013 311 1013 q 590 978 513 1013 q 715 875 668 943 l 654 794 q 544 889 607 856 q 414 922 481 922 q 292 883 341 922 q 236 768 244 843 q 270 658 229 699 q 451 562 312 617 q 642 448 592 508 q 682 284 692 388 q 573 68 667 145 q 354 -10 480 -10 m 311 0 l 336 53 q 422 -1 390 40 q 447 -115 455 -43 q 388 -232 439 -194 q 280 -269 336 -269 q 173 -242 213 -269 q 135 -146 133 -215 l 226 -134 q 238 -167 225 -158 q 284 -177 251 -177 q 334 -160 316 -177 q 357 -101 352 -144 q 351 -32 361 -54 q 311 0 341 -10 z "},"Š":{"ha":788,"x_min":49,"x_max":715,"o":"m 354 -10 q 182 24 263 -10 q 49 126 102 58 l 112 203 q 227 112 160 141 q 374 82 294 82 q 515 130 458 82 q 580 263 571 178 q 548 376 587 335 q 378 472 509 418 q 176 594 229 532 q 134 761 124 657 q 229 948 148 884 q 429 1013 311 1013 q 590 978 513 1013 q 715 875 668 943 l 654 794 q 544 889 607 856 q 414 922 481 922 q 292 883 341 922 q 236 768 244 843 q 270 658 229 699 q 451 562 312 617 q 642 448 592 508 q 682 284 692 388 q 573 68 667 145 q 354 -10 480 -10 m 426 1141 l 250 1326 l 307 1389 l 473 1250 l 669 1389 l 710 1326 l 497 1141 l 426 1141 z "},"Ș":{"ha":788,"x_min":49,"x_max":715,"o":"m 354 -10 q 182 24 263 -10 q 49 126 102 58 l 112 203 q 227 112 160 141 q 374 82 294 82 q 515 130 458 82 q 580 263 571 178 q 548 376 587 335 q 378 472 509 418 q 176 594 229 532 q 134 761 124 657 q 229 948 148 884 q 429 1013 311 1013 q 590 978 513 1013 q 715 875 668 943 l 654 794 q 544 889 607 856 q 414 922 481 922 q 292 883 341 922 q 236 768 244 843 q 270 658 229 699 q 451 562 312 617 q 642 448 592 508 q 682 284 692 388 q 573 68 667 145 q 354 -10 480 -10 m 140 -379 l 269 -126 l 423 -126 l 235 -379 l 140 -379 z "},"T":{"ha":788,"x_min":128,"x_max":759,"o":"m 290 0 l 388 919 l 128 919 l 136 1010 l 759 1010 l 750 919 l 489 919 l 391 0 l 290 0 z "},"Ţ":{"ha":788,"x_min":117,"x_max":759,"o":"m 290 0 l 388 919 l 128 919 l 136 1010 l 759 1010 l 750 919 l 489 919 l 391 0 l 290 0 m 295 0 l 321 53 q 407 -1 375 40 q 432 -115 439 -43 q 372 -232 424 -194 q 265 -269 321 -269 q 158 -242 198 -269 q 120 -146 117 -215 l 211 -134 q 223 -167 210 -158 q 269 -177 236 -177 q 319 -160 301 -177 q 342 -101 337 -144 q 336 -32 346 -54 q 295 0 326 -10 z "},"Ť":{"ha":788,"x_min":128,"x_max":759,"o":"m 290 0 l 388 919 l 128 919 l 136 1010 l 759 1010 l 750 919 l 489 919 l 391 0 l 290 0 m 424 1141 l 249 1326 l 306 1389 l 472 1250 l 668 1389 l 708 1326 l 496 1141 l 424 1141 z "},"Ț":{"ha":788,"x_min":128,"x_max":759,"o":"m 290 0 l 388 919 l 128 919 l 136 1010 l 759 1010 l 750 919 l 489 919 l 391 0 l 290 0 m 138 -379 l 266 -126 l 420 -126 l 232 -379 l 138 -379 z "},"U":{"ha":788,"x_min":96,"x_max":708,"o":"m 340 -13 q 152 72 208 -13 q 114 330 96 157 l 186 1010 l 287 1010 l 215 323 q 231 132 201 188 q 348 76 261 76 q 479 132 437 76 q 535 323 521 188 l 607 1010 l 708 1010 l 636 330 q 545 72 619 157 q 340 -13 471 -13 z "},"Ù":{"ha":788,"x_min":96,"x_max":708,"o":"m 340 -13 q 152 72 208 -13 q 114 330 96 157 l 186 1010 l 287 1010 l 215 323 q 231 132 201 188 q 348 76 261 76 q 479 132 437 76 q 535 323 521 188 l 607 1010 l 708 1010 l 636 330 q 545 72 619 157 q 340 -13 471 -13 m 462 1136 l 284 1389 l 437 1389 l 556 1136 l 462 1136 z "},"Ú":{"ha":788,"x_min":96,"x_max":708,"o":"m 340 -13 q 152 72 208 -13 q 114 330 96 157 l 186 1010 l 287 1010 l 215 323 q 231 132 201 188 q 348 76 261 76 q 479 132 437 76 q 535 323 521 188 l 607 1010 l 708 1010 l 636 330 q 545 72 619 157 q 340 -13 471 -13 m 341 1136 l 511 1389 l 665 1389 l 434 1136 l 341 1136 z "},"Û":{"ha":788,"x_min":96,"x_max":708,"o":"m 340 -13 q 152 72 208 -13 q 114 330 96 157 l 186 1010 l 287 1010 l 215 323 q 231 132 201 188 q 348 76 261 76 q 479 132 437 76 q 535 323 521 188 l 607 1010 l 708 1010 l 636 330 q 545 72 619 157 q 340 -13 471 -13 m 279 1159 l 239 1222 l 451 1407 l 523 1407 l 698 1222 l 641 1158 l 475 1299 l 279 1159 z "},"Ü":{"ha":788,"x_min":96,"x_max":708,"o":"m 340 -13 q 152 72 208 -13 q 114 330 96 157 l 186 1010 l 287 1010 l 215 323 q 231 132 201 188 q 348 76 261 76 q 479 132 437 76 q 535 323 521 188 l 607 1010 l 708 1010 l 636 330 q 545 72 619 157 q 340 -13 471 -13 m 340 1157 q 292 1170 309 1157 q 280 1221 275 1183 l 280 1227 q 304 1280 284 1266 q 355 1294 324 1294 q 402 1280 386 1294 q 414 1227 418 1266 l 414 1221 q 390 1170 409 1183 q 340 1157 370 1157 m 582 1157 q 534 1170 551 1157 q 523 1221 518 1183 l 523 1227 q 546 1280 527 1266 q 597 1294 566 1294 q 643 1280 626 1294 q 657 1227 660 1266 l 657 1221 q 631 1170 652 1183 q 582 1157 611 1157 z "},"Ũ":{"ha":788,"x_min":96,"x_max":708,"o":"m 340 -13 q 152 72 208 -13 q 114 330 96 157 l 186 1010 l 287 1010 l 215 323 q 231 132 201 188 q 348 76 261 76 q 479 132 437 76 q 535 323 521 188 l 607 1010 l 708 1010 l 636 330 q 545 72 619 157 q 340 -13 471 -13 m 543 1149 q 480 1174 503 1149 q 443 1226 458 1198 q 417 1278 429 1254 q 384 1302 404 1302 q 344 1271 360 1302 q 323 1173 328 1241 l 322 1162 l 242 1162 l 244 1181 q 295 1333 254 1271 q 404 1394 337 1394 q 472 1369 448 1394 q 509 1318 495 1345 q 532 1266 521 1290 q 562 1242 543 1242 q 601 1272 585 1242 q 625 1370 617 1302 l 626 1383 l 705 1383 l 702 1364 q 652 1210 693 1270 q 543 1149 610 1149 z "},"Ū":{"ha":788,"x_min":96,"x_max":708,"o":"m 340 -13 q 152 72 208 -13 q 114 330 96 157 l 186 1010 l 287 1010 l 215 323 q 231 132 201 188 q 348 76 261 76 q 479 132 437 76 q 535 323 521 188 l 607 1010 l 708 1010 l 636 330 q 545 72 619 157 q 340 -13 471 -13 m 258 1217 l 268 1308 l 687 1308 l 677 1217 l 258 1217 z "},"Ŭ":{"ha":788,"x_min":96,"x_max":729,"o":"m 340 -13 q 152 72 208 -13 q 114 330 96 157 l 186 1010 l 287 1010 l 215 323 q 231 132 201 188 q 348 76 261 76 q 479 132 437 76 q 535 323 521 188 l 607 1010 l 708 1010 l 636 330 q 545 72 619 157 q 340 -13 471 -13 m 458 1128 q 289 1189 348 1128 q 241 1381 229 1250 l 345 1381 q 367 1252 336 1290 q 467 1213 398 1213 q 575 1252 537 1213 q 625 1381 614 1290 l 729 1381 q 641 1189 713 1250 q 458 1128 568 1128 z "},"Ů":{"ha":788,"x_min":96,"x_max":708,"o":"m 340 -13 q 152 72 208 -13 q 114 330 96 157 l 186 1010 l 287 1010 l 215 323 q 231 132 201 188 q 348 76 261 76 q 479 132 437 76 q 535 323 521 188 l 607 1010 l 708 1010 l 636 330 q 545 72 619 157 q 340 -13 471 -13 m 457 1121 q 342 1165 383 1121 q 309 1301 301 1210 l 314 1341 q 374 1479 323 1433 q 500 1524 426 1524 q 616 1479 576 1524 q 648 1341 657 1433 l 643 1301 q 583 1165 634 1210 q 457 1121 532 1121 m 466 1203 q 533 1225 509 1203 q 563 1301 558 1247 l 568 1341 q 554 1417 573 1393 q 491 1442 534 1442 q 424 1417 448 1442 q 394 1341 399 1393 l 389 1301 q 403 1225 384 1247 q 466 1203 423 1203 z "},"Ű":{"ha":788,"x_min":96,"x_max":760,"o":"m 340 -13 q 152 72 208 -13 q 114 330 96 157 l 186 1010 l 287 1010 l 215 323 q 231 132 201 188 q 348 76 261 76 q 479 132 437 76 q 535 323 521 188 l 607 1010 l 708 1010 l 636 330 q 545 72 619 157 q 340 -13 471 -13 m 529 1136 l 615 1389 l 760 1389 l 602 1136 l 529 1136 m 287 1136 l 372 1389 l 518 1389 l 360 1136 l 287 1136 z "},"Ų":{"ha":788,"x_min":96,"x_max":708,"o":"m 385 -269 q 278 -229 319 -269 q 244 -121 236 -189 q 295 -20 250 -66 q 389 48 340 25 l 414 29 q 357 -33 374 1 q 338 -91 341 -67 q 353 -146 335 -126 q 407 -165 371 -165 q 455 -161 426 -165 q 501 -153 485 -157 l 491 -256 q 439 -265 470 -261 q 385 -269 409 -269 m 340 -13 q 152 72 208 -13 q 114 330 96 157 l 186 1010 l 287 1010 l 215 323 q 231 132 201 188 q 348 76 261 76 q 479 132 437 76 q 535 323 521 188 l 607 1010 l 708 1010 l 636 330 q 545 72 619 157 q 340 -13 471 -13 z "},"V":{"ha":788,"x_min":121,"x_max":773,"o":"m 394 0 l 289 0 l 121 1010 l 231 1010 l 361 164 l 667 1010 l 773 1010 l 394 0 z "},"W":{"ha":788,"x_min":105,"x_max":789,"o":"m 467 0 l 405 630 l 215 0 l 112 0 l 105 1010 l 206 1010 l 194 173 l 369 758 l 477 758 l 528 170 l 694 1010 l 789 1010 l 569 0 l 467 0 z "},"Ŵ":{"ha":788,"x_min":105,"x_max":789,"o":"m 467 0 l 405 630 l 215 0 l 112 0 l 105 1010 l 206 1010 l 194 173 l 369 758 l 477 758 l 528 170 l 694 1010 l 789 1010 l 569 0 l 467 0 m 279 1159 l 239 1222 l 451 1407 l 523 1407 l 698 1222 l 641 1158 l 475 1299 l 279 1159 z "},"Ẁ":{"ha":788,"x_min":105,"x_max":789,"o":"m 467 0 l 405 630 l 215 0 l 112 0 l 105 1010 l 206 1010 l 194 173 l 369 758 l 477 758 l 528 170 l 694 1010 l 789 1010 l 569 0 l 467 0 m 472 1136 l 294 1389 l 447 1389 l 566 1136 l 472 1136 z "},"Ẃ":{"ha":788,"x_min":105,"x_max":789,"o":"m 467 0 l 405 630 l 215 0 l 112 0 l 105 1010 l 206 1010 l 194 173 l 369 758 l 477 758 l 528 170 l 694 1010 l 789 1010 l 569 0 l 467 0 m 351 1136 l 521 1389 l 676 1389 l 444 1136 l 351 1136 z "},"Ẅ":{"ha":788,"x_min":105,"x_max":789,"o":"m 467 0 l 405 630 l 215 0 l 112 0 l 105 1010 l 206 1010 l 194 173 l 369 758 l 477 758 l 528 170 l 694 1010 l 789 1010 l 569 0 l 467 0 m 340 1157 q 292 1170 309 1157 q 280 1221 275 1183 l 280 1227 q 304 1280 284 1266 q 355 1294 324 1294 q 402 1280 386 1294 q 414 1227 418 1266 l 414 1221 q 390 1170 409 1183 q 340 1157 370 1157 m 582 1157 q 534 1170 551 1157 q 523 1221 518 1183 l 523 1227 q 546 1280 527 1266 q 597 1294 566 1294 q 643 1280 626 1294 q 657 1227 660 1266 l 657 1221 q 631 1170 652 1183 q 582 1157 611 1157 z "},"X":{"ha":788,"x_min":-6,"x_max":798,"o":"m 571 0 l 388 427 l 112 0 l -6 0 l 343 515 l 125 1010 l 242 1010 l 417 602 l 679 1010 l 798 1010 l 461 515 l 688 0 l 571 0 z "},"Y":{"ha":788,"x_min":93,"x_max":801,"o":"m 391 0 l 290 0 l 331 379 l 93 1010 l 207 1010 l 399 482 l 688 1010 l 801 1010 l 432 379 l 391 0 z "},"Ý":{"ha":788,"x_min":93,"x_max":801,"o":"m 391 0 l 290 0 l 331 379 l 93 1010 l 207 1010 l 399 482 l 688 1010 l 801 1010 l 432 379 l 391 0 m 341 1136 l 511 1389 l 665 1389 l 434 1136 l 341 1136 z "},"Ŷ":{"ha":788,"x_min":93,"x_max":801,"o":"m 391 0 l 290 0 l 331 379 l 93 1010 l 207 1010 l 399 482 l 688 1010 l 801 1010 l 432 379 l 391 0 m 279 1159 l 239 1222 l 451 1407 l 523 1407 l 698 1222 l 641 1158 l 475 1299 l 279 1159 z "},"Ÿ":{"ha":788,"x_min":93,"x_max":801,"o":"m 391 0 l 290 0 l 331 379 l 93 1010 l 207 1010 l 399 482 l 688 1010 l 801 1010 l 432 379 l 391 0 m 340 1157 q 292 1170 309 1157 q 280 1221 275 1183 l 280 1227 q 304 1280 284 1266 q 355 1294 324 1294 q 402 1280 386 1294 q 414 1227 418 1266 l 414 1221 q 390 1170 409 1183 q 340 1157 370 1157 m 582 1157 q 534 1170 551 1157 q 523 1221 518 1183 l 523 1227 q 546 1280 527 1266 q 597 1294 566 1294 q 643 1280 626 1294 q 657 1227 660 1266 l 657 1221 q 631 1170 652 1183 q 582 1157 611 1157 z "},"Ỳ":{"ha":788,"x_min":93,"x_max":801,"o":"m 391 0 l 290 0 l 331 379 l 93 1010 l 207 1010 l 399 482 l 688 1010 l 801 1010 l 432 379 l 391 0 m 462 1136 l 284 1389 l 437 1389 l 556 1136 l 462 1136 z "},"Z":{"ha":788,"x_min":57,"x_max":731,"o":"m 625 0 l 57 0 l 67 91 l 605 919 l 154 919 l 163 1010 l 731 1010 l 722 919 l 186 91 l 635 91 l 625 0 z "},"Ź":{"ha":788,"x_min":57,"x_max":731,"o":"m 625 0 l 57 0 l 67 91 l 605 919 l 154 919 l 163 1010 l 731 1010 l 722 919 l 186 91 l 635 91 l 625 0 m 372 1136 l 543 1389 l 697 1389 l 466 1136 l 372 1136 z "},"Ż":{"ha":788,"x_min":57,"x_max":731,"o":"m 625 0 l 57 0 l 67 91 l 605 919 l 154 919 l 163 1010 l 731 1010 l 722 919 l 186 91 l 635 91 l 625 0 m 461 1157 q 398 1170 422 1157 q 380 1221 375 1183 l 380 1227 q 410 1280 384 1266 q 476 1294 437 1294 q 538 1280 515 1294 q 557 1227 561 1266 l 557 1221 q 526 1170 552 1183 q 461 1157 500 1157 z "},"Ž":{"ha":788,"x_min":57,"x_max":731,"o":"m 625 0 l 57 0 l 67 91 l 605 919 l 154 919 l 163 1010 l 731 1010 l 722 919 l 186 91 l 635 91 l 625 0 m 424 1141 l 249 1326 l 306 1389 l 472 1250 l 668 1389 l 708 1326 l 496 1141 l 424 1141 z "},"Æ":{"ha":788,"x_min":-28,"x_max":806,"o":"m 381 932 l 194 388 l 393 388 l 451 932 l 381 932 m 385 308 l 167 308 l 61 0 l -28 0 l 336 1010 l 806 1010 l 798 932 l 542 932 l 504 582 l 750 582 l 742 504 l 496 504 l 452 78 l 708 78 l 699 0 l 352 0 l 385 308 z "},"Ǽ":{"ha":788,"x_min":-28,"x_max":806,"o":"m 381 932 l 194 388 l 393 388 l 451 932 l 381 932 m 385 308 l 167 308 l 61 0 l -28 0 l 336 1010 l 806 1010 l 798 932 l 542 932 l 504 582 l 750 582 l 742 504 l 496 504 l 452 78 l 708 78 l 699 0 l 352 0 l 385 308 m 479 1136 l 649 1389 l 803 1389 l 572 1136 l 479 1136 z "},"Ð":{"ha":788,"x_min":28,"x_max":711,"o":"m 80 0 l 133 504 l 28 504 l 39 607 l 144 607 l 186 1010 l 414 1010 q 636 915 561 1010 q 694 663 711 821 l 660 342 q 550 93 645 187 q 308 0 455 0 l 80 0 m 191 91 l 319 91 q 485 158 424 91 q 558 336 547 225 l 593 669 q 558 850 605 782 q 407 919 511 919 l 278 919 l 245 607 l 405 607 l 394 504 l 234 504 l 191 91 z "},"Ø":{"ha":788,"x_min":53,"x_max":712,"o":"m 197 159 l 520 918 q 484 928 505 924 q 439 932 463 932 q 293 874 341 932 q 231 679 245 816 l 193 326 q 189 232 188 273 q 197 159 191 191 m 350 78 q 496 135 448 78 q 557 326 543 192 l 595 687 q 600 801 602 753 q 583 883 597 850 l 250 101 q 294 84 269 90 q 350 78 319 78 m 340 -13 q 275 -7 304 -13 q 220 10 245 -1 l 157 -126 l 53 -126 l 143 71 q 95 180 109 114 q 92 333 82 246 l 128 672 q 229 932 145 842 q 449 1023 312 1023 q 503 1019 477 1023 q 551 1006 528 1015 l 609 1136 l 712 1136 l 631 956 q 689 841 673 913 q 696 672 706 769 l 660 333 q 559 76 643 165 q 340 -13 476 -13 z "},"Ǿ":{"ha":788,"x_min":53,"x_max":712,"o":"m 197 159 l 520 918 q 484 928 505 924 q 439 932 463 932 q 293 874 341 932 q 231 679 245 816 l 193 326 q 189 232 188 273 q 197 159 191 191 m 350 78 q 496 135 448 78 q 557 326 543 192 l 595 687 q 600 801 602 753 q 583 883 597 850 l 250 101 q 294 84 269 90 q 350 78 319 78 m 340 -13 q 275 -7 304 -13 q 220 10 245 -1 l 157 -126 l 53 -126 l 143 71 q 95 180 109 114 q 92 333 82 246 l 128 672 q 229 932 145 842 q 449 1023 312 1023 q 503 1019 477 1023 q 551 1006 528 1015 l 609 1136 l 712 1136 l 631 956 q 689 841 673 913 q 696 672 706 769 l 660 333 q 559 76 643 165 q 340 -13 476 -13 m 384 1136 l 554 1389 l 708 1389 l 477 1136 l 384 1136 z "},"Þ":{"ha":788,"x_min":80,"x_max":710,"o":"m 80 0 l 186 1010 l 287 1010 l 269 842 l 463 842 q 650 774 591 842 q 696 577 710 706 l 686 480 q 597 271 670 342 q 394 199 523 199 l 202 199 l 181 0 l 80 0 m 211 289 l 404 289 q 532 331 491 289 q 583 471 573 372 l 596 583 q 572 712 605 674 q 452 750 539 750 l 259 750 l 211 289 z "},"Đ":{"ha":788,"x_min":28,"x_max":711,"o":"m 80 0 l 133 504 l 28 504 l 39 607 l 144 607 l 186 1010 l 414 1010 q 636 915 561 1010 q 694 663 711 821 l 660 342 q 550 93 645 187 q 308 0 455 0 l 80 0 m 191 91 l 319 91 q 485 158 424 91 q 558 336 547 225 l 593 669 q 558 850 605 782 q 407 919 511 919 l 278 919 l 245 607 l 405 607 l 394 504 l 234 504 l 191 91 z "},"Ħ":{"ha":788,"x_min":45,"x_max":797,"o":"m 239 547 l 559 547 l 576 711 l 255 711 l 239 547 m 229 455 l 181 0 l 78 0 l 153 711 l 45 711 l 57 813 l 164 813 l 184 1010 l 287 1010 l 266 813 l 587 813 l 607 1010 l 710 1010 l 689 813 l 797 813 l 785 711 l 678 711 l 604 0 l 501 0 l 549 455 l 229 455 z "},"Ĳ":{"ha":788,"x_min":37,"x_max":754,"o":"m 139 0 l 37 0 l 143 1010 l 245 1010 l 139 0 m 433 -13 q 291 62 335 -13 q 260 321 247 136 l 364 335 q 372 137 357 188 q 444 86 388 86 q 534 146 503 86 q 577 309 566 207 l 640 914 l 437 914 l 447 1010 l 754 1010 l 681 314 q 604 74 664 162 q 433 -13 543 -13 z "},"Ŀ":{"ha":788,"x_min":133,"x_max":789,"o":"m 133 0 l 239 1010 l 338 1010 l 242 91 l 612 91 l 602 0 l 133 0 m 689 529 q 627 542 650 529 q 609 593 604 556 l 609 600 q 639 653 612 639 q 705 667 665 667 q 766 653 744 667 q 785 600 789 639 l 785 593 q 754 542 780 556 q 689 529 729 529 z "},"Ł":{"ha":788,"x_min":71,"x_max":612,"o":"m 133 0 l 182 466 l 71 428 l 80 514 l 191 552 l 239 1010 l 338 1010 l 294 588 l 569 683 l 561 597 l 285 503 l 242 91 l 612 91 l 602 0 l 133 0 z "},"Ŋ":{"ha":788,"x_min":80,"x_max":696,"o":"m 331 -263 q 253 -251 293 -263 q 169 -218 213 -239 l 202 -107 q 275 -141 242 -130 q 340 -153 308 -153 q 449 -104 404 -153 q 508 61 495 -54 l 581 759 q 560 883 590 842 q 472 923 530 923 q 366 886 414 923 q 263 785 317 850 l 181 0 l 80 0 l 186 1010 l 287 1010 l 274 889 l 306 889 q 391 986 335 949 q 514 1023 448 1023 q 650 955 605 1023 q 684 778 696 888 l 607 45 q 516 -183 591 -104 q 331 -263 442 -263 z "},"Œ":{"ha":788,"x_min":1,"x_max":817,"o":"m 256 0 q 64 91 128 0 q 18 333 1 182 l 53 668 q 152 917 69 823 q 361 1010 234 1010 l 817 1010 l 809 932 l 542 932 l 506 598 l 777 598 l 768 519 l 497 519 l 452 78 l 720 78 l 711 0 l 256 0 m 264 76 l 360 76 l 451 934 l 355 934 q 210 863 264 934 q 144 673 157 792 l 107 330 q 134 144 96 212 q 264 76 173 76 z "},"Ŧ":{"ha":788,"x_min":119,"x_max":759,"o":"m 290 0 l 332 399 l 119 399 l 130 501 l 343 501 l 388 919 l 128 919 l 136 1010 l 759 1010 l 750 919 l 489 919 l 444 501 l 658 501 l 646 399 l 433 399 l 391 0 l 290 0 z "},"Α":{"ha":788,"x_min":15,"x_max":667,"o":"m 501 400 l 432 879 l 261 400 l 501 400 m 559 0 l 515 308 l 230 308 l 120 0 l 15 0 l 395 1010 l 500 1010 l 667 0 l 559 0 z "},"Ά":{"ha":788,"x_min":15,"x_max":667,"o":"m 501 400 l 432 879 l 261 400 l 501 400 m 559 0 l 515 308 l 230 308 l 120 0 l 15 0 l 395 1010 l 500 1010 l 667 0 l 559 0 m 96 884 l 203 1136 l 347 1136 l 179 884 l 96 884 z "},"Β":{"ha":788,"x_min":80,"x_max":688,"o":"m 80 0 l 186 1010 l 444 1010 q 631 951 574 1010 q 676 773 688 893 l 669 712 q 625 609 663 653 q 529 553 587 564 l 525 516 q 633 453 596 509 q 662 309 670 396 l 655 255 q 566 63 643 126 q 346 0 489 0 l 80 0 m 241 573 l 410 573 q 525 610 487 573 q 572 730 563 646 l 574 758 q 553 878 583 841 q 446 914 523 914 l 277 914 l 241 573 m 191 96 l 381 96 q 505 137 463 96 q 556 269 547 178 l 559 303 q 537 436 569 395 q 422 477 504 477 l 231 477 l 191 96 z "},"Γ":{"ha":788,"x_min":77,"x_max":730,"o":"m 77 0 l 183 1010 l 730 1010 l 721 919 l 275 919 l 178 0 l 77 0 z "},"Δ":{"ha":788,"x_min":14,"x_max":678,"o":"m 14 0 l 24 91 l 390 1010 l 492 1010 l 678 91 l 668 0 l 14 0 m 580 91 l 432 881 l 119 91 l 580 91 z "},"Ε":{"ha":788,"x_min":80,"x_max":731,"o":"m 80 0 l 186 1010 l 731 1010 l 722 919 l 278 919 l 244 598 l 635 598 l 625 506 l 234 506 l 191 91 l 635 91 l 625 0 l 80 0 z "},"Έ":{"ha":788,"x_min":-51,"x_max":731,"o":"m 80 0 l 186 1010 l 731 1010 l 722 919 l 278 919 l 244 598 l 635 598 l 625 506 l 234 506 l 191 91 l 635 91 l 625 0 l 80 0 m -51 884 l 57 1136 l 201 1136 l 33 884 l -51 884 z "},"Ζ":{"ha":788,"x_min":57,"x_max":731,"o":"m 625 0 l 57 0 l 67 91 l 605 919 l 154 919 l 163 1010 l 731 1010 l 722 919 l 186 91 l 635 91 l 625 0 z "},"Η":{"ha":788,"x_min":80,"x_max":708,"o":"m 80 0 l 186 1010 l 287 1010 l 242 592 l 563 592 l 607 1010 l 708 1010 l 602 0 l 501 0 l 554 500 l 234 500 l 181 0 l 80 0 z "},"Ή":{"ha":788,"x_min":-61,"x_max":708,"o":"m 80 0 l 186 1010 l 287 1010 l 242 592 l 563 592 l 607 1010 l 708 1010 l 602 0 l 501 0 l 554 500 l 234 500 l 181 0 l 80 0 m -61 884 l 47 1136 l 191 1136 l 23 884 l -61 884 z "},"Θ":{"ha":788,"x_min":61,"x_max":727,"o":"m 340 -13 q 127 76 193 -13 q 78 333 61 164 l 114 672 q 217 934 131 845 q 449 1023 303 1023 q 661 934 595 1023 q 710 672 727 845 l 674 333 q 571 76 657 164 q 340 -13 486 -13 m 350 78 q 507 136 456 78 q 572 326 558 193 l 610 679 q 585 874 624 816 q 439 932 545 932 q 281 874 332 932 q 216 679 230 816 l 178 326 q 203 136 164 193 q 350 78 242 78 m 289 462 l 301 561 l 506 561 l 495 462 l 289 462 z "},"Ι":{"ha":788,"x_min":80,"x_max":708,"o":"m 80 0 l 90 91 l 301 91 l 388 919 l 177 919 l 186 1010 l 708 1010 l 699 919 l 489 919 l 402 91 l 612 91 l 602 0 l 80 0 z "},"Ί":{"ha":788,"x_min":-61,"x_max":708,"o":"m 80 0 l 90 91 l 301 91 l 388 919 l 177 919 l 186 1010 l 708 1010 l 699 919 l 489 919 l 402 91 l 612 91 l 602 0 l 80 0 m -61 884 l 47 1136 l 191 1136 l 23 884 l -61 884 z "},"Ϊ":{"ha":788,"x_min":80,"x_max":708,"o":"m 80 0 l 90 91 l 301 91 l 388 919 l 177 919 l 186 1010 l 708 1010 l 699 919 l 489 919 l 402 91 l 612 91 l 602 0 l 80 0 m 340 1157 q 292 1170 309 1157 q 280 1221 275 1183 l 280 1227 q 304 1280 284 1266 q 355 1294 324 1294 q 402 1280 386 1294 q 414 1227 418 1266 l 414 1221 q 390 1170 409 1183 q 340 1157 370 1157 m 582 1157 q 534 1170 551 1157 q 523 1221 518 1183 l 523 1227 q 546 1280 527 1266 q 597 1294 566 1294 q 643 1280 626 1294 q 657 1227 660 1266 l 657 1221 q 631 1170 652 1183 q 582 1157 611 1157 z "},"Κ":{"ha":788,"x_min":80,"x_max":771,"o":"m 232 496 l 181 0 l 80 0 l 186 1010 l 287 1010 l 242 588 l 278 588 l 653 1010 l 771 1010 l 350 547 l 663 0 l 539 0 l 271 496 l 232 496 z "},"Λ":{"ha":788,"x_min":15,"x_max":667,"o":"m 559 0 l 432 879 l 120 0 l 15 0 l 395 1010 l 500 1010 l 667 0 l 559 0 z "},"Μ":{"ha":788,"x_min":42,"x_max":746,"o":"m 316 235 l 223 856 l 133 0 l 42 0 l 148 1010 l 287 1010 l 384 374 l 612 1010 l 746 1010 l 640 0 l 549 0 l 638 848 l 417 235 l 316 235 z "},"Ν":{"ha":788,"x_min":80,"x_max":708,"o":"m 455 0 l 265 900 l 170 0 l 80 0 l 186 1010 l 326 1010 l 523 111 l 617 1010 l 708 1010 l 602 0 l 455 0 z "},"Ξ":{"ha":788,"x_min":57,"x_max":731,"o":"m 154 919 l 163 1010 l 731 1010 l 722 919 l 154 919 m 138 506 l 148 598 l 662 598 l 652 506 l 138 506 m 57 0 l 67 91 l 635 91 l 625 0 l 57 0 z "},"Ο":{"ha":788,"x_min":74,"x_max":713,"o":"m 340 -13 q 138 78 202 -13 q 92 341 74 168 l 126 664 q 228 932 145 841 q 449 1023 311 1023 q 650 932 587 1023 q 694 664 713 841 l 660 341 q 561 78 643 168 q 340 -13 479 -13 m 350 78 q 496 137 448 78 q 558 333 543 196 l 593 672 q 573 872 609 812 q 439 932 538 932 q 293 872 341 932 q 230 672 245 812 l 194 333 q 215 137 179 196 q 350 78 251 78 z "},"Ό":{"ha":788,"x_min":28,"x_max":718,"o":"m 345 -13 q 143 78 207 -13 q 97 341 80 168 l 131 664 q 233 932 150 841 q 455 1023 316 1023 q 655 932 592 1023 q 699 664 718 841 l 665 341 q 566 78 648 168 q 345 -13 484 -13 m 355 78 q 501 137 453 78 q 563 333 548 196 l 598 672 q 578 872 614 812 q 444 932 543 932 q 298 872 346 932 q 235 672 250 812 l 199 333 q 220 137 184 196 q 355 78 256 78 m 28 884 l 135 1136 l 279 1136 l 111 884 l 28 884 z "},"Π":{"ha":788,"x_min":80,"x_max":708,"o":"m 80 0 l 186 1010 l 708 1010 l 602 0 l 501 0 l 598 919 l 278 919 l 181 0 l 80 0 z "},"Ρ":{"ha":788,"x_min":80,"x_max":727,"o":"m 80 0 l 186 1010 l 481 1010 q 672 946 617 1010 q 713 745 727 883 l 702 636 q 617 432 687 497 q 412 367 548 367 l 220 367 l 181 0 l 80 0 m 229 456 l 419 456 q 549 497 506 456 q 601 631 591 538 l 612 746 q 589 878 622 837 q 468 919 556 919 l 278 919 l 229 456 z "},"Σ":{"ha":788,"x_min":47,"x_max":732,"o":"m 626 0 l 47 0 l 57 91 l 476 520 l 144 919 l 153 1010 l 732 1010 l 723 919 l 279 919 l 558 567 l 549 484 l 179 91 l 636 91 l 626 0 z "},"Τ":{"ha":788,"x_min":128,"x_max":759,"o":"m 290 0 l 388 919 l 128 919 l 136 1010 l 759 1010 l 750 919 l 489 919 l 391 0 l 290 0 z "},"Υ":{"ha":788,"x_min":93,"x_max":801,"o":"m 391 0 l 290 0 l 331 379 l 93 1010 l 207 1010 l 399 482 l 688 1010 l 801 1010 l 432 379 l 391 0 z "},"Ύ":{"ha":788,"x_min":-93,"x_max":801,"o":"m 391 0 l 290 0 l 331 379 l 93 1010 l 207 1010 l 399 482 l 688 1010 l 801 1010 l 432 379 l 391 0 m -93 884 l 14 1136 l 158 1136 l -10 884 l -93 884 z "},"Ϋ":{"ha":788,"x_min":93,"x_max":801,"o":"m 391 0 l 290 0 l 331 379 l 93 1010 l 207 1010 l 399 482 l 688 1010 l 801 1010 l 432 379 l 391 0 m 340 1157 q 292 1170 309 1157 q 280 1221 275 1183 l 280 1227 q 304 1280 284 1266 q 355 1294 324 1294 q 402 1280 386 1294 q 414 1227 418 1266 l 414 1221 q 390 1170 409 1183 q 340 1157 370 1157 m 582 1157 q 534 1170 551 1157 q 523 1221 518 1183 l 523 1227 q 546 1280 527 1266 q 597 1294 566 1294 q 643 1280 626 1294 q 657 1227 660 1266 l 657 1221 q 631 1170 652 1183 q 582 1157 611 1157 z "},"Φ":{"ha":788,"x_min":57,"x_max":731,"o":"m 437 114 l 404 114 l 391 -13 l 288 -13 l 301 114 l 270 114 q 105 198 153 114 q 72 437 57 283 l 86 568 q 169 811 102 726 q 354 896 236 896 l 384 896 l 396 1023 l 500 1023 l 487 896 l 520 896 q 684 811 638 896 q 715 568 731 726 l 701 437 q 620 198 686 283 q 437 114 554 114 m 509 801 l 472 801 l 409 210 l 446 210 q 550 263 514 210 q 598 437 586 316 l 612 568 q 602 747 626 693 q 509 801 577 801 m 280 210 l 317 210 l 380 801 l 343 801 q 239 747 275 801 q 188 568 202 693 l 174 437 q 187 263 162 316 q 280 210 212 210 z "},"Χ":{"ha":788,"x_min":-6,"x_max":798,"o":"m 571 0 l 388 427 l 112 0 l -6 0 l 343 515 l 125 1010 l 242 1010 l 417 602 l 679 1010 l 798 1010 l 461 515 l 688 0 l 571 0 z "},"Ψ":{"ha":788,"x_min":102,"x_max":730,"o":"m 393 0 l 289 0 l 314 246 q 152 341 202 260 q 116 557 102 422 l 164 1010 l 261 1010 l 213 549 q 228 398 202 448 q 324 338 254 348 l 395 1010 l 499 1010 l 428 338 q 537 398 501 347 q 585 549 573 448 l 633 1010 l 730 1010 l 682 557 q 602 341 668 422 q 418 246 537 260 l 393 0 z "},"Ω":{"ha":788,"x_min":47,"x_max":723,"o":"m 287 0 l 47 0 l 58 102 l 196 102 l 208 226 q 114 323 140 254 q 100 499 88 393 l 117 672 q 220 934 135 845 q 448 1023 304 1023 q 658 934 593 1023 q 706 672 723 845 l 688 499 q 636 323 677 393 q 521 226 595 254 l 509 102 l 646 102 l 635 0 l 395 0 l 426 290 q 540 354 505 306 q 586 499 576 403 l 604 670 q 582 873 619 813 q 439 933 545 933 q 284 873 333 933 q 220 670 235 813 l 202 499 q 216 354 192 403 q 317 290 240 306 l 287 0 z "},"Ώ":{"ha":788,"x_min":1,"x_max":723,"o":"m 287 0 l 47 0 l 58 102 l 196 102 l 208 226 q 114 323 140 254 q 100 499 88 393 l 117 672 q 220 934 135 845 q 448 1023 304 1023 q 658 934 593 1023 q 706 672 723 845 l 688 499 q 636 323 677 393 q 521 226 595 254 l 509 102 l 646 102 l 635 0 l 395 0 l 426 290 q 540 354 505 306 q 586 499 576 403 l 604 670 q 582 873 619 813 q 439 933 545 933 q 284 873 333 933 q 220 670 235 813 l 202 499 q 216 354 192 403 q 317 290 240 306 l 287 0 m 1 884 l 109 1136 l 253 1136 l 85 884 l 1 884 z "},"Ω":{"ha":788,"x_min":47,"x_max":723,"o":"m 287 0 l 47 0 l 58 102 l 196 102 l 208 226 q 114 323 140 254 q 100 499 88 393 l 117 672 q 220 934 135 845 q 448 1023 304 1023 q 658 934 593 1023 q 706 672 723 845 l 688 499 q 636 323 677 393 q 521 226 595 254 l 509 102 l 646 102 l 635 0 l 395 0 l 426 290 q 540 354 505 306 q 586 499 576 403 l 604 670 q 582 873 619 813 q 439 933 545 933 q 284 873 333 933 q 220 670 235 813 l 202 499 q 216 354 192 403 q 317 290 240 306 l 287 0 z "},"Ђ":{"ha":788,"x_min":101,"x_max":701,"o":"m 165 0 l 263 919 l 101 919 l 110 1010 l 639 1010 l 630 919 l 362 919 l 335 657 l 475 657 q 648 592 595 657 q 687 402 701 528 l 672 256 q 592 64 659 129 q 405 0 525 0 l 414 88 q 523 128 484 88 q 572 259 562 167 l 586 399 q 565 529 596 490 q 465 568 534 568 l 324 568 l 265 0 l 165 0 z "},"Є":{"ha":788,"x_min":74,"x_max":727,"o":"m 678 317 q 571 71 654 154 q 351 -13 489 -13 q 140 75 205 -13 q 92 336 74 163 l 128 669 q 229 933 145 843 q 460 1023 313 1023 q 662 938 597 1023 q 717 688 727 854 l 616 676 q 584 872 621 813 q 452 932 547 932 q 295 873 346 932 q 230 678 245 814 l 222 598 l 465 598 l 455 506 l 212 506 l 193 327 q 218 136 179 193 q 362 78 256 78 q 507 136 457 78 q 580 330 557 194 l 678 317 z "},"Ѕ":{"ha":788,"x_min":49,"x_max":715,"o":"m 354 -10 q 182 24 263 -10 q 49 126 102 58 l 112 203 q 227 112 160 141 q 374 82 294 82 q 515 130 458 82 q 580 263 571 178 q 548 376 587 335 q 378 472 509 418 q 176 594 229 532 q 134 761 124 657 q 229 948 148 884 q 429 1013 311 1013 q 590 978 513 1013 q 715 875 668 943 l 654 794 q 544 889 607 856 q 414 922 481 922 q 292 883 341 922 q 236 768 244 843 q 270 658 229 699 q 451 562 312 617 q 642 448 592 508 q 682 284 692 388 q 573 68 667 145 q 354 -10 480 -10 z "},"І":{"ha":788,"x_min":80,"x_max":708,"o":"m 80 0 l 90 91 l 301 91 l 388 919 l 177 919 l 186 1010 l 708 1010 l 699 919 l 489 919 l 402 91 l 612 91 l 602 0 l 80 0 z "},"Ї":{"ha":788,"x_min":80,"x_max":708,"o":"m 80 0 l 90 91 l 301 91 l 388 919 l 177 919 l 186 1010 l 708 1010 l 699 919 l 489 919 l 402 91 l 612 91 l 602 0 l 80 0 m 340 1157 q 292 1170 309 1157 q 280 1221 275 1183 l 280 1227 q 304 1280 284 1266 q 355 1294 324 1294 q 402 1280 386 1294 q 414 1227 418 1266 l 414 1221 q 390 1170 409 1183 q 340 1157 370 1157 m 582 1157 q 534 1170 551 1157 q 523 1221 518 1183 l 523 1227 q 546 1280 527 1266 q 597 1294 566 1294 q 643 1280 626 1294 q 657 1227 660 1266 l 657 1221 q 631 1170 652 1183 q 582 1157 611 1157 z "},"Ј":{"ha":788,"x_min":58,"x_max":710,"o":"m 319 -13 q 118 64 178 -13 q 69 313 58 141 l 172 327 q 197 129 165 181 q 331 78 229 78 q 472 136 422 78 q 535 307 523 193 l 600 919 l 390 919 l 399 1010 l 710 1010 l 636 309 q 537 69 620 152 q 319 -13 455 -13 z "},"Љ":{"ha":788,"x_min":-48,"x_max":699,"o":"m 178 218 q 121 47 164 102 q 16 -9 78 -9 q -16 -5 0 -9 q -48 5 -32 -1 l -16 102 q 2 94 -8 97 q 19 90 11 91 q 59 114 43 87 q 83 210 76 141 l 181 1010 l 494 1010 l 455 643 l 511 643 q 656 573 612 643 q 684 364 699 504 l 676 274 q 603 68 660 136 q 446 0 545 0 l 293 0 l 389 910 l 261 910 l 178 218 m 398 100 l 455 100 q 538 140 506 100 q 580 273 569 179 l 590 370 q 576 505 600 465 q 501 545 553 545 l 444 545 l 398 100 z "},"Њ":{"ha":788,"x_min":37,"x_max":699,"o":"m 398 100 l 456 100 q 539 140 508 100 q 580 273 569 179 l 590 370 q 577 505 600 465 q 503 545 554 545 l 444 545 l 398 100 m 184 500 l 131 0 l 37 0 l 143 1010 l 237 1010 l 193 592 l 355 592 l 399 1010 l 494 1010 l 455 643 l 513 643 q 656 573 612 643 q 684 364 699 504 l 676 274 q 604 68 660 136 q 447 0 547 0 l 293 0 l 346 500 l 184 500 z "},"Ћ":{"ha":788,"x_min":90,"x_max":696,"o":"m 254 0 l 154 0 l 251 919 l 90 919 l 98 1010 l 629 1010 l 620 919 l 351 919 l 318 615 l 467 615 q 642 549 588 615 q 682 350 696 482 l 645 0 l 544 0 l 581 351 q 563 484 591 442 q 461 525 534 525 l 309 525 l 254 0 z "},"Џ":{"ha":788,"x_min":80,"x_max":708,"o":"m 270 -189 l 290 0 l 80 0 l 186 1010 l 287 1010 l 191 91 l 511 91 l 607 1010 l 708 1010 l 602 0 l 391 0 l 371 -189 l 270 -189 z "},"А":{"ha":788,"x_min":15,"x_max":667,"o":"m 501 400 l 432 879 l 261 400 l 501 400 m 559 0 l 515 308 l 230 308 l 120 0 l 15 0 l 395 1010 l 500 1010 l 667 0 l 559 0 z "},"Б":{"ha":788,"x_min":80,"x_max":683,"o":"m 80 0 l 186 1010 l 683 1010 l 674 919 l 278 919 l 241 582 l 437 582 q 609 520 553 582 q 653 343 664 458 l 643 258 q 561 67 630 134 q 378 0 492 0 l 80 0 m 191 91 l 366 91 q 494 131 453 91 q 544 264 534 172 l 551 324 q 528 455 561 415 q 408 494 495 494 l 232 494 l 191 91 z "},"В":{"ha":788,"x_min":80,"x_max":688,"o":"m 80 0 l 186 1010 l 444 1010 q 631 951 574 1010 q 676 773 688 893 l 669 712 q 625 609 663 653 q 529 553 587 564 l 525 516 q 633 453 596 509 q 662 309 670 396 l 655 255 q 566 63 643 126 q 346 0 489 0 l 80 0 m 241 573 l 410 573 q 525 610 487 573 q 572 730 563 646 l 574 758 q 553 878 583 841 q 446 914 523 914 l 277 914 l 241 573 m 191 96 l 381 96 q 505 137 463 96 q 556 269 547 178 l 559 303 q 537 436 569 395 q 422 477 504 477 l 231 477 l 191 96 z "},"Г":{"ha":788,"x_min":77,"x_max":730,"o":"m 77 0 l 183 1010 l 730 1010 l 721 919 l 275 919 l 178 0 l 77 0 z "},"Ѓ":{"ha":788,"x_min":77,"x_max":730,"o":"m 77 0 l 183 1010 l 730 1010 l 721 919 l 275 919 l 178 0 l 77 0 m 389 1136 l 559 1389 l 713 1389 l 482 1136 l 389 1136 z "},"Д":{"ha":788,"x_min":-37,"x_max":699,"o":"m 174 125 l 172 91 l 491 91 l 578 919 l 319 919 l 259 383 q 232 229 247 288 q 174 125 216 169 m 86 0 l 66 -189 l -37 -189 l -6 91 l 56 91 q 123 201 97 128 q 162 390 149 274 l 230 1010 l 688 1010 l 592 91 l 699 91 l 669 -189 l 567 -189 l 587 0 l 86 0 z "},"Е":{"ha":788,"x_min":80,"x_max":731,"o":"m 80 0 l 186 1010 l 731 1010 l 722 919 l 278 919 l 244 598 l 635 598 l 625 506 l 234 506 l 191 91 l 635 91 l 625 0 l 80 0 z "},"Ѐ":{"ha":788,"x_min":80,"x_max":731,"o":"m 80 0 l 186 1010 l 731 1010 l 722 919 l 278 919 l 244 598 l 635 598 l 625 506 l 234 506 l 191 91 l 635 91 l 625 0 l 80 0 m 496 1136 l 318 1389 l 471 1389 l 590 1136 l 496 1136 z "},"Ё":{"ha":788,"x_min":80,"x_max":731,"o":"m 80 0 l 186 1010 l 731 1010 l 722 919 l 278 919 l 244 598 l 635 598 l 625 506 l 234 506 l 191 91 l 635 91 l 625 0 l 80 0 m 372 1157 q 325 1170 342 1157 q 313 1221 308 1183 l 313 1227 q 337 1280 317 1266 q 388 1294 357 1294 q 435 1280 419 1294 q 447 1227 451 1266 l 447 1221 q 422 1170 442 1183 q 372 1157 403 1157 m 615 1157 q 567 1170 583 1157 q 556 1221 551 1183 l 556 1227 q 579 1280 559 1266 q 630 1294 598 1294 q 676 1280 659 1294 q 689 1227 693 1266 l 689 1221 q 664 1170 684 1183 q 615 1157 644 1157 z "},"Ж":{"ha":788,"x_min":-25,"x_max":812,"o":"m 304 500 l 78 0 l -25 0 l 236 540 l 85 1010 l 182 1010 l 313 583 l 357 583 l 402 1010 l 495 1010 l 451 583 l 495 583 l 713 1010 l 812 1010 l 562 544 l 707 0 l 605 0 l 485 500 l 442 500 l 389 0 l 295 0 l 348 500 l 304 500 z "},"З":{"ha":788,"x_min":68,"x_max":697,"o":"m 328 -13 q 129 55 189 -13 q 74 269 68 122 l 178 282 q 210 122 176 168 q 337 76 245 76 q 491 122 442 76 q 552 275 540 168 l 554 302 q 533 453 566 413 q 395 494 500 494 l 288 494 l 298 586 l 405 586 q 533 618 496 586 q 580 736 571 650 l 583 771 q 556 896 592 859 q 428 934 520 934 q 307 893 347 934 q 247 746 268 852 l 148 759 q 241 960 170 898 q 446 1023 312 1023 q 633 957 569 1023 q 684 764 697 891 l 679 722 q 623 607 672 649 q 497 559 574 564 l 494 523 q 626 455 586 514 q 658 311 667 396 l 654 277 q 561 62 639 136 q 328 -13 482 -13 z "},"И":{"ha":788,"x_min":80,"x_max":708,"o":"m 511 0 l 606 900 l 227 0 l 80 0 l 186 1010 l 277 1010 l 182 111 l 568 1010 l 708 1010 l 602 0 l 511 0 z "},"Ѝ":{"ha":788,"x_min":80,"x_max":708,"o":"m 511 0 l 606 900 l 227 0 l 80 0 l 186 1010 l 277 1010 l 182 111 l 568 1010 l 708 1010 l 602 0 l 511 0 m 452 1136 l 274 1389 l 427 1389 l 545 1136 l 452 1136 z "},"Й":{"ha":788,"x_min":80,"x_max":715,"o":"m 511 0 l 606 900 l 227 0 l 80 0 l 186 1010 l 277 1010 l 182 111 l 568 1010 l 708 1010 l 602 0 l 511 0 m 468 1128 q 319 1181 379 1128 q 273 1369 260 1234 l 376 1381 q 389 1252 367 1290 q 477 1213 410 1213 q 573 1252 544 1213 q 614 1381 602 1290 l 715 1369 q 629 1181 699 1234 q 468 1128 558 1128 z "},"К":{"ha":788,"x_min":80,"x_max":771,"o":"m 232 496 l 181 0 l 80 0 l 186 1010 l 287 1010 l 242 588 l 278 588 l 653 1010 l 771 1010 l 350 547 l 663 0 l 539 0 l 271 496 l 232 496 z "},"Ќ":{"ha":788,"x_min":80,"x_max":771,"o":"m 232 496 l 181 0 l 80 0 l 186 1010 l 287 1010 l 242 588 l 278 588 l 653 1010 l 771 1010 l 350 547 l 663 0 l 539 0 l 271 496 l 232 496 m 413 1136 l 583 1389 l 737 1389 l 506 1136 l 413 1136 z "},"Л":{"ha":788,"x_min":-32,"x_max":708,"o":"m 501 0 l 598 919 l 340 919 l 271 297 q 197 65 254 141 q 53 -11 140 -11 q 8 -8 29 -11 q -32 3 -14 -4 l -3 91 q 26 80 13 83 q 54 77 39 77 q 133 134 105 77 q 174 313 162 192 l 251 1010 l 708 1010 l 602 0 l 501 0 z "},"М":{"ha":788,"x_min":42,"x_max":746,"o":"m 316 235 l 223 856 l 133 0 l 42 0 l 148 1010 l 287 1010 l 384 374 l 612 1010 l 746 1010 l 640 0 l 549 0 l 638 848 l 417 235 l 316 235 z "},"Н":{"ha":788,"x_min":80,"x_max":708,"o":"m 80 0 l 186 1010 l 287 1010 l 242 592 l 563 592 l 607 1010 l 708 1010 l 602 0 l 501 0 l 554 500 l 234 500 l 181 0 l 80 0 z "},"О":{"ha":788,"x_min":74,"x_max":713,"o":"m 340 -13 q 138 78 202 -13 q 92 341 74 168 l 126 664 q 228 932 145 841 q 449 1023 311 1023 q 650 932 587 1023 q 694 664 713 841 l 660 341 q 561 78 643 168 q 340 -13 479 -13 m 350 78 q 496 137 448 78 q 558 333 543 196 l 593 672 q 573 872 609 812 q 439 932 538 932 q 293 872 341 932 q 230 672 245 812 l 194 333 q 215 137 179 196 q 350 78 251 78 z "},"П":{"ha":788,"x_min":80,"x_max":708,"o":"m 80 0 l 186 1010 l 708 1010 l 602 0 l 501 0 l 598 919 l 278 919 l 181 0 l 80 0 z "},"Р":{"ha":788,"x_min":80,"x_max":727,"o":"m 80 0 l 186 1010 l 481 1010 q 672 946 617 1010 q 713 745 727 883 l 702 636 q 617 432 687 497 q 412 367 548 367 l 220 367 l 181 0 l 80 0 m 229 456 l 419 456 q 549 497 506 456 q 601 631 591 538 l 612 746 q 589 878 622 837 q 468 919 556 919 l 278 919 l 229 456 z "},"С":{"ha":788,"x_min":74,"x_max":727,"o":"m 351 -13 q 140 75 205 -13 q 92 336 74 163 l 128 669 q 229 934 145 845 q 460 1023 313 1023 q 665 941 602 1023 q 717 688 727 860 l 616 676 q 585 875 621 818 q 451 932 549 932 q 295 874 345 932 q 230 678 245 816 l 193 327 q 220 139 181 199 q 361 78 260 78 q 507 133 460 78 q 580 330 554 188 l 678 317 q 573 68 652 148 q 351 -13 494 -13 z "},"Т":{"ha":788,"x_min":128,"x_max":759,"o":"m 290 0 l 388 919 l 128 919 l 136 1010 l 759 1010 l 750 919 l 489 919 l 391 0 l 290 0 z "},"У":{"ha":788,"x_min":91,"x_max":768,"o":"m 173 1 q 133 4 153 1 q 91 11 112 6 l 119 102 q 158 94 140 97 q 192 91 177 91 q 275 126 245 91 q 335 231 304 162 l 338 235 l 303 235 l 125 1010 l 227 1010 l 374 311 l 672 1010 l 768 1010 l 407 192 q 297 40 356 80 q 173 1 237 1 z "},"Ў":{"ha":788,"x_min":91,"x_max":768,"o":"m 173 1 q 133 4 153 1 q 91 11 112 6 l 119 102 q 158 94 140 97 q 192 91 177 91 q 275 126 245 91 q 335 231 304 162 l 338 235 l 303 235 l 125 1010 l 227 1010 l 374 311 l 672 1010 l 768 1010 l 407 192 q 297 40 356 80 q 173 1 237 1 m 458 1128 q 309 1181 369 1128 q 263 1369 250 1234 l 366 1381 q 379 1252 357 1290 q 467 1213 400 1213 q 563 1252 534 1213 q 604 1381 592 1290 l 705 1369 q 619 1181 689 1234 q 458 1128 548 1128 z "},"Ф":{"ha":788,"x_min":57,"x_max":731,"o":"m 437 114 l 404 114 l 391 -13 l 288 -13 l 301 114 l 270 114 q 105 198 153 114 q 72 437 57 283 l 86 568 q 169 811 102 726 q 354 896 236 896 l 384 896 l 396 1023 l 500 1023 l 487 896 l 520 896 q 684 811 638 896 q 715 568 731 726 l 701 437 q 620 198 686 283 q 437 114 554 114 m 509 801 l 472 801 l 409 210 l 446 210 q 550 263 514 210 q 598 437 586 316 l 612 568 q 602 747 626 693 q 509 801 577 801 m 280 210 l 317 210 l 380 801 l 343 801 q 239 747 275 801 q 188 568 202 693 l 174 437 q 187 263 162 316 q 280 210 212 210 z "},"Х":{"ha":788,"x_min":-6,"x_max":798,"o":"m 571 0 l 388 427 l 112 0 l -6 0 l 343 515 l 125 1010 l 242 1010 l 417 602 l 679 1010 l 798 1010 l 461 515 l 688 0 l 571 0 z "},"Ц":{"ha":788,"x_min":80,"x_max":664,"o":"m 534 -189 l 554 0 l 80 0 l 186 1010 l 287 1010 l 191 91 l 458 91 l 554 1010 l 655 1010 l 559 91 l 664 91 l 634 -189 l 534 -189 z "},"Ч":{"ha":788,"x_min":130,"x_max":708,"o":"m 708 1010 l 602 0 l 501 0 l 539 365 l 379 365 q 186 425 241 365 q 144 616 130 485 l 186 1010 l 287 1010 l 246 619 q 270 493 236 533 q 389 453 304 453 l 549 453 l 607 1010 l 708 1010 z "},"Ш":{"ha":788,"x_min":37,"x_max":751,"o":"m 37 0 l 143 1010 l 237 1010 l 140 88 l 303 88 l 400 1010 l 494 1010 l 396 88 l 559 88 l 657 1010 l 751 1010 l 645 0 l 37 0 z "},"Щ":{"ha":788,"x_min":37,"x_max":751,"o":"m 674 -172 l 576 -172 l 593 0 l 37 0 l 143 1010 l 237 1010 l 140 88 l 303 88 l 400 1010 l 494 1010 l 396 88 l 559 88 l 657 1010 l 751 1010 l 654 88 l 701 88 l 674 -172 z "},"Ъ":{"ha":788,"x_min":81,"x_max":711,"o":"m 417 0 l 186 0 l 283 919 l 81 919 l 90 1010 l 393 1010 l 354 643 l 482 643 q 659 578 607 643 q 696 375 711 513 l 684 263 q 605 64 670 128 q 417 0 540 0 m 297 91 l 427 91 q 537 133 499 91 q 583 263 574 174 l 596 381 q 576 512 605 470 q 475 554 547 554 l 345 554 l 297 91 z "},"Ы":{"ha":788,"x_min":58,"x_max":730,"o":"m 58 0 l 164 1010 l 258 1010 l 218 643 l 282 643 q 435 577 390 643 q 465 371 480 511 l 453 266 q 381 65 439 130 q 216 0 323 0 l 58 0 m 530 0 l 636 1010 l 730 1010 l 624 0 l 530 0 m 160 88 l 222 88 q 314 129 280 88 q 359 265 348 170 l 370 378 q 355 515 380 472 q 271 557 330 557 l 210 557 l 160 88 z "},"Ь":{"ha":788,"x_min":80,"x_max":688,"o":"m 80 0 l 186 1010 l 287 1010 l 247 643 l 439 643 q 631 577 574 643 q 673 372 688 511 l 662 265 q 578 64 648 129 q 372 0 508 0 l 80 0 m 191 91 l 384 91 q 506 132 461 91 q 561 264 551 173 l 573 379 q 546 513 582 471 q 432 554 510 554 l 239 554 l 191 91 z "},"Э":{"ha":788,"x_min":83,"x_max":734,"o":"m 351 -13 q 148 69 213 -13 q 91 317 83 150 l 193 330 q 224 138 188 197 q 360 78 260 78 q 516 144 466 78 q 580 327 567 210 l 598 506 l 312 506 l 322 598 l 609 598 l 616 678 q 593 873 631 814 q 449 932 556 932 q 303 872 352 932 q 230 676 254 813 l 130 688 q 239 940 157 857 q 458 1023 322 1023 q 674 929 614 1023 q 717 669 734 835 l 682 336 q 585 80 664 172 q 351 -13 506 -13 z "},"Ю":{"ha":788,"x_min":37,"x_max":735,"o":"m 439 -13 q 293 67 335 -13 q 268 295 251 146 l 290 514 l 186 514 l 131 0 l 37 0 l 143 1010 l 237 1010 l 193 592 l 298 592 l 309 699 q 385 940 326 857 q 549 1023 444 1023 q 694 940 653 1023 q 718 699 735 857 l 677 295 q 602 67 660 146 q 439 -13 544 -13 m 448 73 q 538 126 506 73 q 582 295 569 178 l 624 699 q 617 879 638 823 q 539 936 597 936 q 449 879 481 936 q 403 699 417 823 l 361 295 q 369 126 348 178 q 448 73 390 73 z "},"Я":{"ha":788,"x_min":15,"x_max":708,"o":"m 338 491 l 553 491 l 598 919 l 384 919 q 257 878 301 919 q 205 751 213 837 l 196 672 q 220 535 186 578 q 338 491 255 491 m 544 403 l 390 403 l 138 0 l 15 0 l 277 402 q 127 481 172 414 q 95 673 82 548 l 102 747 q 188 946 116 881 q 391 1010 259 1010 l 708 1010 l 602 0 l 501 0 l 544 403 z "},"Ґ":{"ha":788,"x_min":77,"x_max":750,"o":"m 77 0 l 183 1010 l 629 1010 l 649 1199 l 750 1199 l 721 919 l 275 919 l 178 0 l 77 0 z "},"a":{"ha":788,"x_min":57,"x_max":688,"o":"m 273 85 q 384 111 336 85 q 471 199 432 138 l 484 328 l 303 328 q 213 302 247 328 q 172 211 178 275 q 188 117 165 150 q 273 85 211 85 m 250 -13 q 109 42 160 -13 q 68 202 57 96 q 140 357 78 301 q 289 414 202 414 l 492 414 l 506 538 q 482 634 513 596 q 381 673 451 673 q 271 644 308 673 q 206 530 234 615 l 120 559 q 218 717 149 663 q 389 770 287 770 q 556 717 491 770 q 609 557 620 663 l 569 181 q 592 98 563 119 q 688 95 621 78 l 677 -6 q 550 10 597 -16 q 506 120 503 37 l 486 120 q 388 25 452 62 q 250 -13 324 -13 z "},"à":{"ha":788,"x_min":57,"x_max":688,"o":"m 273 85 q 384 111 336 85 q 471 199 432 138 l 484 328 l 303 328 q 213 302 247 328 q 172 211 178 275 q 188 117 165 150 q 273 85 211 85 m 250 -13 q 109 42 160 -13 q 68 202 57 96 q 140 357 78 301 q 289 414 202 414 l 492 414 l 506 538 q 482 634 513 596 q 381 673 451 673 q 271 644 308 673 q 206 530 234 615 l 120 559 q 218 717 149 663 q 389 770 287 770 q 556 717 491 770 q 609 557 620 663 l 569 181 q 592 98 563 119 q 688 95 621 78 l 677 -6 q 550 10 597 -16 q 506 120 503 37 l 486 120 q 388 25 452 62 q 250 -13 324 -13 m 415 884 l 237 1136 l 390 1136 l 509 884 l 415 884 z "},"á":{"ha":788,"x_min":57,"x_max":688,"o":"m 273 85 q 384 111 336 85 q 471 199 432 138 l 484 328 l 303 328 q 213 302 247 328 q 172 211 178 275 q 188 117 165 150 q 273 85 211 85 m 250 -13 q 109 42 160 -13 q 68 202 57 96 q 140 357 78 301 q 289 414 202 414 l 492 414 l 506 538 q 482 634 513 596 q 381 673 451 673 q 271 644 308 673 q 206 530 234 615 l 120 559 q 218 717 149 663 q 389 770 287 770 q 556 717 491 770 q 609 557 620 663 l 569 181 q 592 98 563 119 q 688 95 621 78 l 677 -6 q 550 10 597 -16 q 506 120 503 37 l 486 120 q 388 25 452 62 q 250 -13 324 -13 m 294 884 l 465 1136 l 619 1136 l 388 884 l 294 884 z "},"â":{"ha":788,"x_min":57,"x_max":688,"o":"m 273 85 q 384 111 336 85 q 471 199 432 138 l 484 328 l 303 328 q 213 302 247 328 q 172 211 178 275 q 188 117 165 150 q 273 85 211 85 m 250 -13 q 109 42 160 -13 q 68 202 57 96 q 140 357 78 301 q 289 414 202 414 l 492 414 l 506 538 q 482 634 513 596 q 381 673 451 673 q 271 644 308 673 q 206 530 234 615 l 120 559 q 218 717 149 663 q 389 770 287 770 q 556 717 491 770 q 609 557 620 663 l 569 181 q 592 98 563 119 q 688 95 621 78 l 677 -6 q 550 10 597 -16 q 506 120 503 37 l 486 120 q 388 25 452 62 q 250 -13 324 -13 m 244 907 l 203 970 l 415 1154 l 487 1154 l 663 970 l 606 905 l 439 1047 l 244 907 z "},"ã":{"ha":788,"x_min":57,"x_max":688,"o":"m 273 85 q 384 111 336 85 q 471 199 432 138 l 484 328 l 303 328 q 213 302 247 328 q 172 211 178 275 q 188 117 165 150 q 273 85 211 85 m 250 -13 q 109 42 160 -13 q 68 202 57 96 q 140 357 78 301 q 289 414 202 414 l 492 414 l 506 538 q 482 634 513 596 q 381 673 451 673 q 271 644 308 673 q 206 530 234 615 l 120 559 q 218 717 149 663 q 389 770 287 770 q 556 717 491 770 q 609 557 620 663 l 569 181 q 592 98 563 119 q 688 95 621 78 l 677 -6 q 550 10 597 -16 q 506 120 503 37 l 486 120 q 388 25 452 62 q 250 -13 324 -13 m 496 896 q 434 921 456 896 q 396 973 412 946 q 370 1025 383 1001 q 337 1049 357 1049 q 297 1019 313 1049 q 277 920 282 989 l 275 909 l 196 909 l 197 928 q 249 1080 207 1019 q 357 1141 290 1141 q 425 1117 402 1141 q 462 1066 448 1092 q 485 1014 475 1038 q 515 990 496 990 q 554 1020 538 990 q 578 1117 571 1049 l 580 1130 l 658 1130 l 655 1111 q 605 957 646 1018 q 496 896 563 896 z "},"ä":{"ha":788,"x_min":57,"x_max":688,"o":"m 273 85 q 384 111 336 85 q 471 199 432 138 l 484 328 l 303 328 q 213 302 247 328 q 172 211 178 275 q 188 117 165 150 q 273 85 211 85 m 250 -13 q 109 42 160 -13 q 68 202 57 96 q 140 357 78 301 q 289 414 202 414 l 492 414 l 506 538 q 482 634 513 596 q 381 673 451 673 q 271 644 308 673 q 206 530 234 615 l 120 559 q 218 717 149 663 q 389 770 287 770 q 556 717 491 770 q 609 557 620 663 l 569 181 q 592 98 563 119 q 688 95 621 78 l 677 -6 q 550 10 597 -16 q 506 120 503 37 l 486 120 q 388 25 452 62 q 250 -13 324 -13 m 293 904 q 246 917 263 904 q 234 968 229 931 l 234 975 q 258 1028 237 1014 q 308 1042 278 1042 q 355 1028 340 1042 q 367 975 371 1014 l 367 968 q 343 917 362 931 q 293 904 323 904 m 535 904 q 487 917 504 904 q 476 968 471 931 l 476 975 q 499 1028 480 1014 q 551 1042 519 1042 q 597 1028 580 1042 q 610 975 614 1014 l 610 968 q 585 917 605 931 q 535 904 564 904 z "},"å":{"ha":788,"x_min":57,"x_max":688,"o":"m 273 85 q 384 111 336 85 q 471 199 432 138 l 484 328 l 303 328 q 213 302 247 328 q 172 211 178 275 q 188 117 165 150 q 273 85 211 85 m 250 -13 q 109 42 160 -13 q 68 202 57 96 q 140 357 78 301 q 289 414 202 414 l 492 414 l 506 538 q 482 634 513 596 q 381 673 451 673 q 271 644 308 673 q 206 530 234 615 l 120 559 q 218 717 149 663 q 389 770 287 770 q 556 717 491 770 q 609 557 620 663 l 569 181 q 592 98 563 119 q 688 95 621 78 l 677 -6 q 550 10 597 -16 q 506 120 503 37 l 486 120 q 388 25 452 62 q 250 -13 324 -13 m 412 869 q 296 913 337 869 q 264 1048 255 957 l 269 1088 q 329 1226 278 1181 q 455 1271 380 1271 q 571 1226 530 1271 q 602 1088 611 1181 l 597 1048 q 537 913 588 957 q 412 869 486 869 m 420 951 q 488 973 463 951 q 518 1048 513 995 l 523 1088 q 508 1165 528 1140 q 446 1189 489 1189 q 378 1165 403 1189 q 348 1088 354 1140 l 343 1048 q 358 973 338 995 q 420 951 378 951 z "},"ā":{"ha":788,"x_min":57,"x_max":688,"o":"m 273 85 q 384 111 336 85 q 471 199 432 138 l 484 328 l 303 328 q 213 302 247 328 q 172 211 178 275 q 188 117 165 150 q 273 85 211 85 m 250 -13 q 109 42 160 -13 q 68 202 57 96 q 140 357 78 301 q 289 414 202 414 l 492 414 l 506 538 q 482 634 513 596 q 381 673 451 673 q 271 644 308 673 q 206 530 234 615 l 120 559 q 218 717 149 663 q 389 770 287 770 q 556 717 491 770 q 609 557 620 663 l 569 181 q 592 98 563 119 q 688 95 621 78 l 677 -6 q 550 10 597 -16 q 506 120 503 37 l 486 120 q 388 25 452 62 q 250 -13 324 -13 m 212 965 l 222 1056 l 641 1056 l 631 965 l 212 965 z "},"ă":{"ha":788,"x_min":57,"x_max":688,"o":"m 273 85 q 384 111 336 85 q 471 199 432 138 l 484 328 l 303 328 q 213 302 247 328 q 172 211 178 275 q 188 117 165 150 q 273 85 211 85 m 250 -13 q 109 42 160 -13 q 68 202 57 96 q 140 357 78 301 q 289 414 202 414 l 492 414 l 506 538 q 482 634 513 596 q 381 673 451 673 q 271 644 308 673 q 206 530 234 615 l 120 559 q 218 717 149 663 q 389 770 287 770 q 556 717 491 770 q 609 557 620 663 l 569 181 q 592 98 563 119 q 688 95 621 78 l 677 -6 q 550 10 597 -16 q 506 120 503 37 l 486 120 q 388 25 452 62 q 250 -13 324 -13 m 413 875 q 243 936 303 875 q 196 1129 183 997 l 299 1129 q 321 999 290 1038 q 422 961 352 961 q 530 999 491 961 q 580 1129 568 1038 l 683 1129 q 595 936 668 997 q 413 875 523 875 z "},"ą":{"ha":788,"x_min":57,"x_max":689,"o":"m 273 85 q 384 111 336 85 q 471 199 432 138 l 484 328 l 303 328 q 213 302 247 328 q 172 211 178 275 q 188 117 165 150 q 273 85 211 85 m 250 -13 q 109 42 160 -13 q 68 202 57 96 q 140 357 78 301 q 289 414 202 414 l 492 414 l 506 538 q 482 634 513 596 q 381 673 451 673 q 271 644 308 673 q 206 530 234 615 l 120 559 q 218 717 149 663 q 389 770 287 770 q 556 717 491 770 q 609 557 620 663 l 569 181 q 592 98 563 119 q 688 95 621 78 l 677 -6 q 550 10 597 -16 q 506 120 503 37 l 486 120 q 388 25 452 62 q 250 -13 324 -13 m 573 -269 q 466 -229 508 -269 q 432 -121 424 -189 q 483 -20 438 -66 q 577 48 528 25 l 602 29 q 545 -33 562 1 q 527 -91 529 -67 q 541 -146 523 -126 q 595 -165 559 -165 q 643 -161 614 -165 q 689 -153 673 -157 l 679 -256 q 628 -265 658 -261 q 573 -269 597 -269 z "},"ǻ":{"ha":788,"x_min":57,"x_max":688,"o":"m 273 85 q 384 111 336 85 q 471 199 432 138 l 484 328 l 303 328 q 213 302 247 328 q 172 211 178 275 q 188 117 165 150 q 273 85 211 85 m 250 -13 q 109 42 160 -13 q 68 202 57 96 q 140 357 78 301 q 289 414 202 414 l 492 414 l 506 538 q 482 634 513 596 q 381 673 451 673 q 271 644 308 673 q 206 530 234 615 l 120 559 q 218 717 149 663 q 389 770 287 770 q 556 717 491 770 q 609 557 620 663 l 569 181 q 592 98 563 119 q 688 95 621 78 l 677 -6 q 550 10 597 -16 q 506 120 503 37 l 486 120 q 388 25 452 62 q 250 -13 324 -13 m 412 869 q 296 913 337 869 q 264 1048 255 957 l 269 1088 q 329 1226 278 1181 q 455 1271 380 1271 q 571 1226 530 1271 q 602 1088 611 1181 l 597 1048 q 537 913 588 957 q 412 869 486 869 m 420 951 q 488 973 463 951 q 518 1048 513 995 l 523 1088 q 508 1165 528 1140 q 446 1189 489 1189 q 378 1165 403 1189 q 348 1088 354 1140 l 343 1048 q 358 973 338 995 q 420 951 378 951 m 359 1263 l 529 1515 l 683 1515 l 452 1263 l 359 1263 z "},"b":{"ha":788,"x_min":87,"x_max":668,"o":"m 332 -14 q 198 6 261 -14 q 87 68 135 27 l 186 1010 l 285 1010 l 247 652 l 280 652 q 362 739 311 708 q 479 770 414 770 q 622 698 577 770 q 654 489 668 626 l 630 260 q 538 57 616 129 q 332 -14 460 -14 m 340 78 q 475 123 429 78 q 530 263 520 168 l 556 501 q 538 630 564 590 q 443 670 511 670 q 335 638 385 670 q 235 534 285 606 l 192 122 q 260 88 225 98 q 340 78 295 78 z "},"":{"ha":788,"x_min":87,"x_max":668,"o":"m 332 -14 q 198 6 261 -14 q 87 68 135 27 l 186 1010 l 285 1010 l 247 652 l 280 652 q 362 739 311 708 q 479 770 414 770 q 622 698 577 770 q 654 489 668 626 l 630 260 q 538 57 616 129 q 332 -14 460 -14 m 340 78 q 475 123 429 78 q 530 263 520 168 l 556 501 q 538 630 564 590 q 443 670 511 670 q 335 638 385 670 q 235 534 285 606 l 192 122 q 260 88 225 98 q 340 78 295 78 z "},"c":{"ha":788,"x_min":93,"x_max":676,"o":"m 355 -13 q 154 57 215 -13 q 106 254 93 126 l 131 495 q 222 700 145 630 q 436 770 298 770 q 617 708 559 770 q 669 518 676 646 l 571 514 q 539 641 574 606 q 424 676 504 676 q 290 634 338 676 q 232 501 241 592 l 206 250 q 237 124 197 164 q 365 83 278 83 q 485 111 444 83 q 539 218 527 139 l 638 215 q 548 42 617 97 q 355 -13 479 -13 z "},"ç":{"ha":788,"x_min":93,"x_max":676,"o":"m 355 -13 q 154 57 215 -13 q 106 254 93 126 l 131 495 q 222 700 145 630 q 436 770 298 770 q 617 708 559 770 q 669 518 676 646 l 571 514 q 539 641 574 606 q 424 676 504 676 q 290 634 338 676 q 232 501 241 592 l 206 250 q 237 124 197 164 q 365 83 278 83 q 485 111 444 83 q 539 218 527 139 l 638 215 q 548 42 617 97 q 355 -13 479 -13 m 303 0 l 328 53 q 415 -1 383 40 q 439 -115 447 -43 q 380 -232 432 -194 q 273 -269 328 -269 q 165 -242 206 -269 q 128 -146 125 -215 l 218 -134 q 230 -167 217 -158 q 277 -177 244 -177 q 326 -160 308 -177 q 350 -101 345 -144 q 343 -32 354 -54 q 303 0 333 -10 z "},"ć":{"ha":788,"x_min":93,"x_max":676,"o":"m 355 -13 q 154 57 215 -13 q 106 254 93 126 l 131 495 q 222 700 145 630 q 436 770 298 770 q 617 708 559 770 q 669 518 676 646 l 571 514 q 539 641 574 606 q 424 676 504 676 q 290 634 338 676 q 232 501 241 592 l 206 250 q 237 124 197 164 q 365 83 278 83 q 485 111 444 83 q 539 218 527 139 l 638 215 q 548 42 617 97 q 355 -13 479 -13 m 319 884 l 490 1136 l 644 1136 l 413 884 l 319 884 z "},"ĉ":{"ha":788,"x_min":93,"x_max":691,"o":"m 355 -13 q 154 57 215 -13 q 106 254 93 126 l 131 495 q 222 700 145 630 q 436 770 298 770 q 617 708 559 770 q 669 518 676 646 l 571 514 q 539 641 574 606 q 424 676 504 676 q 290 634 338 676 q 232 501 241 592 l 206 250 q 237 124 197 164 q 365 83 278 83 q 485 111 444 83 q 539 218 527 139 l 638 215 q 548 42 617 97 q 355 -13 479 -13 m 271 907 l 231 970 l 443 1154 l 515 1154 l 691 970 l 634 905 l 467 1047 l 271 907 z "},"ċ":{"ha":788,"x_min":93,"x_max":676,"o":"m 355 -13 q 154 57 215 -13 q 106 254 93 126 l 131 495 q 222 700 145 630 q 436 770 298 770 q 617 708 559 770 q 669 518 676 646 l 571 514 q 539 641 574 606 q 424 676 504 676 q 290 634 338 676 q 232 501 241 592 l 206 250 q 237 124 197 164 q 365 83 278 83 q 485 111 444 83 q 539 218 527 139 l 638 215 q 548 42 617 97 q 355 -13 479 -13 m 442 904 q 379 917 403 904 q 361 968 356 931 l 361 975 q 391 1028 365 1014 q 457 1042 418 1042 q 519 1028 496 1042 q 538 975 542 1014 l 538 968 q 507 917 533 931 q 442 904 481 904 z "},"č":{"ha":788,"x_min":93,"x_max":689,"o":"m 355 -13 q 154 57 215 -13 q 106 254 93 126 l 131 495 q 222 700 145 630 q 436 770 298 770 q 617 708 559 770 q 669 518 676 646 l 571 514 q 539 641 574 606 q 424 676 504 676 q 290 634 338 676 q 232 501 241 592 l 206 250 q 237 124 197 164 q 365 83 278 83 q 485 111 444 83 q 539 218 527 139 l 638 215 q 548 42 617 97 q 355 -13 479 -13 m 405 889 l 230 1073 l 287 1136 l 453 997 l 649 1136 l 689 1073 l 477 889 l 405 889 z "},"d":{"ha":788,"x_min":93,"x_max":708,"o":"m 318 87 q 426 121 375 87 q 527 223 476 154 l 568 626 q 503 667 539 654 q 423 679 467 679 q 289 634 336 679 q 231 495 241 588 l 206 254 q 225 128 197 168 q 318 87 253 87 m 481 106 q 398 18 451 49 q 283 -13 345 -13 q 141 61 188 -13 q 107 269 93 134 l 131 497 q 225 699 145 626 q 433 771 306 771 q 508 761 468 771 q 580 734 547 751 l 609 1010 l 708 1010 l 602 0 l 503 0 l 514 106 l 481 106 z "},"ď":{"ha":788,"x_min":93,"x_max":1049,"o":"m 318 87 q 426 121 375 87 q 527 223 476 154 l 568 626 q 503 667 539 654 q 423 679 467 679 q 289 634 336 679 q 231 495 241 588 l 206 254 q 225 128 197 168 q 318 87 253 87 m 481 106 q 398 18 451 49 q 283 -13 345 -13 q 141 61 188 -13 q 107 269 93 134 l 131 497 q 225 699 145 626 q 433 771 306 771 q 508 761 468 771 q 580 734 547 751 l 609 1010 l 708 1010 l 602 0 l 503 0 l 514 106 l 481 106 m 774 890 l 899 1263 l 1049 1263 l 847 890 l 774 890 z "},"e":{"ha":788,"x_min":92,"x_max":669,"o":"m 624 163 q 521 30 583 72 q 340 -13 458 -13 q 154 56 216 -13 q 107 259 92 124 l 131 494 q 227 702 146 634 q 423 770 308 770 q 604 701 539 770 q 653 485 669 631 l 640 361 l 217 361 l 207 261 q 233 122 197 163 q 348 81 269 81 q 463 108 426 81 q 527 193 500 135 l 624 163 m 230 486 l 226 446 l 549 446 l 552 473 q 527 627 563 578 q 412 676 491 676 q 286 628 332 676 q 230 486 240 581 z "},"è":{"ha":788,"x_min":92,"x_max":669,"o":"m 624 163 q 521 30 583 72 q 340 -13 458 -13 q 154 56 216 -13 q 107 259 92 124 l 131 494 q 227 702 146 634 q 423 770 308 770 q 604 701 539 770 q 653 485 669 631 l 640 361 l 217 361 l 207 261 q 233 122 197 163 q 348 81 269 81 q 463 108 426 81 q 527 193 500 135 l 624 163 m 230 486 l 226 446 l 549 446 l 552 473 q 527 627 563 578 q 412 676 491 676 q 286 628 332 676 q 230 486 240 581 m 438 884 l 260 1136 l 413 1136 l 532 884 l 438 884 z "},"é":{"ha":788,"x_min":92,"x_max":669,"o":"m 624 163 q 521 30 583 72 q 340 -13 458 -13 q 154 56 216 -13 q 107 259 92 124 l 131 494 q 227 702 146 634 q 423 770 308 770 q 604 701 539 770 q 653 485 669 631 l 640 361 l 217 361 l 207 261 q 233 122 197 163 q 348 81 269 81 q 463 108 426 81 q 527 193 500 135 l 624 163 m 230 486 l 226 446 l 549 446 l 552 473 q 527 627 563 578 q 412 676 491 676 q 286 628 332 676 q 230 486 240 581 m 316 884 l 486 1136 l 640 1136 l 409 884 l 316 884 z "},"ê":{"ha":788,"x_min":92,"x_max":674,"o":"m 624 163 q 521 30 583 72 q 340 -13 458 -13 q 154 56 216 -13 q 107 259 92 124 l 131 494 q 227 702 146 634 q 423 770 308 770 q 604 701 539 770 q 653 485 669 631 l 640 361 l 217 361 l 207 261 q 233 122 197 163 q 348 81 269 81 q 463 108 426 81 q 527 193 500 135 l 624 163 m 230 486 l 226 446 l 549 446 l 552 473 q 527 627 563 578 q 412 676 491 676 q 286 628 332 676 q 230 486 240 581 m 255 907 l 215 970 l 427 1154 l 499 1154 l 674 970 l 617 905 l 451 1047 l 255 907 z "},"ë":{"ha":788,"x_min":92,"x_max":669,"o":"m 624 163 q 521 30 583 72 q 340 -13 458 -13 q 154 56 216 -13 q 107 259 92 124 l 131 494 q 227 702 146 634 q 423 770 308 770 q 604 701 539 770 q 653 485 669 631 l 640 361 l 217 361 l 207 261 q 233 122 197 163 q 348 81 269 81 q 463 108 426 81 q 527 193 500 135 l 624 163 m 230 486 l 226 446 l 549 446 l 552 473 q 527 627 563 578 q 412 676 491 676 q 286 628 332 676 q 230 486 240 581 m 316 904 q 268 917 285 904 q 256 968 251 931 l 256 975 q 280 1028 260 1014 q 331 1042 301 1042 q 378 1028 362 1042 q 390 975 394 1014 l 390 968 q 366 917 385 931 q 316 904 346 904 m 558 904 q 510 917 527 904 q 499 968 494 931 l 499 975 q 522 1028 503 1014 q 573 1042 542 1042 q 619 1028 602 1042 q 633 975 636 1014 l 633 968 q 607 917 628 931 q 558 904 587 904 z "},"ē":{"ha":788,"x_min":92,"x_max":669,"o":"m 624 163 q 521 30 583 72 q 340 -13 458 -13 q 154 56 216 -13 q 107 259 92 124 l 131 494 q 227 702 146 634 q 423 770 308 770 q 604 701 539 770 q 653 485 669 631 l 640 361 l 217 361 l 207 261 q 233 122 197 163 q 348 81 269 81 q 463 108 426 81 q 527 193 500 135 l 624 163 m 230 486 l 226 446 l 549 446 l 552 473 q 527 627 563 578 q 412 676 491 676 q 286 628 332 676 q 230 486 240 581 m 234 965 l 244 1056 l 663 1056 l 653 965 l 234 965 z "},"ĕ":{"ha":788,"x_min":92,"x_max":705,"o":"m 624 163 q 521 30 583 72 q 340 -13 458 -13 q 154 56 216 -13 q 107 259 92 124 l 131 494 q 227 702 146 634 q 423 770 308 770 q 604 701 539 770 q 653 485 669 631 l 640 361 l 217 361 l 207 261 q 233 122 197 163 q 348 81 269 81 q 463 108 426 81 q 527 193 500 135 l 624 163 m 230 486 l 226 446 l 549 446 l 552 473 q 527 627 563 578 q 412 676 491 676 q 286 628 332 676 q 230 486 240 581 m 434 875 q 265 936 324 875 q 217 1129 205 997 l 321 1129 q 343 999 312 1038 q 443 961 374 961 q 551 999 513 961 q 601 1129 590 1038 l 705 1129 q 617 936 689 997 q 434 875 544 875 z "},"ė":{"ha":788,"x_min":92,"x_max":669,"o":"m 624 163 q 521 30 583 72 q 340 -13 458 -13 q 154 56 216 -13 q 107 259 92 124 l 131 494 q 227 702 146 634 q 423 770 308 770 q 604 701 539 770 q 653 485 669 631 l 640 361 l 217 361 l 207 261 q 233 122 197 163 q 348 81 269 81 q 463 108 426 81 q 527 193 500 135 l 624 163 m 230 486 l 226 446 l 549 446 l 552 473 q 527 627 563 578 q 412 676 491 676 q 286 628 332 676 q 230 486 240 581 m 437 904 q 374 917 398 904 q 356 968 351 931 l 356 975 q 386 1028 360 1014 q 452 1042 413 1042 q 514 1028 491 1042 q 533 975 537 1014 l 533 968 q 502 917 528 931 q 437 904 476 904 z "},"ę":{"ha":788,"x_min":92,"x_max":669,"o":"m 458 -269 q 351 -229 393 -269 q 317 -121 309 -189 q 368 -20 323 -66 q 462 48 413 25 l 487 29 q 431 -33 447 1 q 412 -91 414 -67 q 426 -146 408 -126 q 480 -165 444 -165 q 528 -161 499 -165 q 574 -153 558 -157 l 564 -256 q 513 -265 543 -261 q 458 -269 482 -269 m 624 163 q 521 30 583 72 q 340 -13 458 -13 q 154 56 216 -13 q 107 259 92 124 l 131 494 q 227 702 146 634 q 423 770 308 770 q 604 701 539 770 q 653 485 669 631 l 640 361 l 217 361 l 207 261 q 233 122 197 163 q 348 81 269 81 q 463 108 426 81 q 527 193 500 135 l 624 163 m 230 486 l 226 446 l 549 446 l 552 473 q 527 627 563 578 q 412 676 491 676 q 286 628 332 676 q 230 486 240 581 z "},"ě":{"ha":788,"x_min":92,"x_max":684,"o":"m 624 163 q 521 30 583 72 q 340 -13 458 -13 q 154 56 216 -13 q 107 259 92 124 l 131 494 q 227 702 146 634 q 423 770 308 770 q 604 701 539 770 q 653 485 669 631 l 640 361 l 217 361 l 207 261 q 233 122 197 163 q 348 81 269 81 q 463 108 426 81 q 527 193 500 135 l 624 163 m 230 486 l 226 446 l 549 446 l 552 473 q 527 627 563 578 q 412 676 491 676 q 286 628 332 676 q 230 486 240 581 m 400 889 l 225 1073 l 282 1136 l 448 997 l 644 1136 l 684 1073 l 472 889 l 400 889 z "},"f":{"ha":788,"x_min":126,"x_max":726,"o":"m 211 -253 l 307 662 l 126 662 l 136 758 l 317 758 l 322 811 q 402 959 332 907 q 562 1011 471 1011 q 655 998 606 1011 q 726 971 703 985 l 694 881 q 626 905 663 898 q 551 913 588 913 q 463 891 497 913 q 424 819 429 869 l 418 758 l 682 758 l 672 662 l 408 662 l 312 -253 l 211 -253 z "},"g":{"ha":788,"x_min":6,"x_max":708,"o":"m 649 -69 q 571 -218 639 -172 q 414 -265 503 -265 l 215 -265 q 63 -222 120 -265 q 18 -77 6 -179 q 54 17 23 -19 q 136 58 85 53 l 139 85 q 82 119 102 90 q 68 208 62 148 q 107 302 74 259 q 207 351 139 346 l 210 374 q 148 438 162 395 q 138 513 134 481 l 141 557 q 218 699 150 641 q 398 758 285 758 l 708 758 l 697 652 l 538 684 l 535 660 q 593 605 576 645 q 607 528 611 566 l 602 486 q 532 347 593 402 q 347 292 471 292 l 216 292 q 171 274 188 292 q 150 213 154 256 q 164 150 145 170 q 225 129 183 129 l 466 129 q 607 83 553 129 q 649 -69 660 37 m 360 383 q 462 412 424 383 q 506 508 500 442 l 510 543 q 485 638 518 609 q 389 667 453 667 q 287 638 323 667 q 242 543 250 609 l 239 508 q 264 412 232 442 q 360 383 295 383 m 217 -176 l 437 -176 q 517 -151 484 -176 q 557 -71 551 -126 q 539 8 563 -16 q 471 32 514 32 l 130 32 l 120 -61 q 139 -147 114 -119 q 217 -176 164 -176 z "},"ĝ":{"ha":788,"x_min":6,"x_max":708,"o":"m 649 -69 q 571 -218 639 -172 q 414 -265 503 -265 l 215 -265 q 63 -222 120 -265 q 18 -77 6 -179 q 54 17 23 -19 q 136 58 85 53 l 139 85 q 82 119 102 90 q 68 208 62 148 q 107 302 74 259 q 207 351 139 346 l 210 374 q 148 438 162 395 q 138 513 134 481 l 141 557 q 218 699 150 641 q 398 758 285 758 l 708 758 l 697 652 l 538 684 l 535 660 q 593 605 576 645 q 607 528 611 566 l 602 486 q 532 347 593 402 q 347 292 471 292 l 216 292 q 171 274 188 292 q 150 213 154 256 q 164 150 145 170 q 225 129 183 129 l 466 129 q 607 83 553 129 q 649 -69 660 37 m 360 383 q 462 412 424 383 q 506 508 500 442 l 510 543 q 485 638 518 609 q 389 667 453 667 q 287 638 323 667 q 242 543 250 609 l 239 508 q 264 412 232 442 q 360 383 295 383 m 217 -176 l 437 -176 q 517 -151 484 -176 q 557 -71 551 -126 q 539 8 563 -16 q 471 32 514 32 l 130 32 l 120 -61 q 139 -147 114 -119 q 217 -176 164 -176 m 242 907 l 202 970 l 414 1154 l 486 1154 l 662 970 l 605 905 l 438 1047 l 242 907 z "},"ğ":{"ha":788,"x_min":6,"x_max":708,"o":"m 649 -69 q 571 -218 639 -172 q 414 -265 503 -265 l 215 -265 q 63 -222 120 -265 q 18 -77 6 -179 q 54 17 23 -19 q 136 58 85 53 l 139 85 q 82 119 102 90 q 68 208 62 148 q 107 302 74 259 q 207 351 139 346 l 210 374 q 148 438 162 395 q 138 513 134 481 l 141 557 q 218 699 150 641 q 398 758 285 758 l 708 758 l 697 652 l 538 684 l 535 660 q 593 605 576 645 q 607 528 611 566 l 602 486 q 532 347 593 402 q 347 292 471 292 l 216 292 q 171 274 188 292 q 150 213 154 256 q 164 150 145 170 q 225 129 183 129 l 466 129 q 607 83 553 129 q 649 -69 660 37 m 360 383 q 462 412 424 383 q 506 508 500 442 l 510 543 q 485 638 518 609 q 389 667 453 667 q 287 638 323 667 q 242 543 250 609 l 239 508 q 264 412 232 442 q 360 383 295 383 m 217 -176 l 437 -176 q 517 -151 484 -176 q 557 -71 551 -126 q 539 8 563 -16 q 471 32 514 32 l 130 32 l 120 -61 q 139 -147 114 -119 q 217 -176 164 -176 m 433 875 q 263 936 323 875 q 216 1129 203 997 l 319 1129 q 342 999 311 1038 q 442 961 372 961 q 550 999 511 961 q 600 1129 588 1038 l 703 1129 q 616 936 688 997 q 433 875 543 875 z "},"ġ":{"ha":788,"x_min":6,"x_max":708,"o":"m 649 -69 q 571 -218 639 -172 q 414 -265 503 -265 l 215 -265 q 63 -222 120 -265 q 18 -77 6 -179 q 54 17 23 -19 q 136 58 85 53 l 139 85 q 82 119 102 90 q 68 208 62 148 q 107 302 74 259 q 207 351 139 346 l 210 374 q 148 438 162 395 q 138 513 134 481 l 141 557 q 218 699 150 641 q 398 758 285 758 l 708 758 l 697 652 l 538 684 l 535 660 q 593 605 576 645 q 607 528 611 566 l 602 486 q 532 347 593 402 q 347 292 471 292 l 216 292 q 171 274 188 292 q 150 213 154 256 q 164 150 145 170 q 225 129 183 129 l 466 129 q 607 83 553 129 q 649 -69 660 37 m 360 383 q 462 412 424 383 q 506 508 500 442 l 510 543 q 485 638 518 609 q 389 667 453 667 q 287 638 323 667 q 242 543 250 609 l 239 508 q 264 412 232 442 q 360 383 295 383 m 217 -176 l 437 -176 q 517 -151 484 -176 q 557 -71 551 -126 q 539 8 563 -16 q 471 32 514 32 l 130 32 l 120 -61 q 139 -147 114 -119 q 217 -176 164 -176 m 436 904 q 373 917 396 904 q 355 968 350 931 l 355 975 q 385 1028 359 1014 q 451 1042 412 1042 q 513 1028 490 1042 q 532 975 535 1014 l 532 968 q 501 917 527 931 q 436 904 475 904 z "},"ģ":{"ha":788,"x_min":6,"x_max":708,"o":"m 649 -69 q 571 -218 639 -172 q 414 -265 503 -265 l 215 -265 q 63 -222 120 -265 q 18 -77 6 -179 q 54 17 23 -19 q 136 58 85 53 l 139 85 q 82 119 102 90 q 68 208 62 148 q 107 302 74 259 q 207 351 139 346 l 210 374 q 148 438 162 395 q 138 513 134 481 l 141 557 q 218 699 150 641 q 398 758 285 758 l 708 758 l 697 652 l 538 684 l 535 660 q 593 605 576 645 q 607 528 611 566 l 602 486 q 532 347 593 402 q 347 292 471 292 l 216 292 q 171 274 188 292 q 150 213 154 256 q 164 150 145 170 q 225 129 183 129 l 466 129 q 607 83 553 129 q 649 -69 660 37 m 360 383 q 462 412 424 383 q 506 508 500 442 l 510 543 q 485 638 518 609 q 389 667 453 667 q 287 638 323 667 q 242 543 250 609 l 239 508 q 264 412 232 442 q 360 383 295 383 m 217 -176 l 437 -176 q 517 -151 484 -176 q 557 -71 551 -126 q 539 8 563 -16 q 471 32 514 32 l 130 32 l 120 -61 q 139 -147 114 -119 q 217 -176 164 -176 m 337 884 l 525 1136 l 620 1136 l 491 884 l 337 884 z "},"h":{"ha":788,"x_min":80,"x_max":669,"o":"m 80 0 l 186 1010 l 285 1010 l 247 652 l 280 652 q 360 738 306 706 q 479 770 414 770 q 621 702 572 770 q 657 520 669 634 l 602 0 l 503 0 l 556 505 q 537 629 564 587 q 447 670 509 670 q 340 639 393 670 q 236 545 288 607 l 179 0 l 80 0 z "},"ĥ":{"ha":788,"x_min":42,"x_max":669,"o":"m 80 0 l 186 1010 l 285 1010 l 247 652 l 280 652 q 360 738 306 706 q 479 770 414 770 q 621 702 572 770 q 657 520 669 634 l 602 0 l 503 0 l 556 505 q 537 629 564 587 q 447 670 509 670 q 340 639 393 670 q 236 545 288 607 l 179 0 l 80 0 m 82 1159 l 42 1222 l 254 1407 l 326 1407 l 501 1222 l 444 1158 l 278 1299 l 82 1159 z "},"i":{"ha":788,"x_min":78,"x_max":614,"o":"m 78 0 l 88 96 l 301 96 l 360 662 l 148 662 l 158 758 l 471 758 l 402 96 l 614 96 l 604 0 l 78 0 m 434 904 q 372 917 395 904 q 354 968 348 931 l 354 975 q 384 1028 357 1014 q 449 1042 410 1042 q 511 1028 489 1042 q 530 975 534 1014 l 530 968 q 499 917 525 931 q 434 904 473 904 z "},"ì":{"ha":788,"x_min":78,"x_max":614,"o":"m 78 0 l 88 96 l 301 96 l 360 662 l 148 662 l 158 758 l 471 758 l 402 96 l 614 96 l 604 0 l 78 0 m 437 884 l 259 1136 l 412 1136 l 530 884 l 437 884 z "},"í":{"ha":788,"x_min":78,"x_max":640,"o":"m 78 0 l 88 96 l 301 96 l 360 662 l 148 662 l 158 758 l 471 758 l 402 96 l 614 96 l 604 0 l 78 0 m 316 884 l 486 1136 l 640 1136 l 409 884 l 316 884 z "},"î":{"ha":788,"x_min":78,"x_max":673,"o":"m 78 0 l 88 96 l 301 96 l 360 662 l 148 662 l 158 758 l 471 758 l 402 96 l 614 96 l 604 0 l 78 0 m 254 907 l 213 970 l 426 1154 l 497 1154 l 673 970 l 616 905 l 449 1047 l 254 907 z "},"ï":{"ha":788,"x_min":78,"x_max":635,"o":"m 78 0 l 88 96 l 301 96 l 360 662 l 148 662 l 158 758 l 471 758 l 402 96 l 614 96 l 604 0 l 78 0 m 314 904 q 267 917 284 904 q 255 968 250 931 l 255 975 q 279 1028 259 1014 q 330 1042 299 1042 q 377 1028 361 1042 q 389 975 393 1014 l 389 968 q 364 917 384 931 q 314 904 345 904 m 557 904 q 509 917 525 904 q 497 968 492 931 l 497 975 q 521 1028 501 1014 q 572 1042 540 1042 q 618 1028 601 1042 q 631 975 635 1014 l 631 968 q 606 917 626 931 q 557 904 586 904 z "},"ĩ":{"ha":788,"x_min":78,"x_max":679,"o":"m 78 0 l 88 96 l 301 96 l 360 662 l 148 662 l 158 758 l 471 758 l 402 96 l 614 96 l 604 0 l 78 0 m 518 896 q 455 921 477 896 q 418 973 433 946 q 391 1025 404 1001 q 359 1049 379 1049 q 319 1019 335 1049 q 298 920 303 989 l 297 909 l 217 909 l 218 928 q 270 1080 229 1019 q 379 1141 312 1141 q 446 1117 423 1141 q 484 1066 470 1092 q 507 1014 496 1038 q 537 990 518 990 q 576 1020 559 990 q 600 1117 592 1049 l 601 1130 l 679 1130 l 677 1111 q 626 957 668 1018 q 518 896 585 896 z "},"ī":{"ha":788,"x_min":78,"x_max":662,"o":"m 78 0 l 88 96 l 301 96 l 360 662 l 148 662 l 158 758 l 471 758 l 402 96 l 614 96 l 604 0 l 78 0 m 232 965 l 242 1056 l 662 1056 l 652 965 l 232 965 z "},"ĭ":{"ha":788,"x_min":78,"x_max":703,"o":"m 78 0 l 88 96 l 301 96 l 360 662 l 148 662 l 158 758 l 471 758 l 402 96 l 614 96 l 604 0 l 78 0 m 433 875 q 263 936 323 875 q 216 1129 203 997 l 319 1129 q 342 999 311 1038 q 442 961 372 961 q 550 999 511 961 q 600 1129 588 1038 l 703 1129 q 616 936 688 997 q 433 875 543 875 z "},"į":{"ha":788,"x_min":78,"x_max":614,"o":"m 434 904 q 372 917 395 904 q 354 968 348 931 l 354 975 q 384 1028 357 1014 q 449 1042 410 1042 q 511 1028 489 1042 q 530 975 534 1014 l 530 968 q 499 917 525 931 q 434 904 473 904 m 78 0 l 88 96 l 301 96 l 360 662 l 148 662 l 158 758 l 471 758 l 402 96 l 614 96 l 604 0 l 78 0 m 400 -269 q 293 -229 335 -269 q 259 -121 251 -189 q 310 -20 265 -66 q 404 48 355 25 l 429 29 q 372 -33 389 1 q 354 -91 356 -67 q 368 -146 350 -126 q 422 -165 386 -165 q 470 -161 441 -165 q 516 -153 500 -157 l 506 -256 q 455 -265 485 -261 q 400 -269 424 -269 z "},"j":{"ha":788,"x_min":56,"x_max":639,"o":"m 217 -263 q 140 -257 178 -263 q 56 -235 101 -251 l 90 -125 q 160 -147 126 -141 q 226 -153 193 -153 q 341 -116 294 -153 q 398 6 388 -80 l 466 662 l 169 662 l 179 758 l 577 758 l 496 -9 q 402 -201 482 -140 q 217 -263 322 -263 m 539 904 q 477 917 500 904 q 458 968 453 931 l 458 975 q 489 1028 462 1014 q 554 1042 515 1042 q 616 1028 593 1042 q 635 975 639 1014 l 635 968 q 604 917 630 931 q 539 904 578 904 z "},"ĵ":{"ha":788,"x_min":56,"x_max":742,"o":"m 217 -263 q 140 -257 178 -263 q 56 -235 101 -251 l 90 -125 q 160 -147 126 -141 q 226 -153 193 -153 q 341 -116 294 -153 q 398 6 388 -80 l 466 662 l 169 662 l 179 758 l 577 758 l 496 -9 q 402 -201 482 -140 q 217 -263 322 -263 m 323 907 l 283 970 l 495 1154 l 567 1154 l 742 970 l 686 905 l 519 1047 l 323 907 z "},"k":{"ha":788,"x_min":134,"x_max":697,"o":"m 273 355 l 235 0 l 134 0 l 240 1010 l 341 1010 l 282 444 l 336 444 l 573 758 l 697 758 l 409 403 l 615 0 l 499 0 l 327 355 l 273 355 z "},"ķ":{"ha":788,"x_min":134,"x_max":697,"o":"m 273 355 l 235 0 l 134 0 l 240 1010 l 341 1010 l 282 444 l 336 444 l 573 758 l 697 758 l 409 403 l 615 0 l 499 0 l 327 355 l 273 355 m 152 -379 l 280 -126 l 434 -126 l 246 -379 l 152 -379 z "},"l":{"ha":788,"x_min":78,"x_max":612,"o":"m 78 0 l 88 96 l 299 96 l 385 914 l 174 914 l 184 1010 l 496 1010 l 400 96 l 612 96 l 602 0 l 78 0 z "},"ĺ":{"ha":788,"x_min":78,"x_max":658,"o":"m 78 0 l 88 96 l 299 96 l 385 914 l 174 914 l 184 1010 l 496 1010 l 400 96 l 612 96 l 602 0 l 78 0 m 333 1136 l 504 1389 l 658 1389 l 427 1136 l 333 1136 z "},"ļ":{"ha":788,"x_min":78,"x_max":612,"o":"m 78 0 l 88 96 l 299 96 l 385 914 l 174 914 l 184 1010 l 496 1010 l 400 96 l 612 96 l 602 0 l 78 0 m 134 -379 l 263 -126 l 417 -126 l 229 -379 l 134 -379 z "},"ľ":{"ha":788,"x_min":78,"x_max":836,"o":"m 78 0 l 88 96 l 299 96 l 385 914 l 174 914 l 184 1010 l 496 1010 l 400 96 l 612 96 l 602 0 l 78 0 m 561 890 l 686 1263 l 836 1263 l 634 890 l 561 890 z "},"m":{"ha":788,"x_min":38,"x_max":715,"o":"m 189 552 l 131 0 l 38 0 l 117 758 l 212 758 l 202 667 l 222 667 q 282 745 247 717 q 354 773 316 773 q 420 745 395 773 q 451 667 444 717 l 473 667 q 535 745 499 717 q 612 773 571 773 q 690 724 665 773 q 706 588 715 676 l 644 0 l 551 0 l 611 577 q 605 658 616 630 q 571 686 595 686 q 515 652 547 686 q 447 552 482 617 l 389 0 l 293 0 l 354 577 q 349 658 360 631 q 314 686 338 686 q 259 652 290 686 q 189 552 227 619 z "},"n":{"ha":788,"x_min":80,"x_max":669,"o":"m 80 0 l 159 758 l 259 758 l 247 652 l 280 652 q 368 738 314 706 q 480 770 422 770 q 622 703 574 770 q 657 519 669 636 l 602 0 l 503 0 l 556 500 q 537 628 564 585 q 447 670 509 670 q 340 638 393 670 q 236 540 287 605 l 179 0 l 80 0 z "},"ñ":{"ha":788,"x_min":80,"x_max":701,"o":"m 80 0 l 159 758 l 259 758 l 247 652 l 280 652 q 368 738 314 706 q 480 770 422 770 q 622 703 574 770 q 657 519 669 636 l 602 0 l 503 0 l 556 500 q 537 628 564 585 q 447 670 509 670 q 340 638 393 670 q 236 540 287 605 l 179 0 l 80 0 m 539 896 q 477 921 499 896 q 439 973 455 946 q 413 1025 426 1001 q 380 1049 400 1049 q 340 1019 356 1049 q 319 920 324 989 l 318 909 l 239 909 l 240 928 q 292 1080 250 1019 q 400 1141 333 1141 q 468 1117 444 1141 q 505 1066 491 1092 q 528 1014 518 1038 q 558 990 539 990 q 597 1020 581 990 q 621 1117 614 1049 l 622 1130 l 701 1130 l 698 1111 q 648 957 689 1018 q 539 896 606 896 z "},"ń":{"ha":788,"x_min":80,"x_max":669,"o":"m 80 0 l 159 758 l 259 758 l 247 652 l 280 652 q 368 738 314 706 q 480 770 422 770 q 622 703 574 770 q 657 519 669 636 l 602 0 l 503 0 l 556 500 q 537 628 564 585 q 447 670 509 670 q 340 638 393 670 q 236 540 287 605 l 179 0 l 80 0 m 337 884 l 508 1136 l 662 1136 l 431 884 l 337 884 z "},"ņ":{"ha":788,"x_min":80,"x_max":669,"o":"m 160 -379 l 289 -126 l 443 -126 l 255 -379 l 160 -379 m 80 0 l 159 758 l 259 758 l 247 652 l 280 652 q 368 738 314 706 q 480 770 422 770 q 622 703 574 770 q 657 519 669 636 l 602 0 l 503 0 l 556 500 q 537 628 564 585 q 447 670 509 670 q 340 638 393 670 q 236 540 287 605 l 179 0 l 80 0 z "},"ň":{"ha":788,"x_min":80,"x_max":705,"o":"m 80 0 l 159 758 l 259 758 l 247 652 l 280 652 q 368 738 314 706 q 480 770 422 770 q 622 703 574 770 q 657 519 669 636 l 602 0 l 503 0 l 556 500 q 537 628 564 585 q 447 670 509 670 q 340 638 393 670 q 236 540 287 605 l 179 0 l 80 0 m 420 889 l 245 1073 l 302 1136 l 468 997 l 664 1136 l 705 1073 l 492 889 l 420 889 z "},"o":{"ha":788,"x_min":93,"x_max":668,"o":"m 340 -13 q 153 57 213 -13 q 106 258 93 128 l 131 495 q 221 699 145 628 q 423 770 297 770 q 608 699 548 770 q 654 497 668 629 l 630 259 q 541 57 616 128 q 340 -13 466 -13 m 350 83 q 475 124 431 83 q 529 254 520 164 l 554 497 q 528 631 564 588 q 412 674 492 674 q 286 631 331 674 q 231 497 241 588 l 206 253 q 233 124 197 164 q 350 83 269 83 z "},"ò":{"ha":788,"x_min":93,"x_max":668,"o":"m 340 -13 q 153 57 213 -13 q 106 258 93 128 l 131 495 q 221 699 145 628 q 423 770 297 770 q 608 699 548 770 q 654 497 668 629 l 630 259 q 541 57 616 128 q 340 -13 466 -13 m 350 83 q 475 124 431 83 q 529 254 520 164 l 554 497 q 528 631 564 588 q 412 674 492 674 q 286 631 331 674 q 231 497 241 588 l 206 253 q 233 124 197 164 q 350 83 269 83 m 437 884 l 259 1136 l 412 1136 l 530 884 l 437 884 z "},"ó":{"ha":788,"x_min":93,"x_max":668,"o":"m 340 -13 q 153 57 213 -13 q 106 258 93 128 l 131 495 q 221 699 145 628 q 423 770 297 770 q 608 699 548 770 q 654 497 668 629 l 630 259 q 541 57 616 128 q 340 -13 466 -13 m 350 83 q 475 124 431 83 q 529 254 520 164 l 554 497 q 528 631 564 588 q 412 674 492 674 q 286 631 331 674 q 231 497 241 588 l 206 253 q 233 124 197 164 q 350 83 269 83 m 316 884 l 486 1136 l 640 1136 l 409 884 l 316 884 z "},"ô":{"ha":788,"x_min":93,"x_max":673,"o":"m 340 -13 q 153 57 213 -13 q 106 258 93 128 l 131 495 q 221 699 145 628 q 423 770 297 770 q 608 699 548 770 q 654 497 668 629 l 630 259 q 541 57 616 128 q 340 -13 466 -13 m 350 83 q 475 124 431 83 q 529 254 520 164 l 554 497 q 528 631 564 588 q 412 674 492 674 q 286 631 331 674 q 231 497 241 588 l 206 253 q 233 124 197 164 q 350 83 269 83 m 254 907 l 213 970 l 426 1154 l 497 1154 l 673 970 l 616 905 l 449 1047 l 254 907 z "},"õ":{"ha":788,"x_min":93,"x_max":679,"o":"m 340 -13 q 153 57 213 -13 q 106 258 93 128 l 131 495 q 221 699 145 628 q 423 770 297 770 q 608 699 548 770 q 654 497 668 629 l 630 259 q 541 57 616 128 q 340 -13 466 -13 m 350 83 q 475 124 431 83 q 529 254 520 164 l 554 497 q 528 631 564 588 q 412 674 492 674 q 286 631 331 674 q 231 497 241 588 l 206 253 q 233 124 197 164 q 350 83 269 83 m 518 896 q 455 921 477 896 q 418 973 433 946 q 391 1025 404 1001 q 359 1049 379 1049 q 319 1019 335 1049 q 298 920 303 989 l 297 909 l 217 909 l 218 928 q 270 1080 229 1019 q 379 1141 312 1141 q 446 1117 423 1141 q 484 1066 470 1092 q 507 1014 496 1038 q 537 990 518 990 q 576 1020 559 990 q 600 1117 592 1049 l 601 1130 l 679 1130 l 677 1111 q 626 957 668 1018 q 518 896 585 896 z "},"ö":{"ha":788,"x_min":93,"x_max":668,"o":"m 340 -13 q 153 57 213 -13 q 106 258 93 128 l 131 495 q 221 699 145 628 q 423 770 297 770 q 608 699 548 770 q 654 497 668 629 l 630 259 q 541 57 616 128 q 340 -13 466 -13 m 350 83 q 475 124 431 83 q 529 254 520 164 l 554 497 q 528 631 564 588 q 412 674 492 674 q 286 631 331 674 q 231 497 241 588 l 206 253 q 233 124 197 164 q 350 83 269 83 m 314 904 q 267 917 284 904 q 255 968 250 931 l 255 975 q 279 1028 259 1014 q 330 1042 299 1042 q 377 1028 361 1042 q 389 975 393 1014 l 389 968 q 364 917 384 931 q 314 904 345 904 m 557 904 q 509 917 525 904 q 497 968 492 931 l 497 975 q 521 1028 501 1014 q 572 1042 540 1042 q 618 1028 601 1042 q 631 975 635 1014 l 631 968 q 606 917 626 931 q 557 904 586 904 z "},"ō":{"ha":788,"x_min":93,"x_max":668,"o":"m 340 -13 q 153 57 213 -13 q 106 258 93 128 l 131 495 q 221 699 145 628 q 423 770 297 770 q 608 699 548 770 q 654 497 668 629 l 630 259 q 541 57 616 128 q 340 -13 466 -13 m 350 83 q 475 124 431 83 q 529 254 520 164 l 554 497 q 528 631 564 588 q 412 674 492 674 q 286 631 331 674 q 231 497 241 588 l 206 253 q 233 124 197 164 q 350 83 269 83 m 232 965 l 242 1056 l 662 1056 l 652 965 l 232 965 z "},"ŏ":{"ha":788,"x_min":93,"x_max":703,"o":"m 340 -13 q 153 57 213 -13 q 106 258 93 128 l 131 495 q 221 699 145 628 q 423 770 297 770 q 608 699 548 770 q 654 497 668 629 l 630 259 q 541 57 616 128 q 340 -13 466 -13 m 350 83 q 475 124 431 83 q 529 254 520 164 l 554 497 q 528 631 564 588 q 412 674 492 674 q 286 631 331 674 q 231 497 241 588 l 206 253 q 233 124 197 164 q 350 83 269 83 m 433 875 q 263 936 323 875 q 216 1129 203 997 l 319 1129 q 342 999 311 1038 q 442 961 372 961 q 550 999 511 961 q 600 1129 588 1038 l 703 1129 q 616 936 688 997 q 433 875 543 875 z "},"ő":{"ha":788,"x_min":93,"x_max":725,"o":"m 340 -13 q 153 57 213 -13 q 106 258 93 128 l 131 495 q 221 699 145 628 q 423 770 297 770 q 608 699 548 770 q 654 497 668 629 l 630 259 q 541 57 616 128 q 340 -13 466 -13 m 350 83 q 475 124 431 83 q 529 254 520 164 l 554 497 q 528 631 564 588 q 412 674 492 674 q 286 631 331 674 q 231 497 241 588 l 206 253 q 233 124 197 164 q 350 83 269 83 m 494 884 l 580 1136 l 725 1136 l 567 884 l 494 884 m 251 884 l 337 1136 l 482 1136 l 324 884 l 251 884 z "},"p":{"ha":788,"x_min":53,"x_max":667,"o":"m 340 78 q 473 124 427 78 q 530 263 520 170 l 556 501 q 537 629 564 587 q 443 670 509 670 q 336 637 386 670 q 235 534 285 604 l 193 131 q 259 92 223 105 q 340 78 295 78 m 328 -14 q 254 -4 293 -14 q 182 24 216 6 l 153 -253 l 53 -253 l 159 758 l 259 758 l 247 652 l 280 652 q 362 738 309 706 q 479 770 414 770 q 621 694 574 770 q 653 486 667 617 l 630 260 q 536 59 616 133 q 328 -14 456 -14 z "},"q":{"ha":788,"x_min":93,"x_max":676,"o":"m 476 -253 l 514 106 l 481 106 q 395 18 447 48 q 284 -13 342 -13 q 140 61 186 -13 q 107 269 93 134 l 131 497 q 227 699 145 626 q 431 771 309 771 q 563 753 500 771 q 676 702 626 735 l 576 -253 l 476 -253 m 318 87 q 426 121 375 87 q 527 223 477 155 l 569 635 q 503 669 539 658 q 423 679 466 679 q 293 633 345 679 q 231 495 241 586 l 208 271 q 225 133 198 179 q 318 87 253 87 z "},"r":{"ha":788,"x_min":133,"x_max":681,"o":"m 133 0 l 212 758 l 313 758 l 302 645 l 335 645 q 410 741 361 711 q 523 770 458 770 q 637 717 593 770 q 670 566 681 664 l 659 451 l 559 451 l 567 528 q 552 635 574 600 q 472 670 530 670 q 377 640 422 670 q 292 552 332 610 l 234 0 l 133 0 z "},"ŕ":{"ha":788,"x_min":133,"x_max":683,"o":"m 133 0 l 212 758 l 313 758 l 302 645 l 335 645 q 410 741 361 711 q 523 770 458 770 q 637 717 593 770 q 670 566 681 664 l 659 451 l 559 451 l 567 528 q 552 635 574 600 q 472 670 530 670 q 377 640 422 670 q 292 552 332 610 l 234 0 l 133 0 m 359 884 l 529 1136 l 683 1136 l 452 884 l 359 884 z "},"ŗ":{"ha":788,"x_min":11,"x_max":681,"o":"m 133 0 l 212 758 l 313 758 l 302 645 l 335 645 q 410 741 361 711 q 523 770 458 770 q 637 717 593 770 q 670 566 681 664 l 659 451 l 559 451 l 567 528 q 552 635 574 600 q 472 670 530 670 q 377 640 422 670 q 292 552 332 610 l 234 0 l 133 0 m 11 -379 l 140 -126 l 294 -126 l 106 -379 l 11 -379 z "},"ř":{"ha":788,"x_min":133,"x_max":726,"o":"m 133 0 l 212 758 l 313 758 l 302 645 l 335 645 q 410 741 361 711 q 523 770 458 770 q 637 717 593 770 q 670 566 681 664 l 659 451 l 559 451 l 567 528 q 552 635 574 600 q 472 670 530 670 q 377 640 422 670 q 292 552 332 610 l 234 0 l 133 0 m 442 889 l 266 1073 l 323 1136 l 490 997 l 686 1136 l 726 1073 l 514 889 l 442 889 z "},"s":{"ha":788,"x_min":69,"x_max":663,"o":"m 355 -14 q 200 11 275 -14 q 69 90 125 37 l 126 174 q 235 109 172 134 q 366 85 298 85 q 481 109 434 85 q 534 196 528 134 q 503 284 542 259 q 359 331 463 309 q 182 406 234 355 q 140 552 130 457 q 224 714 152 658 q 400 770 297 770 q 543 742 473 770 q 663 663 612 713 l 607 576 q 508 643 564 615 q 388 672 452 672 q 287 646 326 672 q 240 558 247 620 q 272 469 234 495 q 414 423 311 443 q 592 347 539 399 q 635 205 644 294 q 544 40 624 95 q 355 -14 465 -14 z "},"":{"ha":788,"x_min":69,"x_max":663,"o":"m 355 -14 q 200 11 275 -14 q 69 90 125 37 l 126 174 q 235 109 172 134 q 366 85 298 85 q 481 109 434 85 q 534 196 528 134 q 503 284 542 259 q 359 331 463 309 q 182 406 234 355 q 140 552 130 457 q 224 714 152 658 q 400 770 297 770 q 543 742 473 770 q 663 663 612 713 l 607 576 q 508 643 564 615 q 388 672 452 672 q 287 646 326 672 q 240 558 247 620 q 272 469 234 495 q 414 423 311 443 q 592 347 539 399 q 635 205 644 294 q 544 40 624 95 q 355 -14 465 -14 z "},"ś":{"ha":788,"x_min":69,"x_max":663,"o":"m 355 -14 q 200 11 275 -14 q 69 90 125 37 l 126 174 q 235 109 172 134 q 366 85 298 85 q 481 109 434 85 q 534 196 528 134 q 503 284 542 259 q 359 331 463 309 q 182 406 234 355 q 140 552 130 457 q 224 714 152 658 q 400 770 297 770 q 543 742 473 770 q 663 663 612 713 l 607 576 q 508 643 564 615 q 388 672 452 672 q 287 646 326 672 q 240 558 247 620 q 272 469 234 495 q 414 423 311 443 q 592 347 539 399 q 635 205 644 294 q 544 40 624 95 q 355 -14 465 -14 m 313 884 l 484 1136 l 638 1136 l 407 884 l 313 884 z "},"ŝ":{"ha":788,"x_min":69,"x_max":670,"o":"m 355 -14 q 200 11 275 -14 q 69 90 125 37 l 126 174 q 235 109 172 134 q 366 85 298 85 q 481 109 434 85 q 534 196 528 134 q 503 284 542 259 q 359 331 463 309 q 182 406 234 355 q 140 552 130 457 q 224 714 152 658 q 400 770 297 770 q 543 742 473 770 q 663 663 612 713 l 607 576 q 508 643 564 615 q 388 672 452 672 q 287 646 326 672 q 240 558 247 620 q 272 469 234 495 q 414 423 311 443 q 592 347 539 399 q 635 205 644 294 q 544 40 624 95 q 355 -14 465 -14 m 251 907 l 211 970 l 423 1154 l 495 1154 l 670 970 l 614 905 l 447 1047 l 251 907 z "},"ş":{"ha":788,"x_min":69,"x_max":663,"o":"m 355 -14 q 200 11 275 -14 q 69 90 125 37 l 126 174 q 235 109 172 134 q 366 85 298 85 q 481 109 434 85 q 534 196 528 134 q 503 284 542 259 q 359 331 463 309 q 182 406 234 355 q 140 552 130 457 q 224 714 152 658 q 400 770 297 770 q 543 742 473 770 q 663 663 612 713 l 607 576 q 508 643 564 615 q 388 672 452 672 q 287 646 326 672 q 240 558 247 620 q 272 469 234 495 q 414 423 311 443 q 592 347 539 399 q 635 205 644 294 q 544 40 624 95 q 355 -14 465 -14 m 307 0 l 332 53 q 419 -1 386 40 q 443 -115 451 -43 q 384 -232 436 -194 q 277 -269 332 -269 q 169 -242 210 -269 q 131 -146 129 -215 l 222 -134 q 234 -167 221 -158 q 280 -177 247 -177 q 330 -160 312 -177 q 354 -101 348 -144 q 347 -32 357 -54 q 307 0 337 -10 z "},"š":{"ha":788,"x_min":69,"x_max":681,"o":"m 355 -14 q 200 11 275 -14 q 69 90 125 37 l 126 174 q 235 109 172 134 q 366 85 298 85 q 481 109 434 85 q 534 196 528 134 q 503 284 542 259 q 359 331 463 309 q 182 406 234 355 q 140 552 130 457 q 224 714 152 658 q 400 770 297 770 q 543 742 473 770 q 663 663 612 713 l 607 576 q 508 643 564 615 q 388 672 452 672 q 287 646 326 672 q 240 558 247 620 q 272 469 234 495 q 414 423 311 443 q 592 347 539 399 q 635 205 644 294 q 544 40 624 95 q 355 -14 465 -14 m 396 889 l 221 1073 l 278 1136 l 444 997 l 640 1136 l 681 1073 l 468 889 l 396 889 z "},"ș":{"ha":788,"x_min":69,"x_max":663,"o":"m 355 -14 q 200 11 275 -14 q 69 90 125 37 l 126 174 q 235 109 172 134 q 366 85 298 85 q 481 109 434 85 q 534 196 528 134 q 503 284 542 259 q 359 331 463 309 q 182 406 234 355 q 140 552 130 457 q 224 714 152 658 q 400 770 297 770 q 543 742 473 770 q 663 663 612 713 l 607 576 q 508 643 564 615 q 388 672 452 672 q 287 646 326 672 q 240 558 247 620 q 272 469 234 495 q 414 423 311 443 q 592 347 539 399 q 635 205 644 294 q 544 40 624 95 q 355 -14 465 -14 m 139 -379 l 268 -126 l 422 -126 l 234 -379 l 139 -379 z "},"t":{"ha":788,"x_min":122,"x_max":689,"o":"m 458 -11 q 299 52 351 -11 q 258 229 246 115 l 303 662 l 122 662 l 133 758 l 313 758 l 340 1010 l 439 1010 l 413 758 l 689 758 l 679 662 l 403 662 l 359 242 q 378 129 351 167 q 466 91 404 91 q 542 97 505 91 q 611 116 578 104 l 621 18 q 545 -3 590 6 q 458 -11 501 -11 z "},"ţ":{"ha":788,"x_min":122,"x_max":689,"o":"m 458 -11 q 299 52 351 -11 q 258 229 246 115 l 303 662 l 122 662 l 133 758 l 313 758 l 340 1010 l 439 1010 l 413 758 l 689 758 l 679 662 l 403 662 l 359 242 q 378 129 351 167 q 466 91 404 91 q 542 97 505 91 q 611 116 578 104 l 621 18 q 545 -3 590 6 q 458 -11 501 -11 m 379 0 l 404 53 q 491 -1 458 40 q 515 -115 523 -43 q 456 -232 508 -194 q 348 -269 404 -269 q 241 -242 282 -269 q 203 -146 201 -215 l 294 -134 q 306 -167 293 -158 q 352 -177 319 -177 q 402 -160 384 -177 q 426 -101 420 -144 q 419 -32 429 -54 q 379 0 409 -10 z "},"ť":{"ha":788,"x_min":122,"x_max":771,"o":"m 458 -11 q 299 52 351 -11 q 258 229 246 115 l 303 662 l 122 662 l 133 758 l 313 758 l 340 1010 l 439 1010 l 413 758 l 689 758 l 679 662 l 403 662 l 359 242 q 378 129 351 167 q 466 91 404 91 q 542 97 505 91 q 611 116 578 104 l 621 18 q 545 -3 590 6 q 458 -11 501 -11 m 496 890 l 621 1263 l 771 1263 l 569 890 l 496 890 z "},"ț":{"ha":788,"x_min":122,"x_max":689,"o":"m 458 -11 q 299 52 351 -11 q 258 229 246 115 l 303 662 l 122 662 l 133 758 l 313 758 l 340 1010 l 439 1010 l 413 758 l 689 758 l 679 662 l 403 662 l 359 242 q 378 129 351 167 q 466 91 404 91 q 542 97 505 91 q 611 116 578 104 l 621 18 q 545 -3 590 6 q 458 -11 501 -11 m 159 -379 l 288 -126 l 442 -126 l 254 -379 l 159 -379 z "},"u":{"ha":788,"x_min":92,"x_max":682,"o":"m 284 -13 q 141 56 191 -13 q 105 239 92 125 l 159 758 l 259 758 l 206 250 q 225 129 197 170 q 316 87 253 87 q 422 118 369 87 q 524 210 475 149 l 582 758 l 682 758 l 602 0 l 503 0 l 514 106 l 481 106 q 403 21 457 54 q 284 -13 348 -13 z "},"ù":{"ha":788,"x_min":92,"x_max":682,"o":"m 284 -13 q 141 56 191 -13 q 105 239 92 125 l 159 758 l 259 758 l 206 250 q 225 129 197 170 q 316 87 253 87 q 422 118 369 87 q 524 210 475 149 l 582 758 l 682 758 l 602 0 l 503 0 l 514 106 l 481 106 q 403 21 457 54 q 284 -13 348 -13 m 403 884 l 225 1136 l 378 1136 l 496 884 l 403 884 z "},"ú":{"ha":788,"x_min":92,"x_max":682,"o":"m 284 -13 q 141 56 191 -13 q 105 239 92 125 l 159 758 l 259 758 l 206 250 q 225 129 197 170 q 316 87 253 87 q 422 118 369 87 q 524 210 475 149 l 582 758 l 682 758 l 602 0 l 503 0 l 514 106 l 481 106 q 403 21 457 54 q 284 -13 348 -13 m 357 884 l 528 1136 l 682 1136 l 451 884 l 357 884 z "},"û":{"ha":788,"x_min":92,"x_max":682,"o":"m 284 -13 q 141 56 191 -13 q 105 239 92 125 l 159 758 l 259 758 l 206 250 q 225 129 197 170 q 316 87 253 87 q 422 118 369 87 q 524 210 475 149 l 582 758 l 682 758 l 602 0 l 503 0 l 514 106 l 481 106 q 403 21 457 54 q 284 -13 348 -13 m 254 907 l 213 970 l 426 1154 l 497 1154 l 673 970 l 616 905 l 449 1047 l 254 907 z "},"ü":{"ha":788,"x_min":92,"x_max":682,"o":"m 284 -13 q 141 56 191 -13 q 105 239 92 125 l 159 758 l 259 758 l 206 250 q 225 129 197 170 q 316 87 253 87 q 422 118 369 87 q 524 210 475 149 l 582 758 l 682 758 l 602 0 l 503 0 l 514 106 l 481 106 q 403 21 457 54 q 284 -13 348 -13 m 314 904 q 267 917 284 904 q 255 968 250 931 l 255 975 q 279 1028 259 1014 q 330 1042 299 1042 q 377 1028 361 1042 q 389 975 393 1014 l 389 968 q 364 917 384 931 q 314 904 345 904 m 557 904 q 509 917 525 904 q 497 968 492 931 l 497 975 q 521 1028 501 1014 q 572 1042 540 1042 q 618 1028 601 1042 q 631 975 635 1014 l 631 968 q 606 917 626 931 q 557 904 586 904 z "},"ũ":{"ha":788,"x_min":92,"x_max":682,"o":"m 284 -13 q 141 56 191 -13 q 105 239 92 125 l 159 758 l 259 758 l 206 250 q 225 129 197 170 q 316 87 253 87 q 422 118 369 87 q 524 210 475 149 l 582 758 l 682 758 l 602 0 l 503 0 l 514 106 l 481 106 q 403 21 457 54 q 284 -13 348 -13 m 518 896 q 455 921 477 896 q 418 973 433 946 q 391 1025 404 1001 q 359 1049 379 1049 q 319 1019 335 1049 q 298 920 303 989 l 297 909 l 217 909 l 218 928 q 270 1080 229 1019 q 379 1141 312 1141 q 446 1117 423 1141 q 484 1066 470 1092 q 507 1014 496 1038 q 537 990 518 990 q 576 1020 559 990 q 600 1117 592 1049 l 601 1130 l 679 1130 l 677 1111 q 626 957 668 1018 q 518 896 585 896 z "},"ū":{"ha":788,"x_min":92,"x_max":682,"o":"m 284 -13 q 141 56 191 -13 q 105 239 92 125 l 159 758 l 259 758 l 206 250 q 225 129 197 170 q 316 87 253 87 q 422 118 369 87 q 524 210 475 149 l 582 758 l 682 758 l 602 0 l 503 0 l 514 106 l 481 106 q 403 21 457 54 q 284 -13 348 -13 m 232 965 l 242 1056 l 662 1056 l 652 965 l 232 965 z "},"ŭ":{"ha":788,"x_min":92,"x_max":703,"o":"m 284 -13 q 141 56 191 -13 q 105 239 92 125 l 159 758 l 259 758 l 206 250 q 225 129 197 170 q 316 87 253 87 q 422 118 369 87 q 524 210 475 149 l 582 758 l 682 758 l 602 0 l 503 0 l 514 106 l 481 106 q 403 21 457 54 q 284 -13 348 -13 m 433 875 q 263 936 323 875 q 216 1129 203 997 l 319 1129 q 342 999 311 1038 q 442 961 372 961 q 550 999 511 961 q 600 1129 588 1038 l 703 1129 q 616 936 688 997 q 433 875 543 875 z "},"ů":{"ha":788,"x_min":92,"x_max":682,"o":"m 284 -13 q 141 56 191 -13 q 105 239 92 125 l 159 758 l 259 758 l 206 250 q 225 129 197 170 q 316 87 253 87 q 422 118 369 87 q 524 210 475 149 l 582 758 l 682 758 l 602 0 l 503 0 l 514 106 l 481 106 q 403 21 457 54 q 284 -13 348 -13 m 432 869 q 316 913 357 869 q 284 1048 275 957 l 289 1088 q 349 1226 298 1181 q 475 1271 400 1271 q 591 1226 551 1271 q 622 1088 631 1181 l 617 1048 q 557 913 609 957 q 432 869 506 869 m 441 951 q 508 973 484 951 q 538 1048 533 995 l 543 1088 q 528 1165 548 1140 q 466 1189 509 1189 q 398 1165 423 1189 q 369 1088 374 1140 l 364 1048 q 378 973 359 995 q 441 951 398 951 z "},"ű":{"ha":788,"x_min":92,"x_max":747,"o":"m 284 -13 q 141 56 191 -13 q 105 239 92 125 l 159 758 l 259 758 l 206 250 q 225 129 197 170 q 316 87 253 87 q 422 118 369 87 q 524 210 475 149 l 582 758 l 682 758 l 602 0 l 503 0 l 514 106 l 481 106 q 403 21 457 54 q 284 -13 348 -13 m 516 884 l 602 1136 l 747 1136 l 590 884 l 516 884 m 274 884 l 360 1136 l 505 1136 l 347 884 l 274 884 z "},"ų":{"ha":788,"x_min":92,"x_max":682,"o":"m 557 -269 q 449 -229 491 -269 q 415 -121 408 -189 q 467 -20 422 -66 q 561 48 511 25 l 586 29 q 529 -33 545 1 q 510 -91 513 -67 q 525 -146 506 -126 q 578 -165 543 -165 q 627 -161 597 -165 q 673 -153 657 -157 l 663 -256 q 611 -265 641 -261 q 557 -269 581 -269 m 284 -13 q 141 56 191 -13 q 105 239 92 125 l 159 758 l 259 758 l 206 250 q 225 129 197 170 q 316 87 253 87 q 422 118 369 87 q 524 210 475 149 l 582 758 l 682 758 l 602 0 l 503 0 l 514 106 l 481 106 q 403 21 457 54 q 284 -13 348 -13 z "},"v":{"ha":788,"x_min":131,"x_max":708,"o":"m 403 0 l 278 0 l 131 758 l 242 758 l 351 88 l 600 758 l 708 758 l 403 0 z "},"w":{"ha":788,"x_min":95,"x_max":746,"o":"m 434 0 l 395 520 l 251 0 l 134 0 l 95 758 l 192 758 l 202 76 l 343 635 l 468 635 l 503 92 l 649 758 l 746 758 l 548 0 l 434 0 z "},"":{"ha":788,"x_min":95,"x_max":746,"o":"m 434 0 l 395 520 l 251 0 l 134 0 l 95 758 l 192 758 l 202 76 l 343 635 l 468 635 l 503 92 l 649 758 l 746 758 l 548 0 l 434 0 z "},"ŵ":{"ha":788,"x_min":95,"x_max":746,"o":"m 434 0 l 395 520 l 251 0 l 134 0 l 95 758 l 192 758 l 202 76 l 343 635 l 468 635 l 503 92 l 649 758 l 746 758 l 548 0 l 434 0 m 254 907 l 213 970 l 426 1154 l 497 1154 l 673 970 l 616 905 l 449 1047 l 254 907 z "},"ẁ":{"ha":788,"x_min":95,"x_max":746,"o":"m 434 0 l 395 520 l 251 0 l 134 0 l 95 758 l 192 758 l 202 76 l 343 635 l 468 635 l 503 92 l 649 758 l 746 758 l 548 0 l 434 0 m 437 884 l 259 1136 l 412 1136 l 530 884 l 437 884 z "},"ẃ":{"ha":788,"x_min":95,"x_max":746,"o":"m 434 0 l 395 520 l 251 0 l 134 0 l 95 758 l 192 758 l 202 76 l 343 635 l 468 635 l 503 92 l 649 758 l 746 758 l 548 0 l 434 0 m 313 884 l 484 1136 l 638 1136 l 407 884 l 313 884 z "},"ẅ":{"ha":788,"x_min":95,"x_max":746,"o":"m 434 0 l 395 520 l 251 0 l 134 0 l 95 758 l 192 758 l 202 76 l 343 635 l 468 635 l 503 92 l 649 758 l 746 758 l 548 0 l 434 0 m 314 904 q 267 917 284 904 q 255 968 250 931 l 255 975 q 279 1028 259 1014 q 330 1042 299 1042 q 377 1028 361 1042 q 389 975 393 1014 l 389 968 q 364 917 384 931 q 314 904 345 904 m 557 904 q 509 917 525 904 q 497 968 492 931 l 497 975 q 521 1028 501 1014 q 572 1042 540 1042 q 618 1028 601 1042 q 631 975 635 1014 l 631 968 q 606 917 626 931 q 557 904 586 904 z "},"x":{"ha":788,"x_min":64,"x_max":698,"o":"m 500 0 l 366 295 l 177 0 l 64 0 l 324 380 l 150 758 l 265 758 l 394 471 l 586 758 l 698 758 l 436 385 l 614 0 l 500 0 z "},"y":{"ha":788,"x_min":30,"x_max":708,"o":"m 136 -258 q 84 -254 111 -258 q 30 -245 57 -250 l 58 -150 q 108 -160 86 -157 q 150 -163 130 -163 q 244 -130 206 -163 q 312 -27 282 -97 l 317 -14 l 278 -14 l 133 758 l 242 758 l 354 81 l 602 758 l 708 758 l 402 -34 q 282 -210 351 -163 q 136 -258 213 -258 z "},"":{"ha":788,"x_min":30,"x_max":708,"o":"m 136 -258 q 84 -254 111 -258 q 30 -245 57 -250 l 58 -150 q 108 -160 86 -157 q 150 -163 130 -163 q 244 -130 206 -163 q 312 -27 282 -97 l 317 -14 l 278 -14 l 133 758 l 242 758 l 354 81 l 602 758 l 708 758 l 402 -34 q 282 -210 351 -163 q 136 -258 213 -258 z "},"ý":{"ha":788,"x_min":30,"x_max":708,"o":"m 136 -258 q 84 -254 111 -258 q 30 -245 57 -250 l 58 -150 q 108 -160 86 -157 q 150 -163 130 -163 q 244 -130 206 -163 q 312 -27 282 -97 l 317 -14 l 278 -14 l 133 758 l 242 758 l 354 81 l 602 758 l 708 758 l 402 -34 q 282 -210 351 -163 q 136 -258 213 -258 m 313 884 l 484 1136 l 638 1136 l 407 884 l 313 884 z "},"ÿ":{"ha":788,"x_min":30,"x_max":708,"o":"m 136 -258 q 84 -254 111 -258 q 30 -245 57 -250 l 58 -150 q 108 -160 86 -157 q 150 -163 130 -163 q 244 -130 206 -163 q 312 -27 282 -97 l 317 -14 l 278 -14 l 133 758 l 242 758 l 354 81 l 602 758 l 708 758 l 402 -34 q 282 -210 351 -163 q 136 -258 213 -258 m 314 904 q 267 917 284 904 q 255 968 250 931 l 255 975 q 279 1028 259 1014 q 330 1042 299 1042 q 377 1028 361 1042 q 389 975 393 1014 l 389 968 q 364 917 384 931 q 314 904 345 904 m 557 904 q 509 917 525 904 q 497 968 492 931 l 497 975 q 521 1028 501 1014 q 572 1042 540 1042 q 618 1028 601 1042 q 631 975 635 1014 l 631 968 q 606 917 626 931 q 557 904 586 904 z "},"ŷ":{"ha":788,"x_min":30,"x_max":708,"o":"m 136 -258 q 84 -254 111 -258 q 30 -245 57 -250 l 58 -150 q 108 -160 86 -157 q 150 -163 130 -163 q 244 -130 206 -163 q 312 -27 282 -97 l 317 -14 l 278 -14 l 133 758 l 242 758 l 354 81 l 602 758 l 708 758 l 402 -34 q 282 -210 351 -163 q 136 -258 213 -258 m 254 907 l 213 970 l 426 1154 l 497 1154 l 673 970 l 616 905 l 449 1047 l 254 907 z "},"ỳ":{"ha":788,"x_min":30,"x_max":708,"o":"m 136 -258 q 84 -254 111 -258 q 30 -245 57 -250 l 58 -150 q 108 -160 86 -157 q 150 -163 130 -163 q 244 -130 206 -163 q 312 -27 282 -97 l 317 -14 l 278 -14 l 133 758 l 242 758 l 354 81 l 602 758 l 708 758 l 402 -34 q 282 -210 351 -163 q 136 -258 213 -258 m 437 884 l 259 1136 l 412 1136 l 530 884 l 437 884 z "},"z":{"ha":788,"x_min":101,"x_max":660,"o":"m 581 0 l 101 0 l 111 96 l 534 662 l 170 662 l 181 758 l 660 758 l 650 662 l 234 96 l 591 96 l 581 0 z "},"ź":{"ha":788,"x_min":101,"x_max":660,"o":"m 581 0 l 101 0 l 111 96 l 534 662 l 170 662 l 181 758 l 660 758 l 650 662 l 234 96 l 591 96 l 581 0 m 316 884 l 486 1136 l 640 1136 l 409 884 l 316 884 z "},"ż":{"ha":788,"x_min":101,"x_max":660,"o":"m 581 0 l 101 0 l 111 96 l 534 662 l 170 662 l 181 758 l 660 758 l 650 662 l 234 96 l 591 96 l 581 0 m 443 904 q 381 917 404 904 q 362 968 357 931 l 362 975 q 393 1028 366 1014 q 458 1042 419 1042 q 520 1028 497 1042 q 539 975 543 1014 l 539 968 q 508 917 534 931 q 443 904 482 904 z "},"ž":{"ha":788,"x_min":101,"x_max":682,"o":"m 581 0 l 101 0 l 111 96 l 534 662 l 170 662 l 181 758 l 660 758 l 650 662 l 234 96 l 591 96 l 581 0 m 398 889 l 222 1073 l 279 1136 l 446 997 l 641 1136 l 682 1073 l 470 889 l 398 889 z "},"ª":{"ha":788,"x_min":144,"x_max":654,"o":"m 331 503 q 409 524 371 503 q 479 598 447 545 l 486 668 l 341 668 q 273 650 302 668 q 240 588 245 633 q 256 524 235 545 q 331 503 277 503 m 302 419 q 186 461 227 419 q 153 585 144 503 q 210 700 160 657 q 322 744 260 744 l 494 744 l 503 831 q 485 910 508 876 q 407 943 462 943 q 320 924 351 943 q 265 835 289 905 l 193 860 q 267 979 215 936 q 412 1023 319 1023 q 547 978 495 1023 q 590 846 600 933 l 562 580 q 576 515 557 528 q 654 509 596 501 l 645 423 q 540 443 573 422 q 510 534 506 463 l 492 534 q 413 452 463 485 q 302 419 362 419 z "},"º":{"ha":788,"x_min":172,"x_max":659,"o":"m 385 419 q 225 475 279 419 q 183 640 172 530 l 199 795 q 277 965 211 907 q 448 1023 342 1023 q 607 965 554 1023 q 648 795 659 907 l 631 640 q 556 475 620 530 q 385 419 491 419 m 394 501 q 500 532 462 501 q 545 635 538 563 l 562 797 q 539 905 571 871 q 439 939 508 939 q 333 905 371 939 q 287 797 295 871 l 270 635 q 294 532 263 563 q 394 501 326 501 z "},"ß":{"ha":788,"x_min":-1,"x_max":725,"o":"m 452 -8 q 326 24 385 -8 q 231 115 268 56 l 298 203 q 375 129 330 160 q 475 97 420 97 q 568 124 530 97 q 610 210 605 150 q 590 297 616 270 q 486 343 563 323 q 334 411 391 367 q 288 561 277 455 q 368 716 298 660 q 543 777 438 771 q 499 886 540 848 q 390 923 458 923 q 265 872 317 923 q 202 721 212 822 l 100 -253 l -1 -253 l 102 736 q 202 946 117 871 q 403 1020 287 1020 q 590 944 524 1020 q 643 741 655 869 l 638 694 q 461 665 524 694 q 390 567 398 636 q 419 489 384 510 q 543 444 453 468 q 676 376 628 424 q 713 217 725 328 q 628 50 702 107 q 452 -8 554 -8 z "},"æ":{"ha":788,"x_min":14,"x_max":746,"o":"m 698 179 q 630 34 678 81 q 494 -13 582 -13 q 393 16 432 -13 q 340 105 354 45 l 324 105 q 255 20 294 52 q 158 -13 216 -13 q 54 44 93 -13 q 25 206 14 101 q 91 358 35 302 q 211 414 146 414 l 342 414 l 355 533 q 342 645 362 601 q 270 689 321 689 q 205 666 226 689 q 157 562 183 643 l 80 592 q 153 727 105 683 q 284 770 201 770 q 365 749 331 770 q 415 688 399 729 q 482 750 444 730 q 566 770 520 770 q 699 710 653 770 q 732 521 746 649 l 716 361 l 418 361 l 404 229 q 415 101 394 138 q 490 64 437 64 q 566 88 543 64 q 606 183 590 111 l 698 179 m 436 524 l 426 431 l 631 431 l 640 511 q 628 648 649 605 q 557 692 607 692 q 475 650 506 692 q 436 524 444 609 m 318 179 l 336 345 l 234 345 q 158 316 191 345 q 119 211 126 287 q 126 105 111 143 q 187 67 141 67 q 256 98 225 67 q 318 179 287 129 z "},"ǽ":{"ha":788,"x_min":14,"x_max":746,"o":"m 698 179 q 630 34 678 81 q 494 -13 582 -13 q 393 16 432 -13 q 340 105 354 45 l 324 105 q 255 20 294 52 q 158 -13 216 -13 q 54 44 93 -13 q 25 206 14 101 q 91 358 35 302 q 211 414 146 414 l 342 414 l 355 533 q 342 645 362 601 q 270 689 321 689 q 205 666 226 689 q 157 562 183 643 l 80 592 q 153 727 105 683 q 284 770 201 770 q 365 749 331 770 q 415 688 399 729 q 482 750 444 730 q 566 770 520 770 q 699 710 653 770 q 732 521 746 649 l 716 361 l 418 361 l 404 229 q 415 101 394 138 q 490 64 437 64 q 566 88 543 64 q 606 183 590 111 l 698 179 m 436 524 l 426 431 l 631 431 l 640 511 q 628 648 649 605 q 557 692 607 692 q 475 650 506 692 q 436 524 444 609 m 318 179 l 336 345 l 234 345 q 158 316 191 345 q 119 211 126 287 q 126 105 111 143 q 187 67 141 67 q 256 98 225 67 q 318 179 287 129 m 367 884 l 538 1136 l 692 1136 l 461 884 l 367 884 z "},"ð":{"ha":788,"x_min":92,"x_max":766,"o":"m 340 -13 q 157 56 222 -13 q 107 264 92 125 l 120 383 q 206 564 131 497 q 386 631 280 631 q 492 604 452 631 q 544 538 532 576 l 568 538 q 563 683 572 619 q 528 798 553 747 l 311 686 l 321 779 l 484 864 q 405 926 452 899 q 299 972 359 952 l 328 1037 q 464 977 405 1011 q 561 902 523 943 l 766 1006 l 756 913 l 609 836 q 655 681 645 769 q 653 480 664 593 l 631 271 q 536 56 615 124 q 340 -13 457 -13 m 351 83 q 479 129 438 83 q 529 265 520 174 l 539 365 q 516 492 548 449 q 398 534 485 534 q 270 492 311 534 q 220 365 229 449 l 210 265 q 232 129 201 174 q 351 83 264 83 z "},"ø":{"ha":788,"x_min":63,"x_max":698,"o":"m 208 249 q 208 189 205 216 q 221 143 211 163 l 482 660 q 449 668 467 665 q 412 670 432 670 q 287 629 331 670 q 235 501 244 588 l 208 249 m 350 87 q 474 125 431 87 q 527 249 518 163 l 553 500 q 553 562 556 534 q 540 610 551 590 l 279 97 q 312 90 294 92 q 350 87 330 87 m 340 -13 q 287 -9 312 -13 q 239 3 263 -5 l 169 -126 l 63 -126 l 159 49 q 113 133 128 82 q 106 254 98 183 l 133 499 q 227 704 146 638 q 423 770 308 770 q 476 766 451 770 q 525 755 501 763 l 592 884 l 698 884 l 604 706 q 649 622 635 673 q 655 499 663 571 l 629 254 q 535 52 615 116 q 340 -13 455 -13 z "},"ǿ":{"ha":788,"x_min":63,"x_max":698,"o":"m 208 249 q 208 189 205 216 q 221 143 211 163 l 482 660 q 449 668 467 665 q 412 670 432 670 q 287 629 331 670 q 235 501 244 588 l 208 249 m 350 87 q 474 125 431 87 q 527 249 518 163 l 553 500 q 553 562 556 534 q 540 610 551 590 l 279 97 q 312 90 294 92 q 350 87 330 87 m 340 -13 q 287 -9 312 -13 q 239 3 263 -5 l 169 -126 l 63 -126 l 159 49 q 113 133 128 82 q 106 254 98 183 l 133 499 q 227 704 146 638 q 423 770 308 770 q 476 766 451 770 q 525 755 501 763 l 592 884 l 698 884 l 604 706 q 649 622 635 673 q 655 499 663 571 l 629 254 q 535 52 615 116 q 340 -13 455 -13 m 313 884 l 484 1136 l 638 1136 l 407 884 l 313 884 z "},"þ":{"ha":788,"x_min":53,"x_max":668,"o":"m 340 78 q 474 123 428 78 q 530 263 520 168 l 556 501 q 538 629 564 588 q 443 670 511 670 q 335 638 385 670 q 235 534 285 605 l 193 131 q 261 91 226 104 q 340 78 297 78 m 328 -14 q 253 -4 292 -14 q 182 24 215 6 l 153 -253 l 53 -253 l 186 1010 l 285 1010 l 247 652 l 280 652 q 362 739 311 708 q 479 770 414 770 q 622 696 576 770 q 653 486 668 621 l 630 260 q 537 57 616 129 q 328 -14 457 -14 z "},"đ":{"ha":788,"x_min":93,"x_max":803,"o":"m 318 87 q 426 121 374 87 q 527 223 479 155 l 562 569 q 496 609 533 596 q 417 622 460 622 q 285 576 332 622 q 230 439 239 530 l 212 273 q 228 133 202 179 q 318 87 254 87 m 481 106 q 398 18 451 48 q 284 -13 346 -13 q 140 61 187 -13 q 107 269 93 134 l 126 442 q 220 644 140 572 q 431 716 301 716 q 503 706 466 716 q 573 678 540 696 l 587 807 l 374 807 l 384 900 l 597 900 l 609 1010 l 708 1010 l 697 900 l 803 900 l 793 807 l 687 807 l 602 0 l 503 0 l 514 106 l 481 106 z "},"ħ":{"ha":788,"x_min":58,"x_max":664,"o":"m 230 481 l 179 0 l 80 0 l 164 807 l 58 807 l 68 900 l 174 900 l 186 1010 l 285 1010 l 274 900 l 487 900 l 477 807 l 264 807 l 241 586 l 274 586 q 358 680 302 645 q 482 715 414 715 q 618 654 572 715 q 654 491 664 593 l 602 0 l 503 0 l 552 472 q 532 579 559 544 q 439 614 504 614 q 335 581 386 614 q 230 481 284 549 z "},"ı":{"ha":788,"x_min":78,"x_max":614,"o":"m 78 0 l 88 96 l 301 96 l 360 662 l 148 662 l 158 758 l 471 758 l 402 96 l 614 96 l 604 0 l 78 0 z "},"ĳ":{"ha":788,"x_min":101,"x_max":744,"o":"m 247 904 q 185 917 208 904 q 167 968 162 931 l 167 975 q 197 1028 170 1014 q 263 1042 223 1042 q 324 1028 302 1042 q 342 975 346 1014 l 342 968 q 312 917 337 931 q 247 904 287 904 m 644 904 q 581 917 605 904 q 563 968 558 931 l 563 975 q 593 1028 567 1014 q 659 1042 620 1042 q 721 1028 698 1042 q 740 975 744 1014 l 740 968 q 709 917 735 931 q 644 904 683 904 m 203 0 l 101 0 l 181 758 l 283 758 l 203 0 m 342 -263 q 273 -256 307 -263 q 202 -235 240 -250 l 236 -125 q 295 -146 266 -140 q 352 -153 323 -153 q 452 -116 412 -153 q 503 6 492 -80 l 571 662 l 433 662 l 443 758 l 683 758 l 602 -9 q 515 -199 590 -136 q 342 -263 441 -263 z "},"ĸ":{"ha":788,"x_min":134,"x_max":697,"o":"m 273 355 l 235 0 l 134 0 l 213 758 l 314 758 l 282 444 l 336 444 l 573 758 l 697 758 l 409 403 l 615 0 l 499 0 l 327 355 l 273 355 z "},"ŀ":{"ha":788,"x_min":78,"x_max":871,"o":"m 78 0 l 88 96 l 299 96 l 385 914 l 174 914 l 184 1010 l 496 1010 l 400 96 l 612 96 l 602 0 l 78 0 m 771 388 q 709 401 732 388 q 691 452 686 414 l 691 458 q 721 511 694 497 q 787 525 747 525 q 848 511 826 525 q 867 458 871 497 l 867 452 q 836 401 862 414 q 771 388 811 388 z "},"ł":{"ha":788,"x_min":78,"x_max":617,"o":"m 78 0 l 88 96 l 299 96 l 337 453 l 174 403 l 183 489 l 346 539 l 385 914 l 174 914 l 184 1010 l 496 1010 l 451 572 l 617 624 l 609 538 l 441 486 l 400 96 l 612 96 l 602 0 l 78 0 z "},"ŉ":{"ha":788,"x_min":52,"x_max":669,"o":"m 80 0 l 159 758 l 259 758 l 247 652 l 280 652 q 368 738 314 706 q 480 770 422 770 q 622 703 574 770 q 657 519 669 636 l 602 0 l 503 0 l 556 500 q 537 628 564 585 q 447 670 509 670 q 340 638 393 670 q 236 540 287 605 l 179 0 l 80 0 m 52 884 l 222 1136 l 376 1136 l 145 884 l 52 884 z "},"ŋ":{"ha":788,"x_min":80,"x_max":669,"o":"m 364 -263 q 299 -255 332 -263 q 232 -235 266 -247 l 266 -125 q 321 -145 294 -138 q 372 -153 348 -153 q 458 -121 423 -153 q 501 -14 494 -90 l 556 510 q 537 630 564 590 q 447 670 510 670 q 340 638 393 670 q 236 540 288 606 l 179 0 l 80 0 l 159 758 l 259 758 l 247 652 l 280 652 q 369 738 314 706 q 485 770 423 770 q 623 706 577 770 q 658 532 669 641 l 600 -29 q 521 -205 587 -146 q 364 -263 455 -263 z "},"œ":{"ha":788,"x_min":16,"x_max":746,"o":"m 697 163 q 629 32 677 76 q 494 -13 582 -13 q 400 11 438 -13 q 346 82 362 34 q 276 11 317 34 q 186 -13 235 -13 q 60 56 104 -13 q 32 268 16 125 l 54 485 q 128 699 69 629 q 269 770 187 770 q 352 747 317 770 q 407 676 388 723 q 475 747 434 723 q 564 770 515 770 q 700 711 654 770 q 734 530 746 653 l 716 361 l 420 361 l 405 220 q 417 100 396 136 q 490 64 438 64 q 567 86 543 64 q 605 167 591 107 l 697 163 m 438 532 l 428 431 l 631 431 l 640 519 q 629 652 650 610 q 557 693 609 693 q 477 653 506 693 q 438 532 447 614 m 203 66 q 285 113 254 66 q 327 266 316 160 l 350 482 q 341 641 361 590 q 270 692 321 692 q 189 641 221 692 q 146 484 158 590 l 124 266 q 133 113 112 160 q 203 66 154 66 z "},"ŧ":{"ha":788,"x_min":122,"x_max":689,"o":"m 458 -11 q 299 52 351 -11 q 258 229 246 115 l 271 365 l 128 365 l 139 467 l 283 467 l 303 662 l 122 662 l 133 758 l 313 758 l 340 1010 l 439 1010 l 413 758 l 689 758 l 679 662 l 403 662 l 383 467 l 621 467 l 610 365 l 371 365 l 359 242 q 378 129 351 167 q 466 91 404 91 q 542 97 505 91 q 611 116 578 104 l 621 18 q 545 -3 590 6 q 458 -11 501 -11 z "},"ſ":{"ha":788,"x_min":234,"x_max":715,"o":"m 264 -253 l 360 662 l 234 662 l 244 758 l 370 758 l 375 811 q 445 957 385 903 q 585 1011 505 1011 q 655 1001 616 1011 q 715 979 693 991 l 684 888 q 638 905 664 896 q 583 913 611 913 q 511 891 539 913 q 477 819 482 869 l 365 -253 l 264 -253 z "},"ȷ":{"ha":788,"x_min":56,"x_max":577,"o":"m 217 -263 q 140 -257 178 -263 q 56 -235 101 -251 l 90 -125 q 160 -147 126 -141 q 226 -153 193 -153 q 341 -116 294 -153 q 398 6 388 -80 l 466 662 l 169 662 l 179 758 l 577 758 l 496 -9 q 402 -201 482 -140 q 217 -263 322 -263 z "},"":{"ha":788,"x_min":56,"x_max":577,"o":"m 217 -263 q 140 -257 178 -263 q 56 -235 101 -251 l 90 -125 q 160 -147 126 -141 q 226 -153 193 -153 q 341 -116 294 -153 q 398 6 388 -80 l 466 662 l 169 662 l 179 758 l 577 758 l 496 -9 q 402 -201 482 -140 q 217 -263 322 -263 z "},"α":{"ha":788,"x_min":82,"x_max":689,"o":"m 297 87 q 396 121 348 87 q 494 226 443 154 l 525 530 q 451 636 491 602 q 359 669 410 669 q 266 622 301 669 q 222 482 232 574 l 201 277 q 215 134 191 182 q 297 87 239 87 m 501 115 l 471 115 q 384 19 438 51 q 263 -13 330 -13 q 128 60 173 -13 q 97 271 82 133 l 120 492 q 196 698 134 626 q 348 770 258 770 q 448 739 407 770 q 508 648 490 707 l 538 648 l 549 758 l 652 758 l 592 187 q 608 101 585 121 q 689 95 631 81 l 678 -6 q 545 12 591 -16 q 501 115 499 40 z "},"ά":{"ha":788,"x_min":82,"x_max":689,"o":"m 297 87 q 396 121 348 87 q 494 226 443 154 l 525 530 q 451 636 491 602 q 359 669 410 669 q 266 622 301 669 q 222 482 232 574 l 201 277 q 215 134 191 182 q 297 87 239 87 m 501 115 l 471 115 q 384 19 438 51 q 263 -13 330 -13 q 128 60 173 -13 q 97 271 82 133 l 120 492 q 196 698 134 626 q 348 770 258 770 q 448 739 407 770 q 508 648 490 707 l 538 648 l 549 758 l 652 758 l 592 187 q 608 101 585 121 q 689 95 631 81 l 678 -6 q 545 12 591 -16 q 501 115 499 40 m 415 884 l 523 1136 l 667 1136 l 499 884 l 415 884 z "},"β":{"ha":788,"x_min":53,"x_max":662,"o":"m 338 76 q 473 125 427 76 q 529 275 519 174 l 534 328 q 505 448 543 409 q 380 486 467 486 l 331 486 l 342 590 l 385 590 q 500 626 461 590 q 547 739 539 663 l 549 751 q 528 888 558 843 q 423 932 497 932 q 309 887 350 932 q 258 747 268 842 l 193 129 q 259 88 223 101 q 338 76 294 76 m 328 -13 q 252 -2 289 -13 q 182 27 215 9 l 153 -253 l 53 -253 l 158 740 q 246 951 172 880 q 432 1023 321 1023 q 603 956 544 1023 q 649 769 662 890 l 645 739 q 608 624 639 672 q 516 566 577 577 l 513 529 q 612 469 578 521 q 639 348 645 417 l 633 284 q 531 61 616 134 q 328 -13 446 -13 z "},"γ":{"ha":788,"x_min":133,"x_max":708,"o":"m 375 -253 l 254 -253 l 293 25 l 133 758 l 244 758 l 364 174 l 602 758 l 708 758 l 394 25 l 375 -253 z "},"δ":{"ha":788,"x_min":90,"x_max":659,"o":"m 340 -13 q 156 56 222 -13 q 105 268 90 125 l 119 400 q 179 539 128 484 q 298 624 230 595 q 212 701 236 659 q 194 809 188 742 q 268 963 206 915 q 443 1010 330 1010 l 638 1010 l 628 914 l 431 914 q 329 895 362 914 q 289 818 295 876 q 313 742 284 769 q 453 674 341 716 q 618 571 577 626 q 649 417 659 515 l 633 268 q 537 56 617 125 q 340 -13 457 -13 m 350 83 q 476 126 431 83 q 532 268 521 169 l 548 417 q 512 525 554 485 q 360 597 470 564 q 268 525 306 573 q 221 396 230 476 l 207 268 q 233 126 197 169 q 350 83 269 83 z "},"ε":{"ha":788,"x_min":68,"x_max":664,"o":"m 343 -13 q 133 43 197 -13 q 81 215 68 98 l 82 223 q 134 340 88 290 q 264 395 181 389 l 266 423 q 165 463 201 428 q 135 557 129 497 l 138 571 q 218 721 148 672 q 426 770 288 770 q 607 718 551 770 q 662 551 664 665 l 559 540 q 527 645 559 617 q 415 672 495 672 q 284 648 324 672 q 237 567 244 625 l 236 549 q 265 482 231 503 q 384 462 298 462 l 442 462 l 433 367 l 375 367 q 236 338 280 367 q 183 234 192 308 l 182 221 q 213 114 174 145 q 354 83 253 83 q 485 114 442 83 q 547 231 529 144 l 645 222 q 553 40 624 93 q 343 -13 482 -13 z "},"έ":{"ha":788,"x_min":68,"x_max":664,"o":"m 343 -13 q 133 43 197 -13 q 81 215 68 98 l 82 223 q 134 340 88 290 q 264 395 181 389 l 266 423 q 165 463 201 428 q 135 557 129 497 l 138 571 q 218 721 148 672 q 426 770 288 770 q 607 718 551 770 q 662 551 664 665 l 559 540 q 527 645 559 617 q 415 672 495 672 q 284 648 324 672 q 237 567 244 625 l 236 549 q 265 482 231 503 q 384 462 298 462 l 442 462 l 433 367 l 375 367 q 236 338 280 367 q 183 234 192 308 l 182 221 q 213 114 174 145 q 354 83 253 83 q 485 114 442 83 q 547 231 529 144 l 645 222 q 553 40 624 93 q 343 -13 482 -13 m 357 884 l 465 1136 l 609 1136 l 441 884 l 357 884 z "},"ζ":{"ha":788,"x_min":90,"x_max":731,"o":"m 378 -253 l 261 -253 l 271 -153 l 404 -153 q 468 -136 443 -153 q 499 -68 494 -120 q 483 -1 505 -18 q 422 16 461 16 l 331 16 q 148 98 206 16 q 102 299 90 179 q 147 451 111 380 q 222 566 183 523 l 422 802 l 415 816 q 232 860 294 802 q 164 1028 170 919 l 254 1033 q 323 919 258 948 q 494 920 389 890 l 702 1034 l 731 917 l 573 854 l 306 521 q 241 428 270 485 q 203 304 211 371 q 230 169 194 221 q 337 116 265 116 l 426 116 q 559 72 513 116 q 596 -71 606 28 q 528 -205 587 -158 q 378 -253 468 -253 z "},"η":{"ha":788,"x_min":80,"x_max":669,"o":"m 476 -253 l 556 510 q 537 630 564 590 q 447 670 510 670 q 340 638 393 670 q 236 540 288 606 l 179 0 l 80 0 l 159 758 l 259 758 l 247 652 l 280 652 q 369 738 314 706 q 485 770 424 770 q 622 706 576 770 q 658 532 669 641 l 576 -253 l 476 -253 z "},"ή":{"ha":788,"x_min":80,"x_max":669,"o":"m 476 -253 l 556 510 q 537 630 564 590 q 447 670 510 670 q 340 638 393 670 q 236 540 288 606 l 179 0 l 80 0 l 159 758 l 259 758 l 247 652 l 280 652 q 369 738 314 706 q 485 770 424 770 q 622 706 576 770 q 658 532 669 641 l 576 -253 l 476 -253 m 362 884 l 470 1136 l 614 1136 l 446 884 l 362 884 z "},"θ":{"ha":788,"x_min":93,"x_max":694,"o":"m 340 -13 q 155 59 216 -13 q 109 274 93 131 l 157 731 q 248 950 172 878 q 449 1023 324 1023 q 634 950 573 1023 q 679 731 694 878 l 631 274 q 540 59 616 131 q 340 -13 463 -13 m 258 734 l 240 563 l 561 563 l 578 732 q 553 880 588 833 q 438 927 518 927 q 313 881 359 927 q 258 734 268 835 m 350 83 q 474 128 429 83 q 529 269 519 172 l 549 460 l 229 460 l 208 269 q 234 128 198 172 q 350 83 270 83 z "},"ι":{"ha":788,"x_min":126,"x_max":626,"o":"m 494 -6 q 351 54 399 -6 q 316 223 303 114 l 361 662 l 126 662 l 136 758 l 472 758 l 414 207 q 430 119 408 149 q 506 88 452 88 q 560 94 528 88 q 614 112 592 100 l 626 20 q 566 1 601 8 q 494 -6 532 -6 z "},"ΐ":{"ha":788,"x_min":126,"x_max":674,"o":"m 494 -6 q 351 54 399 -6 q 316 223 303 114 l 361 662 l 126 662 l 136 758 l 472 758 l 414 207 q 430 119 408 149 q 506 88 452 88 q 560 94 528 88 q 614 112 592 100 l 626 20 q 566 1 601 8 q 494 -6 532 -6 m 357 884 l 433 1136 l 557 1136 l 420 884 l 357 884 m 242 888 q 203 901 217 888 q 192 953 188 914 l 193 958 q 214 1011 197 997 q 256 1025 231 1025 q 295 1011 282 1025 q 306 958 309 997 l 304 953 q 283 901 301 914 q 242 888 266 888 m 606 888 q 567 901 581 888 q 557 953 553 914 l 558 958 q 578 1011 562 997 q 620 1025 595 1025 q 660 1011 645 1025 q 670 958 674 997 l 669 953 q 648 901 665 914 q 606 888 630 888 z "},"ί":{"ha":788,"x_min":126,"x_max":626,"o":"m 494 -6 q 351 54 399 -6 q 316 223 303 114 l 361 662 l 126 662 l 136 758 l 472 758 l 414 207 q 430 119 408 149 q 506 88 452 88 q 560 94 528 88 q 614 112 592 100 l 626 20 q 566 1 601 8 q 494 -6 532 -6 m 351 884 l 458 1136 l 602 1136 l 434 884 l 351 884 z "},"ϊ":{"ha":788,"x_min":126,"x_max":630,"o":"m 494 -6 q 351 54 399 -6 q 316 223 303 114 l 361 662 l 126 662 l 136 758 l 472 758 l 414 207 q 430 119 408 149 q 506 88 452 88 q 560 94 528 88 q 614 112 592 100 l 626 20 q 566 1 601 8 q 494 -6 532 -6 m 309 904 q 262 917 279 904 q 250 968 245 931 l 250 975 q 274 1028 254 1014 q 324 1042 294 1042 q 372 1028 356 1042 q 384 975 388 1014 l 384 968 q 359 917 379 931 q 309 904 340 904 m 552 904 q 504 917 520 904 q 492 968 487 931 l 492 975 q 516 1028 496 1014 q 567 1042 535 1042 q 613 1028 596 1042 q 626 975 630 1014 l 626 968 q 601 917 621 931 q 552 904 581 904 z "},"κ":{"ha":788,"x_min":134,"x_max":697,"o":"m 273 355 l 235 0 l 134 0 l 213 758 l 314 758 l 282 444 l 336 444 l 573 758 l 697 758 l 409 403 l 615 0 l 499 0 l 327 355 l 273 355 z "},"λ":{"ha":788,"x_min":53,"x_max":629,"o":"m 518 0 l 410 674 l 160 0 l 53 0 l 364 790 l 393 790 l 389 814 q 352 896 379 869 q 274 924 326 924 q 227 920 254 924 q 168 908 199 917 l 160 1001 q 217 1012 189 1008 q 271 1016 245 1016 q 400 977 350 1016 q 470 850 451 937 l 629 0 l 518 0 z "},"μ":{"ha":788,"x_min":42,"x_max":678,"o":"m 182 25 l 164 -253 l 42 -253 l 81 25 l 158 758 l 259 758 l 205 240 q 229 121 196 157 q 316 85 263 85 q 403 114 364 85 q 480 194 442 144 l 539 758 l 640 758 l 581 187 q 596 99 573 119 q 678 95 619 80 l 667 -6 q 551 17 588 -18 q 518 136 514 52 l 497 136 q 408 26 458 66 q 295 -14 359 -14 q 232 2 260 -14 q 184 49 203 18 l 182 25 z "},"ν":{"ha":788,"x_min":133,"x_max":708,"o":"m 393 0 l 288 0 l 133 758 l 237 758 l 361 63 q 518 414 456 239 q 609 758 580 588 l 708 758 q 581 354 665 544 q 393 0 497 163 z "},"ξ":{"ha":788,"x_min":93,"x_max":705,"o":"m 617 -71 q 550 -205 609 -158 q 400 -253 491 -253 l 285 -253 l 295 -153 l 427 -153 q 491 -136 466 -153 q 520 -68 515 -120 q 505 -1 527 -18 q 444 16 484 16 l 333 16 q 155 80 216 16 q 105 254 93 144 l 109 292 q 170 430 117 370 q 318 499 223 490 l 321 528 q 232 566 260 528 q 211 665 205 605 q 240 751 216 715 q 311 811 264 787 l 314 840 q 172 898 221 848 q 115 1028 124 948 l 210 1033 q 283 951 213 980 q 451 933 354 922 l 673 1034 l 705 917 l 471 841 l 417 807 q 341 737 365 770 q 312 664 317 705 q 328 584 307 607 q 385 561 350 561 l 590 561 l 578 462 l 375 462 q 258 418 297 462 q 212 311 218 374 l 208 273 q 232 159 201 202 q 342 116 264 116 l 453 116 q 583 72 538 116 q 617 -71 628 28 z "},"ο":{"ha":788,"x_min":93,"x_max":668,"o":"m 340 -13 q 153 57 213 -13 q 106 258 93 128 l 131 495 q 221 699 145 628 q 423 770 297 770 q 608 699 548 770 q 654 497 668 629 l 630 259 q 541 57 616 128 q 340 -13 466 -13 m 350 83 q 475 124 431 83 q 529 254 520 164 l 554 497 q 528 631 564 588 q 412 674 492 674 q 286 631 331 674 q 231 497 241 588 l 206 253 q 233 124 197 164 q 350 83 269 83 z "},"ό":{"ha":788,"x_min":93,"x_max":668,"o":"m 340 -13 q 153 57 213 -13 q 106 258 93 128 l 131 495 q 221 699 145 628 q 423 770 297 770 q 608 699 548 770 q 654 497 668 629 l 630 259 q 541 57 616 128 q 340 -13 466 -13 m 350 83 q 475 124 431 83 q 529 254 520 164 l 554 497 q 528 631 564 588 q 412 674 492 674 q 286 631 331 674 q 231 497 241 588 l 206 253 q 233 124 197 164 q 350 83 269 83 m 357 884 l 465 1136 l 609 1136 l 441 884 l 357 884 z "},"π":{"ha":788,"x_min":85,"x_max":715,"o":"m 715 758 l 705 662 l 577 662 l 527 184 q 544 100 520 119 q 645 95 568 82 l 634 -6 q 460 16 510 -15 q 419 131 410 48 l 475 662 l 293 662 l 223 0 l 122 0 l 192 662 l 85 662 l 95 758 l 715 758 z "},"ρ":{"ha":788,"x_min":53,"x_max":668,"o":"m 381 87 q 484 133 447 87 q 532 271 521 178 l 554 495 q 528 631 564 586 q 412 676 491 676 q 286 631 331 676 q 231 495 241 586 l 203 223 q 281 121 237 155 q 381 87 324 87 m 53 -253 l 131 495 q 223 701 145 630 q 423 771 302 771 q 606 701 544 771 q 654 495 668 630 l 630 265 q 552 58 616 129 q 395 -13 489 -13 q 288 18 333 -13 q 223 106 242 48 l 191 106 l 153 -253 l 53 -253 z "},"ς":{"ha":788,"x_min":96,"x_max":653,"o":"m 268 -253 l 278 -157 l 410 -157 q 474 -140 449 -157 q 504 -69 499 -124 q 488 -1 509 -19 q 428 16 467 16 l 338 16 q 149 88 202 16 q 111 299 96 160 l 131 492 q 215 699 145 628 q 426 770 285 770 q 602 705 551 770 q 646 501 653 640 l 552 497 q 527 636 558 597 q 414 676 496 676 q 286 636 330 676 q 232 508 242 596 l 208 279 q 232 151 199 191 q 343 111 265 111 l 434 111 q 565 68 520 111 q 600 -73 610 25 q 533 -206 591 -160 q 384 -253 475 -253 l 268 -253 z "},"σ":{"ha":788,"x_min":92,"x_max":789,"o":"m 330 83 q 437 122 398 83 q 486 253 476 162 l 506 447 q 488 607 518 557 q 390 658 458 658 q 280 616 321 658 q 230 481 240 573 l 206 253 q 228 122 196 162 q 330 83 260 83 m 319 -13 q 153 52 213 -13 q 106 258 92 117 l 130 479 q 219 686 144 614 q 400 758 294 758 l 789 758 l 778 649 l 539 676 q 598 593 580 645 q 610 465 617 540 l 587 258 q 499 52 573 117 q 319 -13 426 -13 z "},"τ":{"ha":788,"x_min":149,"x_max":692,"o":"m 516 -6 q 343 16 391 -14 q 304 131 295 47 l 360 667 l 149 667 l 159 758 l 692 758 l 682 667 l 461 667 l 409 165 q 429 99 404 115 q 528 95 453 83 l 516 -6 z "},"υ":{"ha":788,"x_min":92,"x_max":682,"o":"m 340 -13 q 152 54 212 -13 q 106 249 92 121 l 159 758 l 259 758 l 205 245 q 232 117 196 155 q 350 78 268 78 q 475 117 432 78 q 528 245 519 155 l 582 758 l 682 758 l 629 249 q 541 54 615 121 q 340 -13 467 -13 z "},"ΰ":{"ha":788,"x_min":92,"x_max":684,"o":"m 340 -13 q 152 54 212 -13 q 106 249 92 121 l 159 758 l 259 758 l 205 245 q 232 117 196 155 q 350 78 268 78 q 475 117 432 78 q 528 245 519 155 l 582 758 l 682 758 l 629 249 q 541 54 615 121 q 340 -13 467 -13 m 367 884 l 443 1136 l 567 1136 l 431 884 l 367 884 m 253 888 q 213 901 227 888 q 202 953 198 914 l 203 958 q 224 1011 207 997 q 266 1025 241 1025 q 306 1011 292 1025 q 316 958 319 997 l 314 953 q 294 901 311 914 q 253 888 277 888 m 616 888 q 577 901 591 888 q 567 953 563 914 l 568 958 q 588 1011 572 997 q 630 1025 605 1025 q 670 1011 655 1025 q 681 958 684 997 l 679 953 q 658 901 676 914 q 616 888 640 888 z "},"ϋ":{"ha":788,"x_min":92,"x_max":682,"o":"m 340 -13 q 152 54 212 -13 q 106 249 92 121 l 159 758 l 259 758 l 205 245 q 232 117 196 155 q 350 78 268 78 q 475 117 432 78 q 528 245 519 155 l 582 758 l 682 758 l 629 249 q 541 54 615 121 q 340 -13 467 -13 m 314 904 q 267 917 284 904 q 255 968 250 931 l 255 975 q 279 1028 259 1014 q 330 1042 299 1042 q 377 1028 361 1042 q 389 975 393 1014 l 389 968 q 364 917 384 931 q 314 904 345 904 m 557 904 q 509 917 525 904 q 497 968 492 931 l 497 975 q 521 1028 501 1014 q 572 1042 540 1042 q 618 1028 601 1042 q 631 975 635 1014 l 631 968 q 606 917 626 931 q 557 904 586 904 z "},"ύ":{"ha":788,"x_min":92,"x_max":682,"o":"m 340 -13 q 152 54 212 -13 q 106 249 92 121 l 159 758 l 259 758 l 205 245 q 232 117 196 155 q 350 78 268 78 q 475 117 432 78 q 528 245 519 155 l 582 758 l 682 758 l 629 249 q 541 54 615 121 q 340 -13 467 -13 m 357 884 l 465 1136 l 609 1136 l 441 884 l 357 884 z "},"φ":{"ha":788,"x_min":53,"x_max":708,"o":"m 361 -253 l 265 -253 l 290 -10 q 113 84 173 3 q 67 304 53 165 l 81 428 q 122 626 92 537 q 196 783 153 715 l 280 742 q 215 604 245 683 q 176 428 186 524 l 162 304 q 186 141 152 201 q 301 69 221 82 l 372 758 l 473 758 q 647 672 586 758 q 688 402 708 586 l 681 322 q 584 87 664 172 q 386 -10 504 3 l 361 -253 m 458 679 l 394 68 q 525 146 477 82 q 585 322 572 210 l 592 402 q 573 612 607 545 q 458 679 539 679 z "},"χ":{"ha":788,"x_min":39,"x_max":696,"o":"m 465 -253 l 347 152 l 136 -253 l 39 -253 l 314 246 l 162 758 l 261 758 l 384 347 l 598 758 l 696 758 l 414 253 l 567 -253 l 465 -253 z "},"ψ":{"ha":788,"x_min":51,"x_max":726,"o":"m 361 -253 l 268 -253 l 293 -8 q 107 76 163 4 q 64 275 51 149 l 115 758 l 210 758 l 158 269 q 182 138 149 181 q 302 88 216 96 l 372 758 l 468 758 l 398 88 q 528 138 486 96 q 580 269 571 181 l 631 758 l 726 758 l 676 275 q 590 76 662 149 q 386 -8 518 4 l 361 -253 z "},"ω":{"ha":788,"x_min":49,"x_max":699,"o":"m 192 -13 q 86 62 122 -13 q 64 279 49 136 l 76 390 q 122 619 88 510 q 184 779 155 729 l 268 739 q 215 599 247 698 q 170 390 183 500 l 160 284 q 165 130 149 182 q 222 78 181 78 q 286 117 263 78 q 318 245 309 157 l 355 588 l 451 588 l 414 245 q 421 117 405 157 q 477 78 437 78 q 545 130 519 78 q 582 284 571 182 l 592 390 q 593 599 605 500 q 568 739 581 698 l 662 779 q 691 619 682 729 q 687 390 699 510 l 676 279 q 609 62 660 136 q 487 -13 557 -13 q 403 27 436 -13 q 364 150 371 67 l 351 150 q 285 27 326 67 q 192 -13 244 -13 z "},"ώ":{"ha":788,"x_min":49,"x_max":699,"o":"m 192 -13 q 86 62 122 -13 q 64 279 49 136 l 76 390 q 122 619 88 510 q 184 779 155 729 l 268 739 q 215 599 247 698 q 170 390 183 500 l 160 284 q 165 130 149 182 q 222 78 181 78 q 286 117 263 78 q 318 245 309 157 l 355 588 l 451 588 l 414 245 q 421 117 405 157 q 477 78 437 78 q 545 130 519 78 q 582 284 571 182 l 592 390 q 593 599 605 500 q 568 739 581 698 l 662 779 q 691 619 682 729 q 687 390 699 510 l 676 279 q 609 62 660 136 q 487 -13 557 -13 q 403 27 436 -13 q 364 150 371 67 l 351 150 q 285 27 326 67 q 192 -13 244 -13 m 367 884 l 475 1136 l 619 1136 l 451 884 l 367 884 z "},"а":{"ha":788,"x_min":57,"x_max":688,"o":"m 273 85 q 384 111 336 85 q 471 199 432 138 l 484 328 l 303 328 q 213 302 247 328 q 172 211 178 275 q 188 117 165 150 q 273 85 211 85 m 250 -13 q 109 42 160 -13 q 68 202 57 96 q 140 357 78 301 q 289 414 202 414 l 492 414 l 506 538 q 482 634 513 596 q 381 673 451 673 q 271 644 308 673 q 206 530 234 615 l 120 559 q 218 717 149 663 q 389 770 287 770 q 556 717 491 770 q 609 557 620 663 l 569 181 q 592 98 563 119 q 688 95 621 78 l 677 -6 q 550 10 597 -16 q 506 120 503 37 l 486 120 q 388 25 452 62 q 250 -13 324 -13 z "},"б":{"ha":788,"x_min":91,"x_max":676,"o":"m 340 -13 q 157 54 222 -13 q 106 268 91 121 l 150 681 q 239 875 163 804 q 437 975 314 946 l 667 1028 l 676 943 l 443 891 q 296 808 346 867 q 234 626 246 749 l 232 596 l 256 596 q 324 655 275 628 q 442 682 374 682 q 607 612 552 682 q 649 422 662 543 l 633 268 q 537 56 617 125 q 340 -13 457 -13 m 350 83 q 480 129 438 83 q 530 269 521 176 l 545 412 q 523 542 556 499 q 403 585 491 585 q 274 542 316 585 q 222 412 232 499 l 207 269 q 230 129 198 176 q 350 83 263 83 z "},"в":{"ha":788,"x_min":80,"x_max":673,"o":"m 80 0 l 159 758 l 415 758 q 614 710 554 758 q 663 564 673 662 l 662 551 q 613 455 655 490 q 503 415 571 420 l 499 388 q 617 335 582 381 q 646 223 653 288 l 645 215 q 556 52 634 105 q 336 0 479 0 l 80 0 m 227 444 l 391 444 q 518 464 482 444 q 559 537 553 484 l 561 554 q 533 637 567 615 q 405 659 500 659 l 250 659 l 227 444 m 191 96 l 346 96 q 494 121 452 96 q 544 218 537 146 l 545 231 q 518 326 553 302 q 381 351 482 351 l 217 351 l 191 96 z "},"г":{"ha":788,"x_min":133,"x_max":694,"o":"m 133 0 l 212 758 l 694 758 l 684 667 l 302 667 l 232 0 l 133 0 z "},"ѓ":{"ha":788,"x_min":133,"x_max":722,"o":"m 133 0 l 212 758 l 694 758 l 684 667 l 302 667 l 232 0 l 133 0 m 398 884 l 568 1136 l 722 1136 l 491 884 l 398 884 z "},"д":{"ha":788,"x_min":-5,"x_max":677,"o":"m 222 125 l 220 91 l 470 91 l 529 667 l 323 667 l 283 301 q 261 201 275 245 q 222 125 247 158 m 116 0 l 96 -189 l -5 -189 l 25 91 l 100 91 q 155 174 134 121 q 186 309 177 227 l 236 758 l 640 758 l 571 91 l 677 91 l 646 -189 l 545 -189 l 566 0 l 116 0 z "},"е":{"ha":788,"x_min":92,"x_max":669,"o":"m 624 163 q 521 30 583 72 q 340 -13 458 -13 q 154 56 216 -13 q 107 259 92 124 l 131 494 q 227 702 146 634 q 423 770 308 770 q 604 701 539 770 q 653 485 669 631 l 640 361 l 217 361 l 207 261 q 233 122 197 163 q 348 81 269 81 q 463 108 426 81 q 527 193 500 135 l 624 163 m 230 486 l 226 446 l 549 446 l 552 473 q 527 627 563 578 q 412 676 491 676 q 286 628 332 676 q 230 486 240 581 z "},"ѐ":{"ha":788,"x_min":92,"x_max":669,"o":"m 624 163 q 521 30 583 72 q 340 -13 458 -13 q 154 56 216 -13 q 107 259 92 124 l 131 494 q 227 702 146 634 q 423 770 308 770 q 604 701 539 770 q 653 485 669 631 l 640 361 l 217 361 l 207 261 q 233 122 197 163 q 348 81 269 81 q 463 108 426 81 q 527 193 500 135 l 624 163 m 230 486 l 226 446 l 549 446 l 552 473 q 527 627 563 578 q 412 676 491 676 q 286 628 332 676 q 230 486 240 581 m 438 884 l 260 1136 l 413 1136 l 532 884 l 438 884 z "},"ё":{"ha":788,"x_min":92,"x_max":669,"o":"m 624 163 q 521 30 583 72 q 340 -13 458 -13 q 154 56 216 -13 q 107 259 92 124 l 131 494 q 227 702 146 634 q 423 770 308 770 q 604 701 539 770 q 653 485 669 631 l 640 361 l 217 361 l 207 261 q 233 122 197 163 q 348 81 269 81 q 463 108 426 81 q 527 193 500 135 l 624 163 m 230 486 l 226 446 l 549 446 l 552 473 q 527 627 563 578 q 412 676 491 676 q 286 628 332 676 q 230 486 240 581 m 316 904 q 268 917 285 904 q 256 968 251 931 l 256 975 q 280 1028 260 1014 q 331 1042 301 1042 q 378 1028 362 1042 q 390 975 394 1014 l 390 968 q 366 917 385 931 q 316 904 346 904 m 558 904 q 510 917 527 904 q 499 968 494 931 l 499 975 q 522 1028 503 1014 q 573 1042 542 1042 q 619 1028 602 1042 q 633 975 636 1014 l 633 968 q 607 917 628 931 q 558 904 587 904 z "},"ж":{"ha":788,"x_min":3,"x_max":761,"o":"m 301 372 l 109 0 l 3 0 l 239 413 l 78 758 l 184 758 l 311 458 l 342 458 l 374 758 l 467 758 l 436 458 l 467 458 l 658 758 l 761 758 l 528 413 l 679 0 l 574 0 l 458 372 l 427 372 l 388 0 l 294 0 l 333 372 l 301 372 z "},"з":{"ha":788,"x_min":77,"x_max":674,"o":"m 335 -13 q 133 40 189 -13 q 81 222 77 92 l 182 231 q 218 114 182 144 q 345 85 254 85 q 491 113 446 85 q 544 221 537 141 l 545 234 q 516 338 554 309 q 384 367 479 367 l 323 367 l 332 462 l 393 462 q 517 481 480 462 q 559 549 554 500 l 561 567 q 532 649 567 626 q 407 672 497 672 q 289 645 327 672 q 234 540 251 619 l 135 551 q 222 719 155 668 q 417 770 289 770 q 611 723 548 770 q 664 571 674 676 l 662 557 q 613 463 655 497 q 503 423 571 428 l 500 395 q 617 340 581 389 q 646 223 653 290 l 645 215 q 560 44 633 101 q 335 -13 487 -13 z "},"и":{"ha":788,"x_min":80,"x_max":682,"o":"m 506 0 l 573 633 l 216 0 l 80 0 l 159 758 l 256 758 l 189 120 l 552 758 l 682 758 l 602 0 l 506 0 z "},"й":{"ha":788,"x_min":80,"x_max":682,"o":"m 506 0 l 573 633 l 216 0 l 80 0 l 159 758 l 256 758 l 189 120 l 552 758 l 682 758 l 602 0 l 506 0 m 433 875 q 284 928 343 875 q 237 1116 225 981 l 341 1129 q 354 999 332 1038 q 442 961 375 961 q 538 999 509 961 q 578 1129 567 1038 l 679 1116 q 593 928 664 981 q 433 875 523 875 z "},"ѝ":{"ha":788,"x_min":80,"x_max":682,"o":"m 506 0 l 573 633 l 216 0 l 80 0 l 159 758 l 256 758 l 189 120 l 552 758 l 682 758 l 602 0 l 506 0 m 437 884 l 259 1136 l 412 1136 l 530 884 l 437 884 z "},"к":{"ha":788,"x_min":134,"x_max":697,"o":"m 273 355 l 235 0 l 134 0 l 213 758 l 314 758 l 282 444 l 336 444 l 573 758 l 697 758 l 409 403 l 615 0 l 499 0 l 327 355 l 273 355 z "},"ќ":{"ha":788,"x_min":134,"x_max":707,"o":"m 273 355 l 235 0 l 134 0 l 213 758 l 314 758 l 282 444 l 336 444 l 573 758 l 697 758 l 409 403 l 615 0 l 499 0 l 327 355 l 273 355 m 383 884 l 553 1136 l 707 1136 l 476 884 l 383 884 z "},"л":{"ha":788,"x_min":1,"x_max":682,"o":"m 501 0 l 571 662 l 335 662 l 293 299 q 218 66 275 143 q 74 -11 162 -11 q 35 -7 53 -11 q 1 3 16 -3 l 29 93 q 56 85 44 88 q 76 81 67 81 q 156 134 129 81 q 197 316 183 188 l 247 758 l 682 758 l 602 0 l 501 0 z "},"м":{"ha":788,"x_min":68,"x_max":693,"o":"m 306 189 l 234 698 l 159 0 l 68 0 l 148 758 l 311 758 l 375 290 l 537 758 l 693 758 l 614 0 l 523 0 l 590 688 l 417 189 l 306 189 z "},"н":{"ha":788,"x_min":80,"x_max":682,"o":"m 80 0 l 159 758 l 259 758 l 231 489 l 554 489 l 582 758 l 682 758 l 602 0 l 503 0 l 544 396 l 221 396 l 179 0 l 80 0 z "},"о":{"ha":788,"x_min":93,"x_max":668,"o":"m 340 -13 q 153 57 213 -13 q 106 258 93 128 l 131 495 q 221 699 145 628 q 423 770 297 770 q 608 699 548 770 q 654 497 668 629 l 630 259 q 541 57 616 128 q 340 -13 466 -13 m 350 83 q 475 124 431 83 q 529 254 520 164 l 554 497 q 528 631 564 588 q 412 674 492 674 q 286 631 331 674 q 231 497 241 588 l 206 253 q 233 124 197 164 q 350 83 269 83 z "},"п":{"ha":788,"x_min":80,"x_max":682,"o":"m 80 0 l 159 758 l 682 758 l 602 0 l 503 0 l 572 667 l 249 667 l 179 0 l 80 0 z "},"р":{"ha":788,"x_min":53,"x_max":667,"o":"m 340 78 q 473 124 427 78 q 530 263 520 170 l 556 501 q 537 629 564 587 q 443 670 509 670 q 336 637 386 670 q 235 534 285 604 l 193 131 q 259 92 223 105 q 340 78 295 78 m 328 -14 q 254 -4 293 -14 q 182 24 216 6 l 153 -253 l 53 -253 l 159 758 l 259 758 l 247 652 l 280 652 q 362 738 309 706 q 479 770 414 770 q 621 694 574 770 q 653 486 667 617 l 630 260 q 536 59 616 133 q 328 -14 456 -14 z "},"с":{"ha":788,"x_min":93,"x_max":676,"o":"m 355 -13 q 154 57 215 -13 q 106 254 93 126 l 131 495 q 222 700 145 630 q 436 770 298 770 q 617 708 559 770 q 669 518 676 646 l 571 514 q 539 641 574 606 q 424 676 504 676 q 290 634 338 676 q 232 501 241 592 l 206 250 q 237 124 197 164 q 365 83 278 83 q 485 111 444 83 q 539 218 527 139 l 638 215 q 548 42 617 97 q 355 -13 479 -13 z "},"т":{"ha":788,"x_min":116,"x_max":715,"o":"m 290 0 l 360 667 l 116 667 l 126 758 l 715 758 l 705 667 l 461 667 l 391 0 l 290 0 z "},"у":{"ha":788,"x_min":30,"x_max":708,"o":"m 136 -258 q 84 -254 111 -258 q 30 -245 57 -250 l 58 -150 q 108 -160 86 -157 q 150 -163 130 -163 q 244 -130 206 -163 q 312 -27 282 -97 l 317 -14 l 278 -14 l 133 758 l 242 758 l 354 81 l 602 758 l 708 758 l 402 -34 q 282 -210 351 -163 q 136 -258 213 -258 z "},"ў":{"ha":788,"x_min":30,"x_max":708,"o":"m 136 -258 q 84 -254 111 -258 q 30 -245 57 -250 l 58 -150 q 108 -160 86 -157 q 150 -163 130 -163 q 244 -130 206 -163 q 312 -27 282 -97 l 317 -14 l 278 -14 l 133 758 l 242 758 l 354 81 l 602 758 l 708 758 l 402 -34 q 282 -210 351 -163 q 136 -258 213 -258 m 433 875 q 284 928 343 875 q 237 1116 225 981 l 341 1129 q 354 999 332 1038 q 442 961 375 961 q 538 999 509 961 q 578 1129 567 1038 l 679 1116 q 593 928 664 981 q 433 875 523 875 z "},"ф":{"ha":788,"x_min":53,"x_max":708,"o":"m 423 0 l 388 0 l 361 -253 l 268 -253 l 294 0 l 259 0 q 103 84 153 0 q 69 319 53 168 l 81 437 q 165 674 97 590 q 338 758 232 758 l 374 758 l 400 1010 l 494 1010 l 467 758 l 503 758 q 658 674 609 758 q 692 437 708 590 l 681 319 q 597 84 664 168 q 423 0 529 0 m 282 96 l 309 96 l 369 663 l 341 663 q 229 605 270 663 q 176 432 188 547 l 164 322 q 181 152 152 208 q 282 96 211 96 m 480 663 l 452 663 l 393 96 l 420 96 q 532 152 491 96 q 586 322 573 208 l 597 432 q 580 605 610 547 q 480 663 551 663 z "},"х":{"ha":788,"x_min":64,"x_max":698,"o":"m 500 0 l 366 295 l 177 0 l 64 0 l 324 380 l 150 758 l 265 758 l 394 471 l 586 758 l 698 758 l 436 385 l 614 0 l 500 0 z "},"ц":{"ha":788,"x_min":80,"x_max":665,"o":"m 539 -189 l 559 0 l 80 0 l 159 758 l 259 758 l 189 91 l 458 91 l 528 758 l 628 758 l 558 91 l 665 91 l 635 -189 l 539 -189 z "},"ч":{"ha":788,"x_min":97,"x_max":628,"o":"m 628 758 l 548 0 l 447 0 l 476 279 q 406 263 447 269 q 330 256 365 256 q 153 319 208 256 q 110 503 97 381 l 136 758 l 239 758 l 212 505 q 239 384 203 420 q 354 346 275 347 q 424 354 388 346 q 486 374 461 361 l 527 758 l 628 758 z "},"ш":{"ha":788,"x_min":35,"x_max":726,"o":"m 35 0 l 115 758 l 210 758 l 139 83 l 303 83 l 374 758 l 467 758 l 396 83 l 561 83 l 631 758 l 726 758 l 646 0 l 35 0 z "},"щ":{"ha":788,"x_min":35,"x_max":726,"o":"m 684 -189 l 591 -189 l 611 0 l 35 0 l 115 758 l 210 758 l 139 83 l 303 83 l 374 758 l 467 758 l 396 83 l 561 83 l 631 758 l 726 758 l 657 96 l 715 96 l 684 -189 z "},"ъ":{"ha":788,"x_min":42,"x_max":673,"o":"m 415 0 l 130 0 l 199 667 l 42 667 l 52 758 l 311 758 l 283 491 l 466 491 q 621 433 568 491 q 663 273 673 375 l 658 226 q 582 60 646 120 q 415 0 518 0 m 241 96 l 403 96 q 512 126 475 96 q 556 221 549 157 l 562 274 q 537 368 568 338 q 434 398 506 398 l 273 398 l 241 96 z "},"ы":{"ha":788,"x_min":58,"x_max":703,"o":"m 58 0 l 138 758 l 231 758 l 202 485 l 297 485 q 430 424 386 485 q 462 255 473 362 l 460 230 q 393 61 448 122 q 247 0 337 0 l 58 0 m 530 0 l 610 758 l 703 758 l 624 0 l 530 0 m 162 92 l 235 92 q 326 124 295 92 q 365 223 357 155 l 369 265 q 352 362 376 331 q 266 394 327 394 l 193 394 l 162 92 z "},"ь":{"ha":788,"x_min":78,"x_max":673,"o":"m 78 0 l 158 758 l 259 758 l 231 491 l 467 491 q 621 434 569 491 q 663 275 673 376 l 658 225 q 583 59 646 119 q 417 0 519 0 l 78 0 m 189 96 l 404 96 q 513 126 477 96 q 556 221 549 157 l 562 278 q 539 369 568 341 q 436 398 509 398 l 221 398 l 189 96 z "},"э":{"ha":788,"x_min":87,"x_max":668,"o":"m 323 -13 q 142 45 197 -13 q 91 227 87 104 l 188 232 q 217 119 183 153 q 335 86 251 86 q 472 127 424 86 q 529 255 520 168 l 539 346 l 295 346 l 304 437 l 548 437 l 556 499 q 526 631 564 590 q 399 672 487 672 q 271 633 312 672 q 217 499 230 593 l 120 503 q 212 704 143 638 q 407 770 282 770 q 609 699 549 770 q 654 494 668 629 l 630 265 q 542 58 616 129 q 323 -13 467 -13 z "},"ю":{"ha":788,"x_min":37,"x_max":711,"o":"m 439 -13 q 292 54 336 -13 q 261 246 249 121 l 275 378 l 179 378 l 140 0 l 37 0 l 116 758 l 220 758 l 191 476 l 287 476 l 289 506 q 361 701 303 633 q 523 770 419 770 q 670 698 629 770 q 698 506 711 626 l 670 246 q 603 58 659 129 q 439 -13 547 -13 m 449 87 q 540 123 510 87 q 578 246 569 159 l 606 506 q 594 633 616 596 q 511 670 572 670 q 420 633 449 670 q 380 506 390 596 l 352 246 q 366 123 343 159 q 449 87 388 87 z "},"я":{"ha":788,"x_min":69,"x_max":682,"o":"m 324 372 l 542 372 l 572 658 l 355 658 q 271 628 299 658 q 236 535 242 598 l 232 508 q 247 406 226 439 q 324 372 269 372 m 532 277 l 429 277 l 196 0 l 69 0 l 303 271 q 164 333 207 275 q 131 503 120 391 l 134 527 q 205 699 145 641 q 366 758 264 758 l 682 758 l 602 0 l 503 0 l 532 277 z "},"ђ":{"ha":788,"x_min":58,"x_max":665,"o":"m 365 -263 q 301 -255 335 -263 q 234 -235 268 -247 l 266 -125 q 323 -145 295 -138 q 374 -153 350 -153 q 459 -116 424 -153 q 504 10 494 -78 l 553 480 q 528 582 561 551 q 439 614 496 614 q 332 581 385 614 q 231 490 279 548 l 179 0 l 80 0 l 164 807 l 58 807 l 68 900 l 174 900 l 186 1010 l 285 1010 l 274 900 l 487 900 l 477 807 l 264 807 l 242 596 l 275 596 q 360 684 308 654 q 482 715 413 715 q 619 656 572 715 q 655 501 665 597 l 601 -6 q 520 -200 588 -138 q 365 -263 452 -263 z "},"є":{"ha":788,"x_min":93,"x_max":674,"o":"m 639 227 q 549 45 619 104 q 355 -13 480 -13 q 154 58 215 -13 q 107 265 93 129 l 131 494 q 221 699 145 629 q 436 770 297 770 q 617 704 559 770 q 668 503 674 638 l 568 499 q 540 631 573 592 q 424 670 508 670 q 290 629 338 670 q 232 499 241 588 l 225 438 l 467 438 l 458 345 l 216 345 l 206 255 q 237 128 197 168 q 365 88 278 88 q 487 121 446 88 q 539 232 528 154 l 639 227 z "},"ѕ":{"ha":788,"x_min":69,"x_max":663,"o":"m 355 -14 q 200 11 275 -14 q 69 90 125 37 l 126 174 q 235 109 172 134 q 366 85 298 85 q 481 109 434 85 q 534 196 528 134 q 503 284 542 259 q 359 331 463 309 q 182 406 234 355 q 140 552 130 457 q 224 714 152 658 q 400 770 297 770 q 543 742 473 770 q 663 663 612 713 l 607 576 q 508 643 564 615 q 388 672 452 672 q 287 646 326 672 q 240 558 247 620 q 272 469 234 495 q 414 423 311 443 q 592 347 539 399 q 635 205 644 294 q 544 40 624 95 q 355 -14 465 -14 z "},"і":{"ha":788,"x_min":78,"x_max":614,"o":"m 78 0 l 88 96 l 301 96 l 360 662 l 148 662 l 158 758 l 471 758 l 402 96 l 614 96 l 604 0 l 78 0 m 434 904 q 372 917 395 904 q 354 968 348 931 l 354 975 q 384 1028 357 1014 q 449 1042 410 1042 q 511 1028 489 1042 q 530 975 534 1014 l 530 968 q 499 917 525 931 q 434 904 473 904 z "},"ї":{"ha":788,"x_min":78,"x_max":635,"o":"m 78 0 l 88 96 l 301 96 l 360 662 l 148 662 l 158 758 l 471 758 l 402 96 l 614 96 l 604 0 l 78 0 m 314 904 q 267 917 284 904 q 255 968 250 931 l 255 975 q 279 1028 259 1014 q 330 1042 299 1042 q 377 1028 361 1042 q 389 975 393 1014 l 389 968 q 364 917 384 931 q 314 904 345 904 m 557 904 q 509 917 525 904 q 497 968 492 931 l 497 975 q 521 1028 501 1014 q 572 1042 540 1042 q 618 1028 601 1042 q 631 975 635 1014 l 631 968 q 606 917 626 931 q 557 904 586 904 z "},"ј":{"ha":788,"x_min":56,"x_max":639,"o":"m 217 -263 q 140 -257 178 -263 q 56 -235 101 -251 l 90 -125 q 160 -147 126 -141 q 226 -153 193 -153 q 341 -116 294 -153 q 398 6 388 -80 l 466 662 l 169 662 l 179 758 l 577 758 l 496 -9 q 402 -201 482 -140 q 217 -263 322 -263 m 539 904 q 477 917 500 904 q 458 968 453 931 l 458 975 q 489 1028 462 1014 q 554 1042 515 1042 q 616 1028 593 1042 q 635 975 639 1014 l 635 968 q 604 917 630 931 q 539 904 578 904 z "},"љ":{"ha":788,"x_min":-38,"x_max":696,"o":"m 265 655 l 205 189 q 146 40 193 91 q 37 -10 98 -10 q 0 -6 19 -10 q -38 5 -19 -3 l -5 114 q 21 103 8 107 q 45 98 34 98 q 87 120 71 98 q 110 192 104 141 l 183 758 l 479 758 l 451 491 l 540 491 q 658 433 620 491 q 684 270 696 375 l 678 202 q 619 54 668 107 q 490 0 569 0 l 304 0 l 374 655 l 265 655 m 409 97 l 477 97 q 552 127 527 98 q 585 216 578 155 l 591 275 q 578 367 597 337 q 509 398 558 398 l 441 398 l 409 97 z "},"њ":{"ha":788,"x_min":37,"x_max":684,"o":"m 398 97 l 466 97 q 540 123 514 97 q 572 201 566 149 l 580 271 q 565 360 586 331 q 496 390 544 390 l 428 390 l 398 97 m 173 393 l 131 0 l 37 0 l 116 758 l 211 758 l 182 485 l 343 485 l 372 758 l 467 758 l 438 485 l 528 485 q 646 426 607 485 q 674 261 684 366 l 668 207 q 607 54 658 109 q 479 0 557 0 l 293 0 l 335 393 l 173 393 z "},"ћ":{"ha":788,"x_min":58,"x_max":664,"o":"m 230 481 l 179 0 l 80 0 l 164 807 l 58 807 l 68 900 l 174 900 l 186 1010 l 285 1010 l 274 900 l 487 900 l 477 807 l 264 807 l 241 586 l 274 586 q 358 680 302 645 q 482 715 414 715 q 618 654 572 715 q 654 491 664 593 l 602 0 l 503 0 l 552 472 q 532 579 559 544 q 439 614 504 614 q 335 581 386 614 q 230 481 284 549 z "},"џ":{"ha":788,"x_min":80,"x_max":682,"o":"m 273 -189 l 293 0 l 80 0 l 159 758 l 259 758 l 189 91 l 513 91 l 582 758 l 682 758 l 602 0 l 390 0 l 370 -189 l 273 -189 z "},"ґ":{"ha":788,"x_min":133,"x_max":715,"o":"m 133 0 l 212 758 l 598 758 l 619 947 l 715 947 l 684 667 l 302 667 l 232 0 l 133 0 z "},"ⁿ":{"ha":788,"x_min":173,"x_max":643,"o":"m 173 383 l 239 1013 l 322 1013 l 313 927 l 340 927 q 372 975 354 956 q 412 1004 391 994 q 453 1019 433 1015 q 494 1023 473 1023 q 556 1010 528 1023 q 605 973 585 997 q 634 915 625 949 q 639 840 643 881 l 591 383 l 508 383 l 553 814 q 552 871 557 847 q 535 910 547 895 q 505 934 523 927 q 466 942 487 942 q 420 936 442 942 q 380 917 399 929 q 342 887 360 904 q 306 848 323 870 l 256 383 l 173 383 z "},"̀":{"ha":0,"x_min":-135,"x_max":136,"o":"m 43 884 l -135 1136 l 18 1136 l 136 884 l 43 884 z "},"́":{"ha":0,"x_min":-78,"x_max":246,"o":"m -78 884 l 92 1136 l 246 1136 l 15 884 l -78 884 z "},"̂":{"ha":0,"x_min":-181,"x_max":279,"o":"m -140 907 l -181 970 l 32 1154 l 104 1154 l 279 970 l 222 905 l 56 1047 l -140 907 z "},"̃":{"ha":0,"x_min":-177,"x_max":285,"o":"m 124 896 q 61 921 83 896 q 24 973 39 946 q -3 1025 10 1001 q -35 1049 -15 1049 q -75 1019 -59 1049 q -96 920 -91 989 l -97 909 l -177 909 l -176 928 q -124 1080 -165 1019 q -15 1141 -82 1141 q 52 1117 29 1141 q 90 1066 76 1092 q 113 1014 102 1038 q 143 990 124 990 q 182 1020 165 990 q 206 1117 198 1049 l 207 1130 l 285 1130 l 283 1111 q 232 957 274 1018 q 124 896 191 896 z "},"̄":{"ha":0,"x_min":-162,"x_max":268,"o":"m -162 965 l -152 1056 l 268 1056 l 258 965 l -162 965 z "},"̆":{"ha":0,"x_min":-191,"x_max":309,"o":"m 39 875 q -131 936 -71 875 q -178 1129 -191 997 l -74 1129 q -52 999 -83 1038 q 48 961 -21 961 q 156 999 117 961 q 206 1129 194 1038 l 309 1129 q 222 936 294 997 q 39 875 149 875 z "},"̇":{"ha":0,"x_min":-44,"x_max":141,"o":"m 42 904 q -21 917 3 904 q -39 968 -44 931 l -39 975 q -9 1028 -35 1014 q 57 1042 18 1042 q 119 1028 96 1042 q 138 975 141 1014 l 138 968 q 107 917 133 931 q 42 904 81 904 z "},"̈":{"ha":0,"x_min":-144,"x_max":241,"o":"m -80 904 q -127 917 -110 904 q -139 968 -144 931 l -139 975 q -115 1028 -135 1014 q -64 1042 -95 1042 q -17 1028 -33 1042 q -5 975 -1 1014 l -5 968 q -30 917 -10 931 q -80 904 -49 904 m 163 904 q 115 917 131 904 q 104 968 98 931 l 104 975 q 127 1028 107 1014 q 178 1042 146 1042 q 224 1028 207 1042 q 237 975 241 1014 l 237 968 q 212 917 232 931 q 163 904 192 904 z "},"̊":{"ha":0,"x_min":-119,"x_max":237,"o":"m 38 869 q -78 913 -37 869 q -110 1048 -119 957 l -105 1088 q -45 1226 -96 1181 q 81 1271 6 1271 q 197 1226 157 1271 q 229 1088 237 1181 l 223 1048 q 164 913 215 957 q 38 869 112 869 m 47 951 q 114 973 90 951 q 144 1048 139 995 l 149 1088 q 134 1165 154 1140 q 72 1189 115 1189 q 4 1165 29 1189 q -25 1088 -20 1140 l -30 1048 q -16 973 -35 995 q 47 951 4 951 z "},"̋":{"ha":0,"x_min":-120,"x_max":354,"o":"m 122 884 l 208 1136 l 354 1136 l 196 884 l 122 884 m -120 884 l -34 1136 l 111 1136 l -47 884 l -120 884 z "},"̌":{"ha":0,"x_min":-170,"x_max":289,"o":"m 5 889 l -170 1073 l -114 1136 l 53 997 l 249 1136 l 289 1073 l 77 889 l 5 889 z "},"̒":{"ha":0,"x_min":-100,"x_max":183,"o":"m -100 884 l 88 1136 l 183 1136 l 54 884 l -100 884 z "},"̦":{"ha":0,"x_min":-234,"x_max":49,"o":"m -234 -379 l -105 -126 l 49 -126 l -139 -379 l -234 -379 z "},"̧":{"ha":0,"x_min":-263,"x_max":59,"o":"m -85 0 l -59 53 q 27 -1 -5 40 q 52 -115 59 -43 q -8 -232 44 -194 q -115 -269 -59 -269 q -222 -242 -182 -269 q -260 -146 -263 -215 l -169 -134 q -157 -167 -170 -158 q -111 -177 -144 -177 q -61 -160 -80 -177 q -38 -101 -43 -144 q -44 -32 -34 -54 q -85 0 -54 -10 z "},"̨":{"ha":0,"x_min":-170,"x_max":95,"o":"m -21 -269 q -129 -229 -87 -269 q -163 -121 -170 -189 q -112 -20 -157 -66 q -18 48 -67 25 l 8 29 q -49 -33 -33 1 q -68 -91 -66 -67 q -54 -146 -72 -126 q 0 -165 -35 -165 q 49 -161 19 -165 q 95 -153 78 -157 l 85 -256 q 33 -265 63 -261 q -21 -269 3 -269 z "},"¼":{"ha":788,"x_min":5,"x_max":755,"o":"m 218 518 l 227 604 l 371 604 l 402 889 l 386 889 q 362 845 378 865 q 327 809 347 824 q 286 787 308 794 q 240 779 264 779 l 242 862 q 299 874 271 864 q 350 905 327 885 q 391 953 374 924 q 418 1018 409 982 l 509 1018 l 465 604 l 595 604 l 586 518 l 218 518 m 5 318 l 18 433 l 351 408 l 345 343 l 5 318 m 426 343 l 432 408 l 755 433 l 742 318 l 426 343 m 571 -144 l 472 -144 l 460 -265 l 367 -265 l 380 -144 l 111 -144 l 119 -67 l 394 273 l 516 273 l 480 -67 l 578 -67 l 571 -144 m 201 -67 l 388 -67 l 415 194 l 201 -67 z "},"½":{"ha":788,"x_min":5,"x_max":755,"o":"m 218 518 l 227 604 l 371 604 l 402 889 l 386 889 q 362 845 378 865 q 327 809 347 824 q 286 787 308 794 q 240 779 264 779 l 242 862 q 295 873 269 864 q 345 902 321 883 q 388 949 370 920 q 418 1018 407 979 l 509 1018 l 465 604 l 595 604 l 586 518 l 218 518 m 5 318 l 18 433 l 351 408 l 345 343 l 5 318 m 426 343 l 432 408 l 755 433 l 742 318 l 426 343 m 104 -265 l 114 -164 q 127 -109 117 -134 q 154 -63 136 -83 q 195 -28 169 -43 q 254 -6 221 -14 l 386 25 q 419 35 407 30 q 442 48 432 40 q 455 65 451 56 q 461 88 460 74 l 465 117 q 462 146 466 134 q 447 168 458 159 q 415 182 436 177 q 361 187 394 187 q 307 181 328 187 q 273 163 285 176 q 253 133 260 152 q 240 85 245 114 l 148 93 q 169 171 155 139 q 210 225 183 203 q 274 257 235 246 q 369 268 313 268 q 461 258 423 268 q 521 230 500 247 q 552 184 544 211 q 557 124 561 158 l 552 76 q 539 23 549 45 q 510 -15 528 1 q 470 -40 492 -30 q 418 -58 448 -51 l 287 -90 q 254 -98 266 -93 q 232 -112 241 -102 q 215 -140 222 -121 q 205 -187 208 -158 l 532 -187 l 524 -265 l 104 -265 z "},"¾":{"ha":788,"x_min":5,"x_max":755,"o":"m 391 510 q 295 520 335 510 q 235 549 256 529 q 202 597 211 568 q 194 665 193 625 l 288 673 q 292 636 288 650 q 307 611 295 621 q 340 598 318 602 q 400 593 362 593 q 460 597 436 593 q 499 609 484 601 q 518 626 511 616 q 527 650 525 636 l 529 670 q 527 695 530 684 q 509 712 523 706 q 475 722 497 718 q 417 726 452 726 l 365 726 l 375 812 l 427 812 q 477 815 457 812 q 509 824 496 818 q 528 843 521 832 q 538 872 535 855 l 540 904 q 535 922 542 914 q 515 933 528 929 q 480 940 500 938 q 433 942 460 942 q 388 938 407 942 q 355 926 369 934 q 333 905 341 918 q 323 872 326 891 l 230 880 q 253 946 237 919 q 294 991 268 973 q 356 1017 319 1009 q 442 1025 393 1025 q 524 1020 489 1025 q 586 1000 559 1014 q 624 963 611 986 q 633 905 636 939 l 630 883 q 620 843 629 861 q 596 813 611 826 q 563 793 582 801 q 521 783 543 785 l 519 760 q 564 750 544 758 q 597 731 585 742 q 617 703 611 718 q 622 670 624 688 l 620 650 q 600 589 616 615 q 557 545 585 563 q 487 519 529 528 q 391 510 446 510 m 5 318 l 18 433 l 351 408 l 345 343 l 5 318 m 426 343 l 432 408 l 755 433 l 742 318 l 426 343 m 569 -144 l 471 -144 l 458 -265 l 366 -265 l 379 -144 l 110 -144 l 117 -67 l 393 273 l 515 273 l 479 -67 l 577 -67 l 569 -144 m 199 -67 l 386 -67 l 414 194 l 199 -67 z "},"⅛":{"ha":788,"x_min":5,"x_max":755,"o":"m 220 518 l 229 604 l 372 604 l 403 889 l 388 889 q 364 845 379 865 q 328 809 348 824 q 287 787 309 794 q 241 779 265 779 l 244 862 q 296 873 270 864 q 346 902 322 883 q 390 949 371 920 q 419 1018 408 979 l 510 1018 l 466 604 l 596 604 l 587 518 l 220 518 m 5 318 l 18 433 l 351 408 l 345 343 l 5 318 m 426 343 l 432 408 l 755 433 l 742 318 l 426 343 m 317 -271 q 218 -261 258 -271 q 158 -234 179 -251 q 128 -188 135 -215 q 122 -126 120 -162 l 125 -109 q 136 -64 128 -85 q 160 -30 145 -44 q 197 -7 177 -15 q 242 4 217 1 l 245 27 q 209 36 225 29 q 182 54 193 43 q 164 81 169 66 q 162 116 159 97 l 164 141 q 184 199 168 174 q 226 239 199 223 q 289 261 253 254 q 374 269 326 269 q 458 262 423 269 q 518 240 494 255 q 552 200 542 225 q 558 141 562 176 l 556 116 q 544 81 553 97 q 523 54 535 66 q 492 36 510 43 q 453 27 473 29 l 451 4 q 495 -8 476 1 q 525 -32 514 -16 q 543 -66 538 -47 q 545 -109 548 -86 l 543 -126 q 526 -189 539 -163 q 486 -235 513 -216 q 419 -262 461 -253 q 317 -271 376 -271 m 352 58 q 400 61 380 58 q 433 72 419 64 q 454 89 447 78 q 463 115 461 100 l 465 131 q 461 157 466 146 q 443 173 456 167 q 412 182 432 179 q 365 186 393 186 q 318 182 337 186 q 285 173 298 179 q 265 157 273 167 q 256 131 258 146 l 255 115 q 258 89 253 100 q 275 72 264 78 q 306 61 287 64 q 352 58 324 58 m 326 -188 q 388 -183 364 -188 q 426 -168 412 -178 q 444 -145 438 -159 q 452 -112 449 -131 l 452 -104 q 451 -69 455 -83 q 438 -45 448 -56 q 404 -30 427 -35 q 343 -25 381 -25 q 282 -30 306 -25 q 245 -45 259 -35 q 227 -69 232 -56 q 218 -104 221 -83 l 218 -112 q 219 -145 216 -131 q 232 -168 222 -159 q 266 -183 244 -178 q 326 -188 288 -188 z "},"⅜":{"ha":788,"x_min":5,"x_max":755,"o":"m 391 510 q 295 520 333 510 q 235 548 256 529 q 202 596 211 567 q 194 665 193 625 l 288 673 q 292 636 288 650 q 307 611 295 621 q 340 598 318 602 q 400 593 362 593 q 460 597 436 593 q 499 609 484 601 q 518 626 511 616 q 527 650 525 636 l 529 670 q 527 694 530 684 q 509 712 523 705 q 475 722 497 718 q 417 726 452 726 l 365 726 l 375 812 l 427 812 q 477 814 457 812 q 509 824 496 817 q 528 843 521 831 q 538 872 535 855 l 540 904 q 535 922 542 914 q 515 933 528 929 q 480 940 500 938 q 433 942 460 942 q 388 938 407 942 q 356 926 369 934 q 335 905 342 918 q 323 872 327 891 l 230 880 q 253 946 237 919 q 294 991 268 973 q 355 1017 318 1009 q 442 1025 391 1025 q 525 1020 489 1025 q 586 1000 561 1014 q 624 963 612 986 q 633 905 636 939 l 630 883 q 620 843 629 861 q 596 813 611 826 q 563 793 582 801 q 521 783 543 785 l 519 760 q 564 750 544 758 q 597 731 585 742 q 617 703 611 718 q 622 670 624 688 l 620 650 q 601 589 616 615 q 557 545 586 563 q 487 519 529 528 q 391 510 446 510 m 5 318 l 18 433 l 351 408 l 345 343 l 5 318 m 426 343 l 432 408 l 755 433 l 742 318 l 426 343 m 317 -271 q 218 -261 258 -271 q 158 -234 179 -251 q 128 -188 135 -215 q 122 -126 120 -162 l 125 -109 q 136 -64 128 -85 q 160 -30 145 -44 q 197 -7 177 -15 q 242 4 217 1 l 245 27 q 209 36 225 29 q 182 54 193 43 q 164 81 169 66 q 162 116 159 97 l 164 141 q 184 199 168 174 q 226 239 199 223 q 289 261 253 254 q 374 269 326 269 q 458 262 423 269 q 518 240 494 255 q 552 200 542 225 q 558 141 562 176 l 556 116 q 544 81 553 97 q 523 54 535 66 q 492 36 510 43 q 453 27 473 29 l 451 4 q 495 -8 476 1 q 525 -32 514 -16 q 543 -66 538 -47 q 545 -109 548 -86 l 543 -126 q 526 -189 539 -163 q 486 -235 513 -216 q 419 -262 461 -253 q 317 -271 376 -271 m 352 58 q 400 61 380 58 q 433 72 419 64 q 454 89 447 78 q 463 115 461 100 l 465 131 q 461 157 466 146 q 443 173 456 167 q 412 182 432 179 q 365 186 393 186 q 318 182 337 186 q 285 173 298 179 q 265 157 273 167 q 256 131 258 146 l 255 115 q 258 89 253 100 q 275 72 264 78 q 306 61 287 64 q 352 58 324 58 m 326 -188 q 388 -183 364 -188 q 426 -168 412 -178 q 444 -145 438 -159 q 452 -112 449 -131 l 452 -104 q 451 -69 455 -83 q 438 -45 448 -56 q 404 -30 427 -35 q 343 -25 381 -25 q 282 -30 306 -25 q 245 -45 259 -35 q 227 -69 232 -56 q 218 -104 221 -83 l 218 -112 q 219 -145 216 -131 q 232 -168 222 -159 q 266 -183 244 -178 q 326 -188 288 -188 z "},"⅝":{"ha":788,"x_min":5,"x_max":755,"o":"m 395 513 q 297 520 336 513 q 235 543 259 527 q 202 588 212 559 q 194 660 192 616 l 288 668 q 292 629 288 644 q 311 607 297 615 q 345 597 323 600 q 404 595 366 595 q 460 598 438 595 q 497 610 482 602 q 518 628 511 616 q 528 655 525 639 l 530 691 q 528 718 533 707 q 511 736 524 730 q 479 747 500 744 q 427 751 458 751 l 223 751 l 251 1018 l 635 1018 l 626 936 l 336 936 l 326 842 l 456 842 q 533 833 500 842 q 588 807 567 824 q 620 763 611 789 q 625 701 629 736 l 621 658 q 602 598 617 625 q 558 552 586 572 q 489 523 529 533 q 395 513 448 513 m 5 318 l 18 433 l 351 408 l 345 343 l 5 318 m 426 343 l 432 408 l 755 433 l 742 318 l 426 343 m 317 -271 q 218 -261 258 -271 q 158 -234 179 -251 q 128 -188 135 -215 q 122 -126 120 -162 l 125 -109 q 136 -64 128 -85 q 160 -30 145 -44 q 197 -7 177 -15 q 242 4 217 1 l 245 27 q 209 36 225 29 q 182 54 193 43 q 164 81 169 66 q 162 116 159 97 l 164 141 q 184 199 168 174 q 226 239 199 223 q 289 261 253 254 q 374 269 326 269 q 458 262 423 269 q 518 240 494 255 q 552 200 542 225 q 558 141 562 176 l 556 116 q 544 81 553 97 q 523 54 535 66 q 492 36 510 43 q 453 27 473 29 l 451 4 q 495 -8 476 1 q 525 -32 514 -16 q 543 -66 538 -47 q 545 -109 548 -86 l 543 -126 q 526 -189 539 -163 q 486 -235 513 -216 q 419 -262 461 -253 q 317 -271 376 -271 m 352 58 q 400 61 380 58 q 433 72 419 64 q 454 89 447 78 q 463 115 461 100 l 465 131 q 461 157 466 146 q 443 173 456 167 q 412 182 432 179 q 365 186 393 186 q 318 182 337 186 q 285 173 298 179 q 265 157 273 167 q 256 131 258 146 l 255 115 q 258 89 253 100 q 275 72 264 78 q 306 61 287 64 q 352 58 324 58 m 326 -188 q 388 -183 364 -188 q 426 -168 412 -178 q 444 -145 438 -159 q 452 -112 449 -131 l 452 -104 q 451 -69 455 -83 q 438 -45 448 -56 q 404 -30 427 -35 q 343 -25 381 -25 q 282 -30 306 -25 q 245 -45 259 -35 q 227 -69 232 -56 q 218 -104 221 -83 l 218 -112 q 219 -145 216 -131 q 232 -168 222 -159 q 266 -183 244 -178 q 326 -188 288 -188 z "},"⅞":{"ha":788,"x_min":5,"x_max":755,"o":"m 316 518 q 360 643 337 587 q 412 749 383 699 q 475 842 439 797 q 556 932 510 886 l 229 932 l 237 1018 l 658 1018 l 649 932 q 568 833 604 883 q 503 731 532 783 q 452 627 473 681 q 414 518 431 573 l 316 518 m 5 318 l 18 433 l 351 408 l 345 343 l 5 318 m 426 343 l 432 408 l 755 433 l 742 318 l 426 343 m 317 -271 q 218 -261 258 -271 q 158 -234 179 -251 q 128 -188 135 -215 q 122 -126 120 -162 l 125 -109 q 136 -64 128 -85 q 160 -30 145 -44 q 197 -7 177 -15 q 242 4 217 1 l 245 27 q 209 36 225 29 q 182 54 193 43 q 164 81 169 66 q 162 116 159 97 l 164 141 q 184 199 168 174 q 226 239 199 223 q 289 261 253 254 q 374 269 326 269 q 458 262 423 269 q 518 240 494 255 q 552 200 542 225 q 558 141 562 176 l 556 116 q 544 81 553 97 q 523 54 535 66 q 492 36 510 43 q 453 27 473 29 l 451 4 q 495 -8 476 1 q 525 -32 514 -16 q 543 -66 538 -47 q 545 -109 548 -86 l 543 -126 q 526 -189 539 -163 q 486 -235 513 -216 q 419 -262 461 -253 q 317 -271 376 -271 m 352 58 q 400 61 380 58 q 433 72 419 64 q 454 89 447 78 q 463 115 461 100 l 465 131 q 461 157 466 146 q 443 173 456 167 q 412 182 432 179 q 365 186 393 186 q 318 182 337 186 q 285 173 298 179 q 265 157 273 167 q 256 131 258 146 l 255 115 q 258 89 253 100 q 275 72 264 78 q 306 61 287 64 q 352 58 324 58 m 326 -188 q 388 -183 364 -188 q 426 -168 412 -178 q 444 -145 438 -159 q 452 -112 449 -131 l 452 -104 q 451 -69 455 -83 q 438 -45 448 -56 q 404 -30 427 -35 q 343 -25 381 -25 q 282 -30 306 -25 q 245 -45 259 -35 q 227 -69 232 -56 q 218 -104 221 -83 l 218 -112 q 219 -145 216 -131 q 232 -168 222 -159 q 266 -183 244 -178 q 326 -188 288 -188 z "},"_":{"ha":788,"x_min":20,"x_max":619,"o":"m 20 -253 l 30 -152 l 619 -152 l 609 -253 l 20 -253 z "},"-":{"ha":788,"x_min":87,"x_max":687,"o":"m 87 390 l 98 491 l 687 491 l 676 390 l 87 390 z "},"­":{"ha":788,"x_min":87,"x_max":687,"o":"m 87 390 l 98 491 l 687 491 l 676 390 l 87 390 z "},"‐":{"ha":788,"x_min":87,"x_max":687,"o":"m 87 390 l 98 491 l 687 491 l 676 390 l 87 390 z "},"‑":{"ha":788,"x_min":87,"x_max":687,"o":"m 87 390 l 98 491 l 687 491 l 676 390 l 87 390 z "},"–":{"ha":788,"x_min":121,"x_max":653,"o":"m 121 390 l 133 491 l 653 491 l 641 390 l 121 390 z "},"—":{"ha":788,"x_min":13,"x_max":761,"o":"m 13 390 l 24 491 l 761 491 l 750 390 l 13 390 z "},"―":{"ha":788,"x_min":13,"x_max":761,"o":"m 13 390 l 24 491 l 761 491 l 750 390 l 13 390 z "},"(":{"ha":788,"x_min":197,"x_max":660,"o":"m 523 -265 q 278 -50 359 -216 q 225 379 197 116 q 367 808 251 643 q 658 1023 484 973 l 660 943 q 435 748 520 898 q 327 379 350 598 q 357 7 303 158 q 540 -189 410 -144 l 523 -265 z "},")":{"ha":788,"x_min":101,"x_max":564,"o":"m 104 -265 l 101 -189 q 326 7 241 -144 q 436 379 412 158 q 405 749 458 600 q 221 943 351 898 l 239 1023 q 484 807 403 973 q 538 379 564 641 q 394 -50 510 116 q 104 -265 278 -216 z "},"[":{"ha":788,"x_min":158,"x_max":655,"o":"m 158 -253 l 290 1010 l 655 1010 l 645 914 l 383 914 l 268 -177 l 530 -177 l 523 -253 l 158 -253 z "},"]":{"ha":788,"x_min":106,"x_max":604,"o":"m 106 -253 l 114 -177 l 376 -177 l 491 914 l 229 914 l 239 1010 l 604 1010 l 471 -253 l 106 -253 z "},"{":{"ha":788,"x_min":66,"x_max":657,"o":"m 521 -265 q 207 -217 299 -270 q 126 -56 115 -163 q 160 53 134 9 q 215 129 187 97 q 266 188 241 159 q 295 249 292 216 q 251 334 302 308 q 66 364 201 360 l 72 424 q 264 453 208 428 q 326 535 319 477 q 308 593 328 569 q 268 644 288 617 q 229 714 246 673 q 218 819 212 755 q 333 975 230 922 q 657 1023 436 1028 l 646 927 q 400 903 475 931 q 318 812 324 875 q 330 751 314 780 q 374 687 346 722 q 415 617 400 652 q 427 539 431 582 q 365 436 419 472 q 213 395 311 400 l 212 389 q 354 335 308 376 q 393 221 400 293 q 366 152 389 183 q 308 85 343 120 q 253 21 274 52 q 227 -51 231 -10 q 289 -146 220 -117 q 532 -172 359 -176 l 521 -265 z "},"}":{"ha":788,"x_min":105,"x_max":698,"o":"m 543 -56 q 429 -217 532 -163 q 105 -265 327 -270 l 115 -172 q 361 -146 285 -176 q 444 -51 437 -117 q 433 21 448 -10 q 391 85 418 52 q 347 152 364 120 q 335 221 331 183 q 397 335 342 293 q 551 389 452 376 l 552 395 q 408 436 455 400 q 369 539 361 472 q 395 617 372 582 q 452 687 418 652 q 509 751 487 722 q 535 812 532 780 q 472 903 542 875 q 230 927 402 931 l 240 1023 q 555 975 463 1028 q 635 819 646 922 q 603 714 629 755 q 551 644 577 673 q 497 593 523 617 q 470 535 472 569 q 514 453 463 477 q 698 424 564 428 l 692 364 q 501 334 557 360 q 439 249 446 308 q 455 188 436 216 q 495 129 473 159 q 533 53 515 97 q 543 -56 551 9 z "},"#":{"ha":788,"x_min":56,"x_max":732,"o":"m 447 362 l 489 648 l 341 648 l 299 362 l 447 362 m 394 0 l 433 264 l 285 264 l 246 0 l 154 0 l 193 264 l 56 264 l 66 362 l 207 362 l 249 648 l 96 648 l 106 746 l 263 746 l 302 1010 l 394 1010 l 355 746 l 503 746 l 542 1010 l 634 1010 l 595 746 l 732 746 l 722 648 l 581 648 l 539 362 l 692 362 l 682 264 l 525 264 l 486 0 l 394 0 z "},"%":{"ha":788,"x_min":18,"x_max":773,"o":"m 251 581 q 129 629 173 581 q 97 778 86 677 l 104 846 q 168 989 114 942 q 299 1035 222 1035 q 422 989 379 1035 q 455 846 465 942 l 448 778 q 383 629 437 677 q 251 581 330 581 m 261 670 q 321 696 298 670 q 350 778 343 721 l 357 847 q 345 924 362 899 q 290 948 327 948 q 231 924 255 948 q 202 847 207 899 l 194 778 q 207 696 188 721 q 261 670 226 670 m 18 295 l 736 780 l 773 713 l 53 229 l 18 295 m 489 -28 q 365 18 409 -28 q 331 159 321 64 l 340 237 q 404 380 350 333 q 537 427 458 427 q 658 380 616 427 q 691 237 701 333 l 682 159 q 619 18 672 64 q 489 -28 567 -28 m 497 62 q 556 85 533 62 q 585 159 580 109 l 593 240 q 580 315 598 290 q 527 340 562 340 q 467 315 491 340 q 438 240 443 290 l 429 159 q 443 85 424 109 q 497 62 462 62 z "},"‰":{"ha":788,"x_min":5,"x_max":759,"o":"m 246 581 q 129 628 170 581 q 98 771 88 674 l 107 852 q 169 991 117 946 q 294 1035 220 1035 q 411 991 370 1035 q 442 852 452 946 l 433 771 q 372 628 423 674 q 246 581 321 581 m 198 770 q 209 694 193 717 q 256 670 225 670 q 308 694 288 670 q 333 770 328 717 l 342 855 q 332 926 347 903 q 285 948 317 948 q 233 926 254 948 q 207 855 212 903 l 198 770 m 759 725 l 43 258 l 5 327 l 720 794 l 759 725 m 568 -28 q 513 -11 537 -28 q 476 37 489 5 q 432 -11 458 5 q 375 -28 407 -28 q 287 16 317 -28 q 266 150 256 59 l 278 266 q 327 402 288 357 q 422 447 366 447 q 477 431 455 447 q 514 381 500 414 q 559 431 532 414 q 617 447 586 447 q 704 402 674 447 q 723 266 734 357 l 712 150 q 663 16 702 59 q 568 -28 624 -28 m 355 135 q 360 73 351 92 q 389 53 369 53 q 423 73 409 53 q 441 135 437 92 l 457 284 q 452 349 461 328 q 423 370 443 370 q 389 349 403 370 q 371 284 375 328 l 355 135 m 532 135 q 537 73 528 92 q 567 53 545 53 q 601 73 587 53 q 619 135 615 92 l 635 284 q 630 349 639 328 q 601 370 621 370 q 566 349 580 370 q 548 284 552 328 l 532 135 z "},"'":{"ha":788,"x_min":346,"x_max":530,"o":"m 346 523 l 364 1010 l 530 1010 l 447 523 l 346 523 z "},"\"":{"ha":788,"x_min":186,"x_max":689,"o":"m 504 523 l 523 1010 l 689 1010 l 607 523 l 504 523 m 186 523 l 205 1010 l 371 1010 l 289 523 l 186 523 z "},"ʻ":{"ha":788,"x_min":241,"x_max":615,"o":"m 241 523 l 528 1010 l 615 1010 l 448 523 l 241 523 z "},"‘":{"ha":788,"x_min":241,"x_max":615,"o":"m 241 523 l 528 1010 l 615 1010 l 448 523 l 241 523 z "},"’":{"ha":788,"x_min":229,"x_max":602,"o":"m 229 523 l 395 1010 l 602 1010 l 316 523 l 229 523 z "},"“":{"ha":788,"x_min":80,"x_max":764,"o":"m 398 523 l 687 1010 l 764 1010 l 596 523 l 398 523 m 80 523 l 369 1010 l 446 1010 l 278 523 l 80 523 z "},"”":{"ha":788,"x_min":80,"x_max":763,"o":"m 398 523 l 566 1010 l 763 1010 l 476 523 l 398 523 m 80 523 l 249 1010 l 444 1010 l 157 523 l 80 523 z "},"‛":{"ha":788,"x_min":271,"x_max":543,"o":"m 457 523 l 271 1010 l 477 1010 l 543 523 l 457 523 z "},"‚":{"ha":788,"x_min":169,"x_max":520,"o":"m 169 -270 l 316 216 l 520 216 l 256 -270 l 169 -270 z "},"„":{"ha":788,"x_min":54,"x_max":737,"o":"m 372 -265 l 540 222 l 737 222 l 451 -265 l 372 -265 m 54 -265 l 223 222 l 419 222 l 131 -265 l 54 -265 z "},"‹":{"ha":788,"x_min":226,"x_max":574,"o":"m 514 155 l 226 396 l 236 487 l 574 729 l 564 638 l 292 442 l 523 246 l 514 155 z "},"›":{"ha":788,"x_min":201,"x_max":549,"o":"m 201 155 l 210 246 l 485 442 l 251 638 l 261 729 l 549 487 l 539 396 l 201 155 z "},"«":{"ha":788,"x_min":91,"x_max":712,"o":"m 652 154 l 405 395 l 414 485 l 712 727 l 702 636 l 463 441 l 660 245 l 652 154 m 337 154 l 91 395 l 100 485 l 398 727 l 388 636 l 149 441 l 346 245 l 337 154 z "},"»":{"ha":788,"x_min":66,"x_max":686,"o":"m 66 154 l 74 245 l 314 441 l 116 636 l 126 727 l 371 485 l 362 395 l 66 154 m 380 154 l 389 245 l 629 441 l 431 636 l 441 727 l 686 485 l 677 395 l 380 154 z "},"*":{"ha":788,"x_min":90,"x_max":730,"o":"m 626 414 l 436 593 l 436 313 l 309 313 l 369 592 l 141 414 l 90 521 l 347 663 l 120 803 l 194 912 l 384 732 l 383 1010 l 509 1010 l 451 731 l 679 912 l 730 803 l 472 663 l 699 521 l 626 414 z "},"†":{"ha":788,"x_min":100,"x_max":670,"o":"m 263 -253 l 359 662 l 253 662 l 182 402 l 100 402 l 170 758 l 367 758 l 388 1010 l 506 1010 l 472 758 l 670 758 l 665 402 l 583 402 l 568 662 l 461 662 l 365 -253 l 263 -253 z "},"‡":{"ha":788,"x_min":88,"x_max":673,"o":"m 255 -253 l 289 6 l 92 6 l 88 285 l 170 285 l 193 101 l 299 101 l 359 657 l 253 657 l 189 472 l 107 472 l 170 751 l 367 751 l 388 1010 l 506 1010 l 473 751 l 670 751 l 673 472 l 591 472 l 568 657 l 462 657 l 403 101 l 509 101 l 572 285 l 654 285 l 592 6 l 395 6 l 374 -253 l 255 -253 z "},".":{"ha":788,"x_min":230,"x_max":476,"o":"m 341 -13 q 259 13 289 -13 q 236 97 230 39 l 239 117 q 280 202 245 176 q 366 229 314 229 q 447 202 418 229 q 470 117 476 176 l 467 97 q 426 13 461 39 q 341 -13 391 -13 z "},",":{"ha":788,"x_min":157,"x_max":508,"o":"m 157 -270 l 303 216 l 508 216 l 244 -270 l 157 -270 z "},":":{"ha":788,"x_min":229,"x_max":533,"o":"m 395 501 q 313 525 343 501 q 288 601 283 548 l 293 650 q 335 729 299 705 q 422 754 370 754 q 504 729 475 754 q 527 650 533 705 l 521 601 q 481 525 516 548 q 395 501 446 501 m 341 -15 q 259 8 289 -15 q 234 86 229 32 l 239 135 q 280 214 245 189 q 367 239 316 239 q 449 214 420 239 q 472 135 479 189 l 467 86 q 427 8 462 32 q 341 -15 391 -15 z "},";":{"ha":788,"x_min":154,"x_max":533,"o":"m 395 501 q 313 525 343 501 q 288 601 283 548 l 293 650 q 335 729 299 705 q 422 754 370 754 q 504 729 475 754 q 527 650 533 705 l 521 601 q 481 525 516 548 q 395 501 446 501 m 154 -279 l 303 225 l 511 225 l 241 -279 l 154 -279 z "},"…":{"ha":788,"x_min":18,"x_max":687,"o":"m 592 -11 q 541 15 559 -11 q 529 95 523 40 l 532 121 q 561 203 538 177 q 617 230 585 230 q 669 203 650 230 q 681 121 687 177 l 678 95 q 648 15 672 40 q 592 -11 624 -11 m 340 -11 q 289 15 307 -11 q 277 95 270 40 l 279 121 q 309 203 285 177 q 365 230 332 230 q 417 203 399 230 q 428 121 434 177 l 426 95 q 395 15 419 40 q 340 -11 371 -11 m 88 -11 q 37 15 56 -11 q 24 95 18 40 l 27 121 q 57 203 33 177 q 114 230 81 230 q 165 203 148 230 q 176 121 182 177 l 173 95 q 143 15 167 40 q 88 -11 120 -11 z "},"!":{"ha":788,"x_min":254,"x_max":527,"o":"m 350 379 l 383 1010 l 527 1010 l 429 379 l 350 379 m 348 -13 q 275 13 297 -13 q 260 93 254 39 l 264 129 q 296 211 269 184 q 375 237 323 237 q 447 211 427 237 q 462 129 467 184 l 458 93 q 426 13 452 39 q 348 -13 399 -13 z "},"¡":{"ha":788,"x_min":270,"x_max":543,"o":"m 448 1023 q 521 997 500 1023 q 537 917 543 971 l 533 881 q 501 799 528 826 q 422 773 473 773 q 350 799 371 773 q 335 881 330 826 l 338 917 q 371 997 345 971 q 448 1023 398 1023 m 448 631 l 414 0 l 270 0 l 370 631 l 448 631 z "},"‼":{"ha":788,"x_min":102,"x_max":667,"o":"m 487 379 l 521 1010 l 667 1010 l 569 379 l 487 379 m 196 379 l 230 1010 l 375 1010 l 278 379 l 196 379 m 487 -13 q 443 -6 461 -13 q 413 13 424 0 q 398 46 403 27 q 398 93 394 66 l 402 129 q 413 177 404 157 q 434 211 422 198 q 468 231 448 225 q 514 237 487 237 q 558 231 540 237 q 587 211 576 225 q 602 177 598 198 q 602 129 605 157 l 598 93 q 586 46 595 66 q 566 13 578 27 q 532 -6 552 0 q 487 -13 513 -13 m 196 -13 q 151 -6 169 -13 q 121 13 133 0 q 107 46 111 27 q 106 93 102 66 l 110 129 q 121 177 112 157 q 143 211 130 198 q 176 231 157 225 q 222 237 196 237 q 266 231 249 237 q 295 211 284 225 q 310 177 307 198 q 311 129 313 157 l 307 93 q 295 46 303 66 q 274 13 287 27 q 241 -6 260 0 q 196 -13 221 -13 z "},"?":{"ha":788,"x_min":106,"x_max":747,"o":"m 311 413 l 298 497 q 555 577 489 533 q 629 697 621 621 l 633 739 q 604 879 643 832 q 447 927 564 927 q 273 879 317 927 q 206 693 229 832 l 106 706 q 208 955 134 886 q 456 1023 282 1023 q 682 952 617 1023 q 735 755 747 881 l 729 692 q 620 511 715 569 q 311 413 525 452 m 301 -13 q 228 13 250 -13 q 212 93 206 39 l 216 129 q 249 211 221 184 q 327 237 277 237 q 400 211 379 237 q 415 129 420 184 l 412 93 q 378 13 405 39 q 301 -13 351 -13 z "},"¿":{"ha":788,"x_min":40,"x_max":682,"o":"m 489 1023 q 561 997 539 1023 q 576 917 582 971 l 572 881 q 540 799 567 826 q 462 773 513 773 q 389 799 410 773 q 372 881 367 826 l 376 917 q 410 997 383 971 q 489 1023 438 1023 m 479 597 l 491 513 q 235 433 302 477 q 160 313 168 389 l 157 271 q 185 130 146 177 q 342 83 223 83 q 515 131 471 83 q 582 317 559 178 l 682 304 q 581 56 655 125 q 333 -13 508 -13 q 106 57 172 -13 q 53 255 40 128 l 59 318 q 169 499 73 441 q 479 597 264 558 z "},"/":{"ha":788,"x_min":52,"x_max":710,"o":"m 52 -253 l 606 1010 l 710 1010 l 155 -253 l 52 -253 z "},"\\":{"ha":788,"x_min":184,"x_max":577,"o":"m 473 -253 l 184 1010 l 288 1010 l 577 -253 l 473 -253 z "},"⁄":{"ha":788,"x_min":80,"x_max":710,"o":"m 80 0 l 607 1010 l 710 1010 l 182 0 l 80 0 z "},"∕":{"ha":788,"x_min":80,"x_max":710,"o":"m 80 0 l 607 1010 l 710 1010 l 182 0 l 80 0 z "},"|":{"ha":788,"x_min":269,"x_max":494,"o":"m 269 -253 l 402 1010 l 494 1010 l 361 -253 l 269 -253 z "}}}
